STARTFONT 2.1
COMMENT $Xorg: $
COMMENT ISO10646-1 extension by Markus Kuhn <mkuhn@acm.org>, 2001-03-20
COMMENT  (c) Copyright Bigelow & Holmes 1986, 1985. Lucida is a registered
COMMENT  trademark of Bigelow & Holmes. See LEGAL NOTICE file for terms 
COMMENT  of the license. 
FONT -B&H-Lucida-Bold-R-Normal-Sans-25-180-100-100-P-158-ISO10646-1
SIZE 18 100 100
FONTBOUNDINGBOX 49 37 -17 -10
STARTPROPERTIES 22
COMMENT Begin LogicalFontDescription
FONTNAME_REGISTRY ""
FOUNDRY "B&H"
FAMILY_NAME "Lucida"
WEIGHT_NAME "Bold"
SLANT "R"
SETWIDTH_NAME "Normal"
ADD_STYLE_NAME "Sans"
PIXEL_SIZE 25
POINT_SIZE 180
RESOLUTION_X 100
RESOLUTION_Y 100
SPACING "P"
AVERAGE_WIDTH 158
CHARSET_REGISTRY "ISO10646"
CHARSET_ENCODING "1"
COMMENT END LogicalFontDescription
FONT_ASCENT 23
FONT_DESCENT 6
DEFAULT_CHAR 0
COPYRIGHT "Copyright Bigelow & Holmes 1986, 1985."
FACE_NAME "Lucida Sans Bold"
X_HEIGHT 13
CAP_HEIGHT 18
ENDPROPERTIES
CHARS 756
STARTCHAR char0
ENCODING 0
SWIDTH 813 0
DWIDTH 20 0
BBX 15 17 2 0
BITMAP
AAAA
0000
8002
0000
8002
0000
8002
0000
8002
0000
8002
0000
8002
0000
8002
0000
AAAA
ENDCHAR
STARTCHAR space
ENCODING 32
SWIDTH 343 0
DWIDTH 9 0
BBX 1 1 0 0
BITMAP
00
ENDCHAR
STARTCHAR exclam
ENCODING 33
SWIDTH 265 0
DWIDTH 9 0
BBX 5 18 2 0
BITMAP
F8
F8
F8
F8
F8
F8
F8
F8
70
70
70
70
70
00
00
F8
F8
F8
ENDCHAR
STARTCHAR quotedbl
ENCODING 34
SWIDTH 530 0
DWIDTH 13 0
BBX 11 8 1 11
BITMAP
FBE0
FBE0
F3E0
F3E0
71C0
71C0
71C0
71C0
ENDCHAR
STARTCHAR numbersign
ENCODING 35
SWIDTH 687 0
DWIDTH 17 0
BBX 16 18 1 0
BITMAP
038C
030C
0318
0318
0618
3FFF
7FFF
0630
0C30
0C30
0C60
FFFE
FFFC
1860
18C0
18C0
30C0
31C0
ENDCHAR
STARTCHAR dollar
ENCODING 36
SWIDTH 687 0
DWIDTH 17 0
BBX 13 24 2 -3
BITMAP
0700
0700
0700
1FF0
3FF0
7FF0
7B10
7B00
7F00
7F00
3F00
1FC0
0FE0
07F0
07F8
06F8
0678
8678
FFF0
FFF0
7FC0
0700
0700
0700
ENDCHAR
STARTCHAR percent
ENCODING 37
SWIDTH 898 0
DWIDTH 22 0
BBX 22 18 0 0
BITMAP
3E00F0
7F01E0
FF83C0
E38380
E38780
E38F00
FF9E00
7F3C00
3E3800
0079F0
00F3F8
01E7FC
03C71C
07871C
07871C
0F07FC
1E03F8
3C01F0
ENDCHAR
STARTCHAR ampersand
ENCODING 38
SWIDTH 792 0
DWIDTH 20 0
BBX 18 18 1 0
BITMAP
03E000
0FF800
1FFC00
1F3C00
1F3C00
1FFC00
0FF000
0FC3C0
3FE3C0
7FF3C0
F9F380
F9FF80
F8FF00
F8FF00
FC7E00
7FFE00
3FFF00
0FCF80
ENDCHAR
STARTCHAR quotesingle
ENCODING 39
SWIDTH 265 0
DWIDTH 7 0
BBX 5 9 1 10
BITMAP
F8
F8
F8
F8
F8
70
70
70
70
ENDCHAR
STARTCHAR parenleft
ENCODING 40
SWIDTH 386 0
DWIDTH 10 0
BBX 8 24 1 -5
BITMAP
01
07
0F
1F
3E
3C
7C
7C
78
F8
F8
F8
F8
F8
F8
78
7C
7C
3C
3E
1F
0F
07
01
ENDCHAR
STARTCHAR parenright
ENCODING 41
SWIDTH 386 0
DWIDTH 10 0
BBX 8 24 1 -5
BITMAP
80
E0
F0
F8
7C
3C
3E
3E
1E
1F
1F
1F
1F
1F
1F
1E
3E
3E
3C
7C
F8
F0
E0
80
ENDCHAR
STARTCHAR asterisk
ENCODING 42
SWIDTH 464 0
DWIDTH 12 0
BBX 10 9 1 9
BITMAP
1E00
4C80
6D80
F3C0
E3C0
1200
7F00
3380
1200
ENDCHAR
STARTCHAR plus
ENCODING 43
SWIDTH 687 0
DWIDTH 17 0
BBX 15 15 1 0
BITMAP
0380
0380
0380
0380
0380
0380
FFFE
FFFE
FFFE
0380
0380
0380
0380
0380
0380
ENDCHAR
STARTCHAR comma
ENCODING 44
SWIDTH 343 0
DWIDTH 9 0
BBX 5 9 2 -4
BITMAP
F8
F8
F8
F8
F8
38
70
F0
C0
ENDCHAR
STARTCHAR hyphen
ENCODING 45
SWIDTH 289 0
DWIDTH 7 0
BBX 5 3 1 6
BITMAP
F8
F8
F8
ENDCHAR
STARTCHAR period
ENCODING 46
SWIDTH 343 0
DWIDTH 9 0
BBX 5 5 2 0
BITMAP
F8
F8
F8
F8
F8
ENDCHAR
STARTCHAR slash
ENCODING 47
SWIDTH 596 0
DWIDTH 15 0
BBX 15 23 0 -4
BITMAP
001E
001C
003C
0038
0078
0070
00F0
00E0
01E0
01C0
03C0
0380
0780
0700
0F00
0E00
1E00
1C00
3C00
3800
7800
7000
F000
ENDCHAR
STARTCHAR zero
ENCODING 48
SWIDTH 687 0
DWIDTH 17 0
BBX 15 18 1 0
BITMAP
07C0
1FF0
3FF8
7C7C
7C7C
783C
F83E
F83E
F83E
F83E
F83E
F83E
783C
7C7C
7C7C
3FF8
1FF0
07C0
ENDCHAR
STARTCHAR one
ENCODING 49
SWIDTH 687 0
DWIDTH 17 0
BBX 8 18 4 0
BITMAP
FF
FF
FF
1F
1F
1F
1F
1F
1F
1F
1F
1F
1F
1F
1F
1F
1F
1F
ENDCHAR
STARTCHAR two
ENCODING 50
SWIDTH 687 0
DWIDTH 17 0
BBX 13 18 2 0
BITMAP
3F80
FFE0
FFF0
C1F8
00F8
00F8
00F8
01F0
01F0
03E0
07C0
0F80
3E00
7C00
F800
FFF8
FFF8
FFF8
ENDCHAR
STARTCHAR three
ENCODING 51
SWIDTH 687 0
DWIDTH 17 0
BBX 13 18 2 0
BITMAP
3F80
FFE0
FFF0
83F0
01F0
01F0
03E0
3FC0
3F00
3FE0
03F0
00F8
00F8
00F8
C1F8
FFF0
FFE0
7F80
ENDCHAR
STARTCHAR four
ENCODING 52
SWIDTH 687 0
DWIDTH 17 0
BBX 16 18 0 0
BITMAP
007C
00FC
01FC
03FC
07FC
0F7C
1E7C
3C7C
787C
F07C
FFFF
FFFF
FFFF
007C
007C
007C
007C
007C
ENDCHAR
STARTCHAR five
ENCODING 53
SWIDTH 687 0
DWIDTH 17 0
BBX 12 18 3 0
BITMAP
FFF0
FFF0
FFF0
E000
E000
E000
FE00
FF80
FFE0
07E0
03F0
01F0
01F0
01F0
83F0
FFE0
FFC0
7F00
ENDCHAR
STARTCHAR six
ENCODING 54
SWIDTH 687 0
DWIDTH 17 0
BBX 15 18 1 0
BITMAP
03F8
0FFC
3FFC
3F04
7C00
7C00
F800
FBF0
FFF8
FFFC
FC7E
F83E
F83E
783E
7C7C
3FFC
1FF8
07E0
ENDCHAR
STARTCHAR seven
ENCODING 55
SWIDTH 687 0
DWIDTH 17 0
BBX 13 18 3 0
BITMAP
FFF8
FFF8
FFF8
0078
00F0
01F0
03E0
03C0
0780
0F80
0F00
1E00
3E00
3E00
3C00
7C00
7C00
7C00
ENDCHAR
STARTCHAR eight
ENCODING 56
SWIDTH 687 0
DWIDTH 17 0
BBX 15 18 1 0
BITMAP
0FE0
1FF8
3FFC
7C7C
783C
7C3C
3F78
3FF0
0FF0
3FF8
7CFC
783E
F81E
F81E
FC3E
7FFC
3FF8
0FE0
ENDCHAR
STARTCHAR nine
ENCODING 57
SWIDTH 687 0
DWIDTH 17 0
BBX 15 18 1 0
BITMAP
0FC0
3FF0
7FF8
7C7C
F83C
F83E
F83E
FC7E
7FFE
3FFE
1FBE
003E
007C
007C
40F8
7FF8
7FE0
3F80
ENDCHAR
STARTCHAR colon
ENCODING 58
SWIDTH 343 0
DWIDTH 9 0
BBX 5 13 2 0
BITMAP
F8
F8
F8
F8
F8
00
00
00
F8
F8
F8
F8
F8
ENDCHAR
STARTCHAR semicolon
ENCODING 59
SWIDTH 343 0
DWIDTH 9 0
BBX 5 17 2 -4
BITMAP
F8
F8
F8
F8
F8
00
00
00
F8
F8
F8
F8
F8
38
70
F0
C0
ENDCHAR
STARTCHAR less
ENCODING 60
SWIDTH 687 0
DWIDTH 17 0
BBX 14 15 2 0
BITMAP
0004
001C
007C
01FC
07F0
1FC0
3F00
FC00
3F00
1FC0
07F0
01FC
007C
001C
0004
ENDCHAR
STARTCHAR equal
ENCODING 61
SWIDTH 687 0
DWIDTH 17 0
BBX 14 9 2 2
BITMAP
FFFC
FFFC
FFFC
0000
0000
0000
FFFC
FFFC
FFFC
ENDCHAR
STARTCHAR greater
ENCODING 62
SWIDTH 687 0
DWIDTH 17 0
BBX 14 15 2 0
BITMAP
8000
E000
F800
FE00
3F80
0FE0
03F0
00FC
03F0
0FE0
3F80
FE00
F800
E000
8000
ENDCHAR
STARTCHAR question
ENCODING 63
SWIDTH 572 0
DWIDTH 14 0
BBX 12 18 1 0
BITMAP
7F80
FFE0
FFF0
83F0
01F0
01F0
01E0
03C0
0780
0780
0F00
1F00
1F00
0000
0000
1F00
1F00
1F00
ENDCHAR
STARTCHAR at
ENCODING 64
SWIDTH 833 0
DWIDTH 21 0
BBX 19 18 3 0
BITMAP
00FC00
03FF00
0F0380
1C01C0
3800E0
30FC60
61FC60
638C60
C70860
CE3860
CE78C0
CFD9C0
CF9F80
671E00
600000
382000
1FF000
07C000
ENDCHAR
STARTCHAR A
ENCODING 65
SWIDTH 773 0
DWIDTH 19 0
BBX 19 18 0 0
BITMAP
01F000
03F800
03F800
03FC00
07FC00
077C00
0F7E00
0E3E00
0E3F00
1C1F00
1FFF00
1FFF80
3FFF80
380FC0
7807C0
7007C0
7003E0
E003E0
ENDCHAR
STARTCHAR B
ENCODING 66
SWIDTH 669 0
DWIDTH 17 0
BBX 14 18 2 0
BITMAP
FFE0
FFF0
FFF8
F8F8
F8F8
F8F8
F9F0
FFE0
FF80
FFF0
F8F8
F87C
F87C
F87C
F87C
FFFC
FFF8
FFE0
ENDCHAR
STARTCHAR C
ENCODING 67
SWIDTH 726 0
DWIDTH 18 0
BBX 17 18 1 0
BITMAP
03FF00
0FFF80
1FFF80
3F0180
7E0000
7C0000
F80000
F80000
F80000
F80000
F80000
F80000
7C0000
7E0000
3F8180
1FFF80
0FFF80
03FE00
ENDCHAR
STARTCHAR D
ENCODING 68
SWIDTH 819 0
DWIDTH 20 0
BBX 17 18 2 0
BITMAP
FFF000
FFFC00
FFFE00
F87F00
F81F00
F81F80
F80F80
F80F80
F80F80
F80F80
F80F80
F80F80
F80F00
F81F00
F83F00
FFFE00
FFFC00
FFF000
ENDCHAR
STARTCHAR E
ENCODING 69
SWIDTH 645 0
DWIDTH 16 0
BBX 13 18 2 0
BITMAP
FFF0
FFF0
FFF0
F800
F800
F800
F800
FFE0
FFE0
FFE0
F800
F800
F800
F800
F800
FFF8
FFF8
FFF8
ENDCHAR
STARTCHAR F
ENCODING 70
SWIDTH 602 0
DWIDTH 15 0
BBX 13 18 2 0
BITMAP
FFF8
FFF8
FFF8
F800
F800
F800
F800
F800
FFF0
FFF0
FFF0
F800
F800
F800
F800
F800
F800
F800
ENDCHAR
STARTCHAR G
ENCODING 71
SWIDTH 759 0
DWIDTH 19 0
BBX 16 18 1 0
BITMAP
03FF
0FFF
1FFF
3F03
7E00
7C00
F800
F800
F800
F81F
F81F
F81F
7C1F
7C1F
3F1F
3FFF
0FFF
03FE
ENDCHAR
STARTCHAR H
ENCODING 72
SWIDTH 813 0
DWIDTH 20 0
BBX 16 18 2 0
BITMAP
F81F
F81F
F81F
F81F
F81F
F81F
F81F
FFFF
FFFF
FFFF
F81F
F81F
F81F
F81F
F81F
F81F
F81F
F81F
ENDCHAR
STARTCHAR I
ENCODING 73
SWIDTH 361 0
DWIDTH 9 0
BBX 5 18 2 0
BITMAP
F8
F8
F8
F8
F8
F8
F8
F8
F8
F8
F8
F8
F8
F8
F8
F8
F8
F8
ENDCHAR
STARTCHAR J
ENCODING 74
SWIDTH 501 0
DWIDTH 13 0
BBX 10 22 0 -4
BITMAP
07C0
07C0
07C0
07C0
07C0
07C0
07C0
07C0
07C0
07C0
07C0
07C0
07C0
07C0
07C0
07C0
07C0
07C0
8FC0
FF80
FF80
7E00
ENDCHAR
STARTCHAR K
ENCODING 75
SWIDTH 753 0
DWIDTH 19 0
BBX 16 18 2 0
BITMAP
F81E
F83C
F878
F870
F8F0
F9E0
FBC0
FBC0
FFC0
FFE0
FFE0
FBF0
F9F8
F9F8
F8FC
F87E
F87E
F83F
ENDCHAR
STARTCHAR L
ENCODING 76
SWIDTH 620 0
DWIDTH 16 0
BBX 13 18 2 0
BITMAP
F800
F800
F800
F800
F800
F800
F800
F800
F800
F800
F800
F800
F800
F800
F800
FFF8
FFF8
FFF8
ENDCHAR
STARTCHAR M
ENCODING 77
SWIDTH 940 0
DWIDTH 23 0
BBX 19 18 2 0
BITMAP
FC07E0
FC07E0
FE0FE0
FE0FE0
FE0FE0
FF1FE0
EF1FE0
EF1FE0
EFBBE0
E7BBE0
E7BBE0
E7F3E0
E3F3E0
E3F3E0
E3E3E0
E1E3E0
E1E3E0
E003E0
ENDCHAR
STARTCHAR N
ENCODING 78
SWIDTH 783 0
DWIDTH 20 0
BBX 15 18 2 0
BITMAP
F00E
F80E
FC0E
FE0E
FE0E
FF0E
FF8E
FF8E
EFCE
E7EE
E3FE
E3FE
E1FE
E0FE
E0FE
E07E
E03E
E01E
ENDCHAR
STARTCHAR O
ENCODING 79
SWIDTH 855 0
DWIDTH 21 0
BBX 20 18 1 0
BITMAP
03FC00
0FFF00
1FFF80
3F0FC0
7E07E0
7C03E0
F801F0
F801F0
F801F0
F801F0
F801F0
F801F0
7C03E0
7E07E0
3F0FC0
1FFF80
0FFF00
03FC00
ENDCHAR
STARTCHAR P
ENCODING 80
SWIDTH 657 0
DWIDTH 16 0
BBX 14 18 2 0
BITMAP
FFF0
FFF8
FFFC
F8FC
F87C
F87C
F87C
F8F8
FFF8
FFF0
FFC0
F800
F800
F800
F800
F800
F800
F800
ENDCHAR
STARTCHAR Q
ENCODING 81
SWIDTH 855 0
DWIDTH 21 0
BBX 23 22 1 -4
BITMAP
03FC00
0FFF00
1FFF80
3F0FC0
7E07E0
7C03E0
F801F0
F801F0
F801F0
F801F0
F801F0
F801F0
7C03E0
7E07E0
3F0FC0
1FFF80
0FFF00
03FF00
000FFE
0007FC
0001F8
000030
ENDCHAR
STARTCHAR R
ENCODING 82
SWIDTH 734 0
DWIDTH 18 0
BBX 16 18 2 0
BITMAP
FFE0
FFF8
FFFC
F8FC
F87C
F87C
F87C
F8F8
FFF0
FFE0
FFE0
F9F0
F9F8
F8F8
F8FC
F87E
F87E
F83F
ENDCHAR
STARTCHAR S
ENCODING 83
SWIDTH 594 0
DWIDTH 15 0
BBX 13 18 1 0
BITMAP
1FF0
7FF0
7FF0
F830
F800
FC00
FF00
7F80
7FE0
1FF0
0FF8
03F8
00F8
00F8
C1F8
FFF0
FFE0
FF80
ENDCHAR
STARTCHAR T
ENCODING 84
SWIDTH 735 0
DWIDTH 18 0
BBX 19 18 0 0
BITMAP
FFFFE0
FFFFE0
FFFFE0
01F000
01F000
01F000
01F000
01F000
01F000
01F000
01F000
01F000
01F000
01F000
01F000
01F000
01F000
01F000
ENDCHAR
STARTCHAR U
ENCODING 85
SWIDTH 783 0
DWIDTH 20 0
BBX 15 18 2 0
BITMAP
F83E
F83E
F83E
F83E
F83E
F83E
F83E
F83E
F83E
F83E
F83E
F83E
F83E
F83E
7C7C
7FFC
3FF8
0FE0
ENDCHAR
STARTCHAR V
ENCODING 86
SWIDTH 735 0
DWIDTH 18 0
BBX 18 18 0 0
BITMAP
F801C0
FC0380
7C0380
7E0380
3E0700
3E0700
3F0F00
1F0E00
1F0E00
1F9E00
0F9C00
0FDC00
07F800
07F800
07F800
03F000
03F000
03F000
ENDCHAR
STARTCHAR W
ENCODING 87
SWIDTH 940 0
DWIDTH 23 0
BBX 23 18 0 0
BITMAP
F83C0E
F83C0E
F83E1C
7C7E1C
7C7E1C
7C7E1C
7C7E38
3EFF38
3EEF38
3EEF38
3EEF70
1FEFF0
1FC7F0
1FC7F0
1FC7E0
1FC7E0
0F83E0
0F83E0
ENDCHAR
STARTCHAR X
ENCODING 88
SWIDTH 699 0
DWIDTH 17 0
BBX 16 18 1 0
BITMAP
FC0F
7E1E
7E1C
3F3C
1F78
1FF0
0FF0
0FE0
07E0
07E0
07F0
0FF0
1FF8
1CFC
3CFC
387E
783E
F03F
ENDCHAR
STARTCHAR Y
ENCODING 89
SWIDTH 738 0
DWIDTH 18 0
BBX 17 18 1 0
BITMAP
FC0780
7C0700
7E0F00
3F0E00
3F1C00
1FBC00
1FB800
0FF800
07F000
07F000
03E000
03E000
03E000
03E000
03E000
03E000
03E000
03E000
ENDCHAR
STARTCHAR Z
ENCODING 90
SWIDTH 675 0
DWIDTH 17 0
BBX 14 18 1 0
BITMAP
FFFC
FFFC
FFFC
00FC
01F8
03F8
03F0
07E0
0FC0
0FC0
1F80
3F00
7F00
7E00
FC00
FFFC
FFFC
FFFC
ENDCHAR
STARTCHAR bracketleft
ENCODING 91
SWIDTH 386 0
DWIDTH 10 0
BBX 6 23 2 -4
BITMAP
FC
FC
FC
F0
F0
F0
F0
F0
F0
F0
F0
F0
F0
F0
F0
F0
F0
F0
F0
F0
FC
FC
FC
ENDCHAR
STARTCHAR backslash
ENCODING 92
SWIDTH 596 0
DWIDTH 15 0
BBX 15 23 0 -4
BITMAP
F000
7000
7800
3800
3C00
1C00
1E00
0E00
0F00
0700
0780
0380
03C0
01C0
01E0
00E0
00F0
0070
0078
0038
003C
001C
001E
ENDCHAR
STARTCHAR bracketright
ENCODING 93
SWIDTH 386 0
DWIDTH 10 0
BBX 6 23 2 -4
BITMAP
FC
FC
FC
3C
3C
3C
3C
3C
3C
3C
3C
3C
3C
3C
3C
3C
3C
3C
3C
3C
FC
FC
FC
ENDCHAR
STARTCHAR asciicircum
ENCODING 94
SWIDTH 687 0
DWIDTH 17 0
BBX 14 15 2 3
BITMAP
0100
0300
0300
0780
0780
0FC0
0FC0
1FE0
1CE0
3CF0
3870
7878
7038
7038
E01C
ENDCHAR
STARTCHAR underscore
ENCODING 95
SWIDTH 500 0
DWIDTH 13 0
BBX 11 3 1 -3
BITMAP
FFE0
FFE0
FFE0
ENDCHAR
STARTCHAR grave
ENCODING 96
SWIDTH 675 0
DWIDTH 17 0
BBX 6 3 5 16
BITMAP
F0
38
1C
ENDCHAR
STARTCHAR a
ENCODING 97
SWIDTH 623 0
DWIDTH 16 0
BBX 14 13 1 0
BITMAP
1FC0
7FF0
7FF8
41F8
00F8
1FF8
7FF8
FFF8
F8F8
F8F8
FFFC
7FFC
3E7C
ENDCHAR
STARTCHAR b
ENCODING 98
SWIDTH 696 0
DWIDTH 17 0
BBX 14 19 2 0
BITMAP
F800
F800
F800
F800
F800
F800
F9E0
FBF8
FFF8
FCFC
F87C
F87C
F87C
F87C
F87C
FCF8
FFF8
FFF0
F3E0
ENDCHAR
STARTCHAR c
ENCODING 99
SWIDTH 545 0
DWIDTH 14 0
BBX 12 13 1 0
BITMAP
0FE0
3FF0
7FF0
7E10
FC00
F800
F800
F800
FC00
7E10
7FF0
3FF0
0FF0
ENDCHAR
STARTCHAR d
ENCODING 100
SWIDTH 696 0
DWIDTH 17 0
BBX 14 19 1 0
BITMAP
007C
007C
007C
007C
007C
007C
1E7C
3FFC
7FFC
FCFC
F87C
F87C
F87C
F87C
F87C
FCFC
7FFC
7F7C
1E7C
ENDCHAR
STARTCHAR e
ENCODING 101
SWIDTH 614 0
DWIDTH 15 0
BBX 13 13 1 0
BITMAP
0FC0
3FE0
7FF0
78F0
F8F8
FFF8
FFF8
FFF8
F800
7C08
7FF8
3FF8
0FF0
ENDCHAR
STARTCHAR f
ENCODING 102
SWIDTH 461 0
DWIDTH 12 0
BBX 12 19 0 0
BITMAP
07F0
1FF0
1FF0
3E00
3E00
3E00
FFE0
FFE0
FFE0
3E00
3E00
3E00
3E00
3E00
3E00
3E00
3E00
3E00
3E00
ENDCHAR
STARTCHAR g
ENCODING 103
SWIDTH 696 0
DWIDTH 17 0
BBX 14 18 1 -5
BITMAP
1F3C
3FFC
7FFC
7CFC
F87C
F87C
F87C
F87C
F87C
FCFC
7FFC
7F7C
1E7C
007C
20FC
7FF8
7FF0
1FC0
ENDCHAR
STARTCHAR h
ENCODING 104
SWIDTH 693 0
DWIDTH 17 0
BBX 13 19 2 0
BITMAP
F800
F800
F800
F800
F800
F800
F9E0
FBF0
FFF8
FFF8
FCF8
F8F8
F8F8
F8F8
F8F8
F8F8
F8F8
F8F8
F8F8
ENDCHAR
STARTCHAR i
ENCODING 105
SWIDTH 361 0
DWIDTH 9 0
BBX 5 19 2 0
BITMAP
F8
F8
F8
00
00
00
F8
F8
F8
F8
F8
F8
F8
F8
F8
F8
F8
F8
F8
ENDCHAR
STARTCHAR j
ENCODING 106
SWIDTH 361 0
DWIDTH 9 0
BBX 10 24 -2 -5
BITMAP
07C0
07C0
07C0
0000
0000
0000
07C0
07C0
07C0
07C0
07C0
07C0
07C0
07C0
07C0
07C0
07C0
07C0
07C0
07C0
07C0
FFC0
FF80
FE00
ENDCHAR
STARTCHAR k
ENCODING 107
SWIDTH 681 0
DWIDTH 17 0
BBX 14 19 2 0
BITMAP
F800
F800
F800
F800
F800
F800
F878
F8F0
F8E0
F9C0
FBC0
FBC0
FFC0
FFE0
FBF0
FBF0
F9F8
F8F8
F8FC
ENDCHAR
STARTCHAR l
ENCODING 108
SWIDTH 361 0
DWIDTH 9 0
BBX 5 19 2 0
BITMAP
F8
F8
F8
F8
F8
F8
F8
F8
F8
F8
F8
F8
F8
F8
F8
F8
F8
F8
F8
ENDCHAR
STARTCHAR m
ENCODING 109
SWIDTH 1006 0
DWIDTH 25 0
BBX 21 13 2 0
BITMAP
FBE1F0
F7F3F8
FFFFF8
FFFFF8
FCFCF8
F8F8F8
F8F8F8
F8F8F8
F8F8F8
F8F8F8
F8F8F8
F8F8F8
F8F8F8
ENDCHAR
STARTCHAR n
ENCODING 110
SWIDTH 693 0
DWIDTH 17 0
BBX 13 13 2 0
BITMAP
F9E0
FBF0
FFF8
FFF8
FCF8
F8F8
F8F8
F8F8
F8F8
F8F8
F8F8
F8F8
F8F8
ENDCHAR
STARTCHAR o
ENCODING 111
SWIDTH 675 0
DWIDTH 17 0
BBX 15 13 1 0
BITMAP
0FE0
3FF8
7FFC
7C7C
F83E
F83E
F83E
F83E
F83E
7C7C
7FFC
3FF8
0FE0
ENDCHAR
STARTCHAR p
ENCODING 112
SWIDTH 696 0
DWIDTH 17 0
BBX 14 18 2 -5
BITMAP
F9E0
FBF8
FFF8
FCFC
F87C
F87C
F87C
F87C
F87C
FCFC
FFF8
FFF0
F9E0
F800
F800
F800
F800
F800
ENDCHAR
STARTCHAR q
ENCODING 113
SWIDTH 696 0
DWIDTH 17 0
BBX 14 18 1 -5
BITMAP
1F3C
3FFC
7FFC
7CFC
F87C
F87C
F87C
F87C
F87C
FCFC
7FFC
7F7C
1E7C
007C
007C
007C
007C
007C
ENDCHAR
STARTCHAR r
ENCODING 114
SWIDTH 500 0
DWIDTH 12 0
BBX 10 13 2 0
BITMAP
F9C0
FBC0
FFC0
FFC0
FC00
F800
F800
F800
F800
F800
F800
F800
F800
ENDCHAR
STARTCHAR s
ENCODING 115
SWIDTH 622 0
DWIDTH 16 0
BBX 12 13 2 0
BITMAP
3FC0
7FE0
FFE0
F820
F800
FF00
3FC0
0FF0
01F0
C1F0
FFF0
FFE0
7F80
ENDCHAR
STARTCHAR t
ENCODING 116
SWIDTH 436 0
DWIDTH 11 0
BBX 9 17 1 0
BITMAP
1C00
7C00
7C00
7C00
FF80
FF80
FF80
7C00
7C00
7C00
7C00
7C00
7C00
7C00
7F80
3F80
1F80
ENDCHAR
STARTCHAR u
ENCODING 117
SWIDTH 693 0
DWIDTH 17 0
BBX 13 13 2 0
BITMAP
F8F8
F8F8
F8F8
F8F8
F8F8
F8F8
F8F8
F8F8
F8F8
F9F8
FFF8
7EF8
3CF8
ENDCHAR
STARTCHAR v
ENCODING 118
SWIDTH 663 0
DWIDTH 17 0
BBX 15 13 1 0
BITMAP
F80E
FC1C
7C1C
7E3C
3E38
3E38
3F78
1F70
1FF0
0FE0
0FE0
0FE0
07C0
ENDCHAR
STARTCHAR w
ENCODING 119
SWIDTH 885 0
DWIDTH 22 0
BBX 21 13 1 0
BITMAP
F07838
78FC70
78FC70
78FC70
78FC70
3DDEE0
3DDEE0
3DDEE0
3F9FC0
1F8FC0
1F8FC0
1F8FC0
1F0F80
ENDCHAR
STARTCHAR x
ENCODING 120
SWIDTH 568 0
DWIDTH 14 0
BBX 13 13 1 0
BITMAP
FC78
7CF0
3EE0
3FE0
1FC0
1F80
0F80
0FC0
1FC0
3FE0
3BF0
79F0
F0F8
ENDCHAR
STARTCHAR y
ENCODING 121
SWIDTH 645 0
DWIDTH 16 0
BBX 15 18 1 -5
BITMAP
F81E
FC1C
7C3C
7E38
3E38
3E70
3F70
1FE0
1FE0
0FE0
0FC0
0FC0
0780
0780
0F00
0F00
1E00
3E00
ENDCHAR
STARTCHAR z
ENCODING 122
SWIDTH 608 0
DWIDTH 15 0
BBX 13 13 1 0
BITMAP
FFF8
FFF8
FFF8
03F8
07F0
0FE0
1FC0
3F80
7F00
FE00
FFF8
FFF8
FFF8
ENDCHAR
STARTCHAR braceleft
ENCODING 123
SWIDTH 386 0
DWIDTH 10 0
BBX 7 23 1 -4
BITMAP
1E
3E
7E
7C
7C
7C
7C
7C
7C
78
F8
E0
F8
78
7C
7C
7C
7C
7C
7C
7E
3E
1E
ENDCHAR
STARTCHAR bar
ENCODING 124
SWIDTH 265 0
DWIDTH 7 0
BBX 3 23 2 -4
BITMAP
E0
E0
E0
E0
E0
E0
E0
E0
E0
E0
E0
E0
E0
E0
E0
E0
E0
E0
E0
E0
E0
E0
E0
ENDCHAR
STARTCHAR braceright
ENCODING 125
SWIDTH 386 0
DWIDTH 10 0
BBX 7 23 1 -4
BITMAP
F0
F8
FC
7C
7C
7C
7C
7C
7C
3C
3E
0E
3E
3C
7C
7C
7C
7C
7C
7C
FC
F8
F0
ENDCHAR
STARTCHAR asciitilde
ENCODING 126
SWIDTH 687 0
DWIDTH 17 0
BBX 14 6 2 4
BITMAP
3C1C
7E1C
FF9C
E7FC
E1F8
E0F0
ENDCHAR
STARTCHAR space
ENCODING 160
SWIDTH 343 0
DWIDTH 9 0
BBX 1 1 0 0
BITMAP
00
ENDCHAR
STARTCHAR exclamdown
ENCODING 161
SWIDTH 265 0
DWIDTH 9 0
BBX 5 18 2 -5
BITMAP
F8
F8
F8
00
00
70
70
70
70
70
F8
F8
F8
F8
F8
F8
F8
F8
ENDCHAR
STARTCHAR cent
ENCODING 162
SWIDTH 687 0
DWIDTH 17 0
BBX 13 18 2 0
BITMAP
0380
0380
07F8
3FF8
7FF8
7C08
F800
F800
F800
F800
FC00
FE00
7FF8
7FF8
1FF8
0380
0380
0380
ENDCHAR
STARTCHAR sterling
ENCODING 163
SWIDTH 687 0
DWIDTH 17 0
BBX 12 18 3 0
BITMAP
07F0
1FF0
1FF0
3E00
3E00
3E00
3E00
FF80
FF80
FF80
3E00
3E00
3C00
3C00
7000
FFF0
FFF0
FFF0
ENDCHAR
STARTCHAR currency
ENCODING 164
SWIDTH 687 0
DWIDTH 17 0
BBX 17 18 0 0
BITMAP
600300
E00380
F00780
780F00
3DDE00
1FFC00
0FF800
1E3C00
1C1C00
1C1C00
1C1C00
0E3800
1FFC00
3FFE00
7FFF00
F80F80
F00780
600300
ENDCHAR
STARTCHAR yen
ENCODING 165
SWIDTH 687 0
DWIDTH 17 0
BBX 16 18 1 0
BITMAP
FC0F
7C0E
7E1E
3F1C
3F38
1FF8
0FF0
0FF0
07E0
1FF8
1FF8
03E0
1FF8
1FF8
03E0
03E0
03E0
03E0
ENDCHAR
STARTCHAR brokenbar
ENCODING 166
SWIDTH 265 0
DWIDTH 7 0
BBX 3 23 2 -4
BITMAP
E0
E0
E0
E0
E0
E0
E0
E0
E0
00
00
00
00
00
E0
E0
E0
E0
E0
E0
E0
E0
E0
ENDCHAR
STARTCHAR section
ENCODING 167
SWIDTH 693 0
DWIDTH 17 0
BBX 13 23 2 -5
BITMAP
1FF0
7FF0
FFF0
F810
F800
FE00
7FC0
3FE0
7FF0
6FF8
E3F8
F078
FE38
FFF0
7FF0
3FF0
0FF8
03F8
00F8
C0F8
FFF0
FFF0
FFC0
ENDCHAR
STARTCHAR dieresis
ENCODING 168
SWIDTH 675 0
DWIDTH 17 0
BBX 8 3 4 15
BITMAP
E7
E7
E7
ENDCHAR
STARTCHAR copyright
ENCODING 169
SWIDTH 825 0
DWIDTH 21 0
BBX 19 18 1 0
BITMAP
01F000
0FFE00
1E0F00
380380
71F9C0
67FCC0
E704E0
CE0060
CE0060
CE0060
CE0060
E704E0
63FCC0
71F9C0
380380
1E0F00
0FFE00
01F000
ENDCHAR
STARTCHAR ordfeminine
ENCODING 170
SWIDTH 536 0
DWIDTH 13 0
BBX 12 10 1 8
BITMAP
7F80
FFC0
C3E0
03E0
3FE0
FFE0
F3E0
F3F0
FFF0
7CF0
ENDCHAR
STARTCHAR guillemotleft
ENCODING 171
SWIDTH 614 0
DWIDTH 15 0
BBX 14 11 1 1
BITMAP
0410
0E3C
1F78
3C78
78F0
F9E0
78F0
3C78
1E78
0F3C
0410
ENDCHAR
STARTCHAR logicalnot
ENCODING 172
SWIDTH 687 0
DWIDTH 17 0
BBX 14 9 2 2
BITMAP
FFFC
FFFC
FFFC
001C
001C
001C
001C
001C
001C
ENDCHAR
STARTCHAR hyphen
ENCODING 173
SWIDTH 289 0
DWIDTH 7 0
BBX 5 3 1 6
BITMAP
F8
F8
F8
ENDCHAR
STARTCHAR registered
ENCODING 174
SWIDTH 687 0
DWIDTH 17 0
BBX 13 13 2 5
BITMAP
0F80
1FE0
38F0
6FB0
EFB8
CD98
CF98
CF18
EDB8
6DB0
78F0
3FE0
0F80
ENDCHAR
STARTCHAR macron
ENCODING 175
SWIDTH 675 0
DWIDTH 17 0
BBX 8 3 4 15
BITMAP
FF
FF
FF
ENDCHAR
STARTCHAR degree
ENCODING 176
SWIDTH 241 0
DWIDTH 6 0
BBX 4 4 1 14
BITMAP
60
90
90
60
ENDCHAR
STARTCHAR plusminus
ENCODING 177
SWIDTH 687 0
DWIDTH 17 0
BBX 15 15 1 0
BITMAP
0380
0380
0380
0380
FFFE
FFFE
FFFE
0380
0380
0380
0380
0000
FFFE
FFFE
FFFE
ENDCHAR
STARTCHAR twosuperior
ENCODING 178
SWIDTH 536 0
DWIDTH 10 0
BBX 8 11 -16 7
BITMAP
7C
FF
87
07
07
0E
1C
78
F0
FF
FF
ENDCHAR
STARTCHAR threesuperior
ENCODING 179
SWIDTH 536 0
DWIDTH 10 0
BBX 8 11 -16 7
BITMAP
7C
FF
87
07
7E
7C
0E
07
87
FF
FC
ENDCHAR
STARTCHAR acute
ENCODING 180
SWIDTH 675 0
DWIDTH 17 0
BBX 6 3 6 16
BITMAP
3C
70
E0
ENDCHAR
STARTCHAR mu
ENCODING 181
SWIDTH 699 0
DWIDTH 17 0
BBX 13 17 2 -4
BITMAP
F8F8
F8F8
F8F8
F8F8
F8F8
F8F8
F8F8
F8F8
F8F8
F9F8
FFF8
FFF8
FEF8
F800
F800
F800
F800
ENDCHAR
STARTCHAR paragraph
ENCODING 182
SWIDTH 693 0
DWIDTH 17 0
BBX 11 22 2 -4
BITMAP
3FE0
7FE0
FFE0
FFE0
FFE0
FFE0
FFE0
7FE0
1FE0
07E0
07E0
07E0
07E0
07E0
07E0
07E0
07E0
07E0
07E0
07E0
07E0
07E0
ENDCHAR
STARTCHAR periodcentered
ENCODING 183
SWIDTH 343 0
DWIDTH 17 0
BBX 4 3 7 6
BITMAP
F0
F0
F0
ENDCHAR
STARTCHAR cedilla
ENCODING 184
SWIDTH 675 0
DWIDTH 17 0
BBX 5 5 6 -5
BITMAP
30
60
38
F8
F0
ENDCHAR
STARTCHAR onesuperior
ENCODING 185
SWIDTH 536 0
DWIDTH 10 0
BBX 5 11 -17 7
BITMAP
F8
F8
38
38
38
38
38
38
38
38
38
ENDCHAR
STARTCHAR ordmasculine
ENCODING 186
SWIDTH 536 0
DWIDTH 13 0
BBX 12 10 1 8
BITMAP
1F80
7FE0
7BE0
F1F0
F1F0
F1F0
F1F0
7BE0
7FE0
1F80
ENDCHAR
STARTCHAR guillemotright
ENCODING 187
SWIDTH 614 0
DWIDTH 15 0
BBX 14 11 1 1
BITMAP
2080
F3C0
79E0
78F0
3C78
1E7C
3C78
78F0
7BE0
F1C0
2080
ENDCHAR
STARTCHAR onequarter
ENCODING 188
SWIDTH 1066 0
DWIDTH 23 0
BBX 21 18 6 0
BITMAP
F801E0
F803C0
380780
380F00
380E00
381E00
383C00
387870
38F0F0
38F1F0
39E370
03C770
078E70
070FF8
0F0FF8
1E0070
3C0070
780070
ENDCHAR
STARTCHAR onehalf
ENCODING 189
SWIDTH 1066 0
DWIDTH 23 0
BBX 20 18 6 0
BITMAP
F801E0
F803C0
380780
380F00
380E00
381E00
383C00
387FC0
38FFF0
38F870
39E070
03C070
0780E0
0701C0
0F0780
1E0F00
3C0FF0
780FF0
ENDCHAR
STARTCHAR threequarters
ENCODING 190
SWIDTH 1120 0
DWIDTH 23 0
BBX 21 18 6 0
BITMAP
7C01E0
FF03C0
870780
070F00
7E0E00
7C1E00
0E3C00
077870
87F0F0
FFF1F0
FDE370
03C770
078E70
070FF8
0F0FF8
1E0070
3C0070
780070
ENDCHAR
STARTCHAR questiondown
ENCODING 191
SWIDTH 572 0
DWIDTH 14 0
BBX 12 18 1 -5
BITMAP
0F80
0F80
0F80
0000
0000
0F80
0F80
0F00
1E00
3E00
3C00
7800
F800
F800
FC10
FFF0
7FF0
1FE0
ENDCHAR
STARTCHAR Agrave
ENCODING 192
SWIDTH 773 0
DWIDTH 19 0
BBX 19 22 0 0
BITMAP
03C000
00E000
007000
000000
01F000
03F800
03F800
03FC00
07FC00
077C00
0F7E00
0E3E00
0E3F00
1C1F00
1FFF00
1FFF80
3FFF80
380FC0
7807C0
7007C0
7003E0
E003E0
ENDCHAR
STARTCHAR Aacute
ENCODING 193
SWIDTH 773 0
DWIDTH 19 0
BBX 19 22 0 0
BITMAP
003C00
007000
00E000
000000
01F000
03F800
03F800
03FC00
07FC00
077C00
0F7E00
0E3E00
0E3F00
1C1F00
1FFF00
1FFF80
3FFF80
380FC0
7807C0
7007C0
7003E0
E003E0
ENDCHAR
STARTCHAR Acircumflex
ENCODING 194
SWIDTH 773 0
DWIDTH 19 0
BBX 19 22 0 0
BITMAP
01F000
03F800
071C00
000000
01F000
03F800
03F800
03FC00
07FC00
077C00
0F7E00
0E3E00
0E3F00
1C1F00
1FFF00
1FFF80
3FFF80
380FC0
7807C0
7007C0
7003E0
E003E0
ENDCHAR
STARTCHAR Atilde
ENCODING 195
SWIDTH 773 0
DWIDTH 19 0
BBX 19 22 0 0
BITMAP
03DC00
07FC00
077800
000000
01F000
03F800
03F800
03FC00
07FC00
077C00
0F7E00
0E3E00
0E3F00
1C1F00
1FFF00
1FFF80
3FFF80
380FC0
7807C0
7007C0
7003E0
E003E0
ENDCHAR
STARTCHAR Adieresis
ENCODING 196
SWIDTH 773 0
DWIDTH 19 0
BBX 19 22 0 0
BITMAP
039C00
039C00
039C00
000000
01F000
03F800
03F800
03FC00
07FC00
077C00
0F7E00
0E3E00
0E3F00
1C1F00
1FFF00
1FFF80
3FFF80
380FC0
7807C0
7007C0
7003E0
E003E0
ENDCHAR
STARTCHAR Aring
ENCODING 197
SWIDTH 773 0
DWIDTH 19 0
BBX 19 23 0 0
BITMAP
006000
009000
009000
006000
000000
01F000
03F800
03F800
03FC00
07FC00
077C00
0F7E00
0E3E00
0E3F00
1C1F00
1FFF00
1FFF80
3FFF80
380FC0
7807C0
7007C0
7003E0
E003E0
ENDCHAR
STARTCHAR AE
ENCODING 198
SWIDTH 997 0
DWIDTH 25 0
BBX 24 18 0 0
BITMAP
003FFE
007FFE
007FFE
00FF00
00FF00
01FF00
01DF00
03DFFC
079FFC
071FFC
0F1F00
0FFF00
1FFF00
1FFF00
3C1F00
381FFF
701FFF
F01FFF
ENDCHAR
STARTCHAR Ccedilla
ENCODING 199
SWIDTH 726 0
DWIDTH 18 0
BBX 17 23 1 -5
BITMAP
03FF00
0FFF80
1FFF80
3F0180
7E0000
7C0000
F80000
F80000
F80000
F80000
F80000
F80000
7C0000
7E0000
3F8180
1FFF80
0FFF80
03FE00
00C000
018000
00E000
03E000
03C000
ENDCHAR
STARTCHAR Egrave
ENCODING 200
SWIDTH 645 0
DWIDTH 16 0
BBX 13 22 2 0
BITMAP
1E00
0700
0380
0000
FFF0
FFF0
FFF0
F800
F800
F800
F800
FFE0
FFE0
FFE0
F800
F800
F800
F800
F800
FFF8
FFF8
FFF8
ENDCHAR
STARTCHAR Eacute
ENCODING 201
SWIDTH 645 0
DWIDTH 16 0
BBX 13 22 2 0
BITMAP
03C0
0700
0E00
0000
FFF0
FFF0
FFF0
F800
F800
F800
F800
FFE0
FFE0
FFE0
F800
F800
F800
F800
F800
FFF8
FFF8
FFF8
ENDCHAR
STARTCHAR Ecircumflex
ENCODING 202
SWIDTH 645 0
DWIDTH 16 0
BBX 13 22 2 0
BITMAP
0F80
1FC0
38E0
0000
FFF0
FFF0
FFF0
F800
F800
F800
F800
FFE0
FFE0
FFE0
F800
F800
F800
F800
F800
FFF8
FFF8
FFF8
ENDCHAR
STARTCHAR Edieresis
ENCODING 203
SWIDTH 645 0
DWIDTH 16 0
BBX 13 22 2 0
BITMAP
39C0
39C0
39C0
0000
FFF0
FFF0
FFF0
F800
F800
F800
F800
FFE0
FFE0
FFE0
F800
F800
F800
F800
F800
FFF8
FFF8
FFF8
ENDCHAR
STARTCHAR Igrave
ENCODING 204
SWIDTH 361 0
DWIDTH 9 0
BBX 6 22 3 0
BITMAP
F0
38
1C
00
7C
7C
7C
7C
7C
7C
7C
7C
7C
7C
7C
7C
7C
7C
7C
7C
7C
7C
ENDCHAR
STARTCHAR Iacute
ENCODING 205
SWIDTH 361 0
DWIDTH 9 0
BBX 7 22 2 0
BITMAP
1E
38
70
00
F8
F8
F8
F8
F8
F8
F8
F8
F8
F8
F8
F8
F8
F8
F8
F8
F8
F8
ENDCHAR
STARTCHAR Icircumflex
ENCODING 206
SWIDTH 361 0
DWIDTH 9 0
BBX 9 22 4 0
BITMAP
3E00
7F00
E380
0000
3E00
3E00
3E00
3E00
3E00
3E00
3E00
3E00
3E00
3E00
3E00
3E00
3E00
3E00
3E00
3E00
3E00
3E00
ENDCHAR
STARTCHAR Idieresis
ENCODING 207
SWIDTH 361 0
DWIDTH 9 0
BBX 8 22 3 0
BITMAP
E7
E7
E7
00
7C
7C
7C
7C
7C
7C
7C
7C
7C
7C
7C
7C
7C
7C
7C
7C
7C
7C
ENDCHAR
STARTCHAR Eth
ENCODING 208
SWIDTH 819 0
DWIDTH 20 0
BBX 19 18 0 0
BITMAP
3FFC00
3FFF00
3FFF80
3E1FC0
3E07C0
3E07E0
3E03E0
FFE3E0
FFE3E0
FFE3E0
3E03E0
3E03E0
3E03C0
3E07C0
3E0FC0
3FFF80
3FFF00
3FFC00
ENDCHAR
STARTCHAR Ntilde
ENCODING 209
SWIDTH 783 0
DWIDTH 20 0
BBX 15 22 2 0
BITMAP
0F70
1FF0
1DE0
0000
F00E
F80E
FC0E
FE0E
FE0E
FF0E
FF8E
FF8E
EFCE
E7EE
E3FE
E3FE
E1FE
E0FE
E0FE
E07E
E03E
E01E
ENDCHAR
STARTCHAR Ograve
ENCODING 210
SWIDTH 855 0
DWIDTH 21 0
BBX 20 22 1 0
BITMAP
01E000
007000
003800
000000
03FC00
0FFF00
1FFF80
3F0FC0
7E07E0
7C03E0
F801F0
F801F0
F801F0
F801F0
F801F0
F801F0
7C03E0
7E07E0
3F0FC0
1FFF80
0FFF00
03FC00
ENDCHAR
STARTCHAR Oacute
ENCODING 211
SWIDTH 855 0
DWIDTH 21 0
BBX 20 22 1 0
BITMAP
003C00
007000
00E000
000000
03FC00
0FFF00
1FFF80
3F0FC0
7E07E0
7C03E0
F801F0
F801F0
F801F0
F801F0
F801F0
F801F0
7C03E0
7E07E0
3F0FC0
1FFF80
0FFF00
03FC00
ENDCHAR
STARTCHAR Ocircumflex
ENCODING 212
SWIDTH 855 0
DWIDTH 21 0
BBX 20 22 1 0
BITMAP
00F800
01FC00
038E00
000000
03FC00
0FFF00
1FFF80
3F0FC0
7E07E0
7C03E0
F801F0
F801F0
F801F0
F801F0
F801F0
F801F0
7C03E0
7E07E0
3F0FC0
1FFF80
0FFF00
03FC00
ENDCHAR
STARTCHAR Otilde
ENCODING 213
SWIDTH 855 0
DWIDTH 21 0
BBX 20 22 1 0
BITMAP
01EE00
03FE00
03BC00
000000
03FC00
0FFF00
1FFF80
3F0FC0
7E07E0
7C03E0
F801F0
F801F0
F801F0
F801F0
F801F0
F801F0
7C03E0
7E07E0
3F0FC0
1FFF80
0FFF00
03FC00
ENDCHAR
STARTCHAR Odieresis
ENCODING 214
SWIDTH 855 0
DWIDTH 21 0
BBX 20 22 1 0
BITMAP
039C00
039C00
039C00
000000
03FC00
0FFF00
1FFF80
3F0FC0
7E07E0
7C03E0
F801F0
F801F0
F801F0
F801F0
F801F0
F801F0
7C03E0
7E07E0
3F0FC0
1FFF80
0FFF00
03FC00
ENDCHAR
STARTCHAR multiply
ENCODING 215
SWIDTH 687 0
DWIDTH 17 0
BBX 14 15 2 0
BITMAP
6018
E01C
F03C
7878
3CF0
1FE0
0FC0
0780
0FC0
1FE0
3CF0
7878
F03C
E01C
6018
ENDCHAR
STARTCHAR Oslash
ENCODING 216
SWIDTH 855 0
DWIDTH 21 0
BBX 20 18 1 0
BITMAP
03FCF0
0FFFE0
1FFFC0
3F0FC0
7E0FE0
7C1FE0
F83DF0
F879F0
F8F1F0
F8F1F0
F9E1F0
FBC1F0
7F83E0
7F07E0
3F0FC0
3FFF80
7FFF00
F3FC00
ENDCHAR
STARTCHAR Ugrave
ENCODING 217
SWIDTH 783 0
DWIDTH 20 0
BBX 15 22 2 0
BITMAP
0F00
0380
01C0
0000
F83E
F83E
F83E
F83E
F83E
F83E
F83E
F83E
F83E
F83E
F83E
F83E
F83E
F83E
7C7C
7FFC
3FF8
0FE0
ENDCHAR
STARTCHAR Uacute
ENCODING 218
SWIDTH 783 0
DWIDTH 20 0
BBX 15 22 2 0
BITMAP
00F0
01C0
0380
0000
F83E
F83E
F83E
F83E
F83E
F83E
F83E
F83E
F83E
F83E
F83E
F83E
F83E
F83E
7C7C
7FFC
3FF8
0FE0
ENDCHAR
STARTCHAR Ucircumflex
ENCODING 219
SWIDTH 783 0
DWIDTH 20 0
BBX 15 22 2 0
BITMAP
07C0
0FE0
1C70
0000
F83E
F83E
F83E
F83E
F83E
F83E
F83E
F83E
F83E
F83E
F83E
F83E
F83E
F83E
7C7C
7FFC
3FF8
0FE0
ENDCHAR
STARTCHAR Udieresis
ENCODING 220
SWIDTH 783 0
DWIDTH 20 0
BBX 15 22 2 0
BITMAP
0E70
0E70
0E70
0000
F83E
F83E
F83E
F83E
F83E
F83E
F83E
F83E
F83E
F83E
F83E
F83E
F83E
F83E
7C7C
7FFC
3FF8
0FE0
ENDCHAR
STARTCHAR Yacute
ENCODING 221
SWIDTH 738 0
DWIDTH 18 0
BBX 17 22 1 0
BITMAP
007800
00E000
01C000
000000
FC0780
7C0700
7E0F00
3F0E00
3F1C00
1FBC00
1FB800
0FF800
07F000
07F000
03E000
03E000
03E000
03E000
03E000
03E000
03E000
03E000
ENDCHAR
STARTCHAR Thorn
ENCODING 222
SWIDTH 657 0
DWIDTH 16 0
BBX 14 18 2 0
BITMAP
F800
F800
F800
FFF0
FFF8
FFFC
F8FC
F87C
F87C
F87C
F8F8
FFF8
FFF0
FFC0
F800
F800
F800
F800
ENDCHAR
STARTCHAR germandbls
ENCODING 223
SWIDTH 724 0
DWIDTH 18 0
BBX 16 19 2 0
BITMAP
0FC0
3FF0
7FF0
F8F0
F870
F8E0
F8E0
F9C0
F9E0
FBF8
F9FC
F9FE
F8FF
F83F
F81F
F80F
F9FF
F9FE
F9F8
ENDCHAR
STARTCHAR agrave
ENCODING 224
SWIDTH 623 0
DWIDTH 16 0
BBX 14 17 1 0
BITMAP
0F00
0380
01C0
0000
1FC0
7FF0
7FF8
41F8
00F8
1FF8
7FF8
FFF8
F8F8
F8F8
FFFC
7FFC
3E7C
ENDCHAR
STARTCHAR aacute
ENCODING 225
SWIDTH 623 0
DWIDTH 16 0
BBX 14 17 1 0
BITMAP
01E0
0380
0700
0000
1FC0
7FF0
7FF8
41F8
00F8
1FF8
7FF8
FFF8
F8F8
F8F8
FFFC
7FFC
3E7C
ENDCHAR
STARTCHAR acircumflex
ENCODING 226
SWIDTH 623 0
DWIDTH 16 0
BBX 14 17 1 0
BITMAP
07C0
0FE0
1C70
0000
1FC0
7FF0
7FF8
41F8
00F8
1FF8
7FF8
FFF8
F8F8
F8F8
FFFC
7FFC
3E7C
ENDCHAR
STARTCHAR atilde
ENCODING 227
SWIDTH 623 0
DWIDTH 16 0
BBX 14 17 1 0
BITMAP
0F70
1FF0
1DE0
0000
1FC0
7FF0
7FF8
41F8
00F8
1FF8
7FF8
FFF8
F8F8
F8F8
FFFC
7FFC
3E7C
ENDCHAR
STARTCHAR adieresis
ENCODING 228
SWIDTH 623 0
DWIDTH 16 0
BBX 14 17 1 0
BITMAP
1CE0
1CE0
1CE0
0000
1FC0
7FF0
7FF8
41F8
00F8
1FF8
7FF8
FFF8
F8F8
F8F8
FFFC
7FFC
3E7C
ENDCHAR
STARTCHAR aring
ENCODING 229
SWIDTH 623 0
DWIDTH 16 0
BBX 14 18 1 0
BITMAP
0300
0480
0480
0300
0000
1FC0
7FF0
7FF8
41F8
00F8
1FF8
7FF8
FFF8
F8F8
F8F8
FFFC
7FFC
3E7C
ENDCHAR
STARTCHAR ae
ENCODING 230
SWIDTH 913 0
DWIDTH 23 0
BBX 21 13 1 0
BITMAP
1F8FC0
7FDFE0
7FFFF0
40F9F0
00F8F8
1FFFF8
7FFFF8
FFFFF8
F8F800
F8F808
FFFFF8
7F3FF8
3E0FF0
ENDCHAR
STARTCHAR ccedilla
ENCODING 231
SWIDTH 545 0
DWIDTH 14 0
BBX 12 18 1 -5
BITMAP
0FE0
3FF0
7FF0
7E10
FC00
F800
F800
F800
FC00
7E10
7FF0
3FF0
0FF0
0300
0600
0380
0F80
0F00
ENDCHAR
STARTCHAR egrave
ENCODING 232
SWIDTH 614 0
DWIDTH 15 0
BBX 13 17 1 0
BITMAP
1E00
0700
0380
0000
0FC0
3FE0
7FF0
78F0
F8F8
FFF8
FFF8
FFF8
F800
7C08
7FF8
3FF8
0FF0
ENDCHAR
STARTCHAR eacute
ENCODING 233
SWIDTH 614 0
DWIDTH 15 0
BBX 13 17 1 0
BITMAP
01E0
0380
0700
0000
0FC0
3FE0
7FF0
78F0
F8F8
FFF8
FFF8
FFF8
F800
7C08
7FF8
3FF8
0FF0
ENDCHAR
STARTCHAR ecircumflex
ENCODING 234
SWIDTH 614 0
DWIDTH 15 0
BBX 13 17 1 0
BITMAP
0F80
1FC0
38E0
0000
0FC0
3FE0
7FF0
78F0
F8F8
FFF8
FFF8
FFF8
F800
7C08
7FF8
3FF8
0FF0
ENDCHAR
STARTCHAR edieresis
ENCODING 235
SWIDTH 614 0
DWIDTH 15 0
BBX 13 17 1 0
BITMAP
1CE0
1CE0
1CE0
0000
0FC0
3FE0
7FF0
78F0
F8F8
FFF8
FFF8
FFF8
F800
7C08
7FF8
3FF8
0FF0
ENDCHAR
STARTCHAR igrave
ENCODING 236
SWIDTH 361 0
DWIDTH 9 0
BBX 6 17 3 0
BITMAP
F0
38
1C
00
7C
7C
7C
7C
7C
7C
7C
7C
7C
7C
7C
7C
7C
ENDCHAR
STARTCHAR iacute
ENCODING 237
SWIDTH 361 0
DWIDTH 9 0
BBX 7 17 2 0
BITMAP
1E
38
70
00
F8
F8
F8
F8
F8
F8
F8
F8
F8
F8
F8
F8
F8
ENDCHAR
STARTCHAR icircumflex
ENCODING 238
SWIDTH 361 0
DWIDTH 9 0
BBX 9 17 4 0
BITMAP
3E00
7F00
E380
0000
3E00
3E00
3E00
3E00
3E00
3E00
3E00
3E00
3E00
3E00
3E00
3E00
3E00
ENDCHAR
STARTCHAR idieresis
ENCODING 239
SWIDTH 361 0
DWIDTH 9 0
BBX 8 17 3 0
BITMAP
E7
E7
E7
00
7C
7C
7C
7C
7C
7C
7C
7C
7C
7C
7C
7C
7C
ENDCHAR
STARTCHAR eth
ENCODING 240
SWIDTH 675 0
DWIDTH 17 0
BBX 15 22 1 0
BITMAP
0080
01C0
03E0
F780
FF80
FFE0
3FF0
79F8
70F8
2FFC
3FFC
7FFE
7C7E
F83E
F83E
F83E
F83E
F83E
7C7C
7FF8
3FF0
0FC0
ENDCHAR
STARTCHAR ntilde
ENCODING 241
SWIDTH 693 0
DWIDTH 17 0
BBX 13 17 2 0
BITMAP
1EE0
3FE0
3BC0
0000
F9E0
FBF0
FFF8
FFF8
FCF8
F8F8
F8F8
F8F8
F8F8
F8F8
F8F8
F8F8
F8F8
ENDCHAR
STARTCHAR ograve
ENCODING 242
SWIDTH 675 0
DWIDTH 17 0
BBX 15 17 1 0
BITMAP
0F00
0380
01C0
0000
0FE0
3FF8
7FFC
7C7C
F83E
F83E
F83E
F83E
F83E
7C7C
7FFC
3FF8
0FE0
ENDCHAR
STARTCHAR oacute
ENCODING 243
SWIDTH 675 0
DWIDTH 17 0
BBX 15 17 1 0
BITMAP
00F0
01C0
0380
0000
0FE0
3FF8
7FFC
7C7C
F83E
F83E
F83E
F83E
F83E
7C7C
7FFC
3FF8
0FE0
ENDCHAR
STARTCHAR ocircumflex
ENCODING 244
SWIDTH 675 0
DWIDTH 17 0
BBX 15 17 1 0
BITMAP
07C0
0FE0
1C70
0000
0FE0
3FF8
7FFC
7C7C
F83E
F83E
F83E
F83E
F83E
7C7C
7FFC
3FF8
0FE0
ENDCHAR
STARTCHAR otilde
ENCODING 245
SWIDTH 675 0
DWIDTH 17 0
BBX 15 17 1 0
BITMAP
0F70
1FF0
1DE0
0000
0FE0
3FF8
7FFC
7C7C
F83E
F83E
F83E
F83E
F83E
7C7C
7FFC
3FF8
0FE0
ENDCHAR
STARTCHAR odieresis
ENCODING 246
SWIDTH 675 0
DWIDTH 17 0
BBX 15 17 1 0
BITMAP
0E70
0E70
0E70
0000
0FE0
3FF8
7FFC
7C7C
F83E
F83E
F83E
F83E
F83E
7C7C
7FFC
3FF8
0FE0
ENDCHAR
STARTCHAR divide
ENCODING 247
SWIDTH 687 0
DWIDTH 17 0
BBX 14 15 2 0
BITMAP
0700
0700
0700
0000
0000
0000
FFFC
FFFC
FFFC
0000
0000
0000
0700
0700
0700
ENDCHAR
STARTCHAR oslash
ENCODING 248
SWIDTH 675 0
DWIDTH 17 0
BBX 15 13 1 0
BITMAP
0FFE
3FFC
7FFC
7CFC
F9FE
FBFE
FFBE
FFBE
FF3E
7E7C
7FFC
7FF8
FFE0
ENDCHAR
STARTCHAR ugrave
ENCODING 249
SWIDTH 693 0
DWIDTH 17 0
BBX 13 17 2 0
BITMAP
1E00
0700
0380
0000
F8F8
F8F8
F8F8
F8F8
F8F8
F8F8
F8F8
F8F8
F8F8
F9F8
FFF8
7EF8
3CF8
ENDCHAR
STARTCHAR uacute
ENCODING 250
SWIDTH 693 0
DWIDTH 17 0
BBX 13 17 2 0
BITMAP
01E0
0380
0700
0000
F8F8
F8F8
F8F8
F8F8
F8F8
F8F8
F8F8
F8F8
F8F8
F9F8
FFF8
7EF8
3CF8
ENDCHAR
STARTCHAR ucircumflex
ENCODING 251
SWIDTH 693 0
DWIDTH 17 0
BBX 13 17 2 0
BITMAP
0F80
1FC0
38E0
0000
F8F8
F8F8
F8F8
F8F8
F8F8
F8F8
F8F8
F8F8
F8F8
F9F8
FFF8
7EF8
3CF8
ENDCHAR
STARTCHAR udieresis
ENCODING 252
SWIDTH 693 0
DWIDTH 17 0
BBX 13 17 2 0
BITMAP
1CE0
1CE0
1CE0
0000
F8F8
F8F8
F8F8
F8F8
F8F8
F8F8
F8F8
F8F8
F8F8
F9F8
FFF8
7EF8
3CF8
ENDCHAR
STARTCHAR yacute
ENCODING 253
SWIDTH 645 0
DWIDTH 16 0
BBX 15 22 1 -5
BITMAP
01E0
0380
0700
0000
F81E
FC1C
7C3C
7E38
3E38
3E70
3F70
1FE0
1FE0
0FE0
0FC0
0FC0
0780
0780
0F00
0F00
1E00
3E00
ENDCHAR
STARTCHAR thorn
ENCODING 254
SWIDTH 696 0
DWIDTH 17 0
BBX 14 23 2 -5
BITMAP
F800
F800
F800
F800
F800
F9E0
FBF8
FFF8
FCFC
F87C
F87C
F87C
F87C
F87C
FCFC
FFF8
FFF0
F9E0
F800
F800
F800
F800
F800
ENDCHAR
STARTCHAR ydieresis
ENCODING 255
SWIDTH 645 0
DWIDTH 16 0
BBX 15 22 1 -5
BITMAP
0E70
0E70
0E70
0000
F81E
FC1C
7C3C
7E38
3E38
3E70
3F70
1FE0
1FE0
0FE0
0FC0
0FC0
0780
0780
0F00
0F00
1E00
3E00
ENDCHAR
STARTCHAR Amacron
ENCODING 256
SWIDTH 773 0
DWIDTH 19 0
BBX 19 22 0 0
BITMAP
03FC00
03FC00
03FC00
000000
01F000
03F800
03F800
03FC00
07FC00
077C00
0F7E00
0E3E00
0E3F00
1C1F00
1FFF00
1FFF80
3FFF80
380FC0
7807C0
7007C0
7003E0
E003E0
ENDCHAR
STARTCHAR amacron
ENCODING 257
SWIDTH 623 0
DWIDTH 16 0
BBX 14 17 1 0
BITMAP
1FE0
1FE0
1FE0
0000
1FC0
7FF0
7FF8
41F8
00F8
1FF8
7FF8
FFF8
F8F8
F8F8
FFFC
7FFC
3E7C
ENDCHAR
STARTCHAR Abreve
ENCODING 258
SWIDTH 773 0
DWIDTH 19 0
BBX 19 22 0 0
BITMAP
071C00
03F800
01F000
000000
01F000
03F800
03F800
03FC00
07FC00
077C00
0F7E00
0E3E00
0E3F00
1C1F00
1FFF00
1FFF80
3FFF80
380FC0
7807C0
7007C0
7003E0
E003E0
ENDCHAR
STARTCHAR abreve
ENCODING 259
SWIDTH 623 0
DWIDTH 16 0
BBX 14 17 1 0
BITMAP
1C70
0FE0
07C0
0000
1FC0
7FF0
7FF8
41F8
00F8
1FF8
7FF8
FFF8
F8F8
F8F8
FFFC
7FFC
3E7C
ENDCHAR
STARTCHAR Aogonek
ENCODING 260
SWIDTH 773 0
DWIDTH 19 0
BBX 19 22 0 -4
BITMAP
01F000
03F800
03F800
03FC00
07FC00
077C00
0F7E00
0E3E00
0E3F00
1C1F00
1FFF00
1FFF80
3FFF80
380FC0
7807C0
7007C0
7003E0
E003E0
000000
007000
00E000
007800
ENDCHAR
STARTCHAR aogonek
ENCODING 261
SWIDTH 623 0
DWIDTH 16 0
BBX 14 17 1 -4
BITMAP
1FC0
7FF0
7FF8
41F8
00F8
1FF8
7FF8
FFF8
F8F8
F8F8
FFFC
7FFC
3E7C
0000
0380
0700
03C0
ENDCHAR
STARTCHAR Cacute
ENCODING 262
SWIDTH 726 0
DWIDTH 18 0
BBX 17 22 1 0
BITMAP
007800
00E000
01C000
000000
03FF00
0FFF80
1FFF80
3F0180
7E0000
7C0000
F80000
F80000
F80000
F80000
F80000
F80000
7C0000
7E0000
3F8180
1FFF80
0FFF80
03FE00
ENDCHAR
STARTCHAR cacute
ENCODING 263
SWIDTH 545 0
DWIDTH 14 0
BBX 12 17 1 0
BITMAP
03C0
0700
0E00
0000
0FE0
3FF0
7FF0
7E10
FC00
F800
F800
F800
FC00
7E10
7FF0
3FF0
0FF0
ENDCHAR
STARTCHAR Ccircumflex
ENCODING 264
SWIDTH 726 0
DWIDTH 18 0
BBX 17 22 1 0
BITMAP
01F000
03F800
071C00
000000
03FF00
0FFF80
1FFF80
3F0180
7E0000
7C0000
F80000
F80000
F80000
F80000
F80000
F80000
7C0000
7E0000
3F8180
1FFF80
0FFF80
03FE00
ENDCHAR
STARTCHAR ccircumflex
ENCODING 265
SWIDTH 545 0
DWIDTH 14 0
BBX 12 17 1 0
BITMAP
0F80
1FC0
38E0
0000
0FE0
3FF0
7FF0
7E10
FC00
F800
F800
F800
FC00
7E10
7FF0
3FF0
0FF0
ENDCHAR
STARTCHAR Cdotaccent
ENCODING 266
SWIDTH 726 0
DWIDTH 18 0
BBX 17 22 1 0
BITMAP
01E000
01E000
01E000
000000
03FF00
0FFF80
1FFF80
3F0180
7E0000
7C0000
F80000
F80000
F80000
F80000
F80000
F80000
7C0000
7E0000
3F8180
1FFF80
0FFF80
03FE00
ENDCHAR
STARTCHAR cdotaccent
ENCODING 267
SWIDTH 545 0
DWIDTH 14 0
BBX 12 17 1 0
BITMAP
0F00
0F00
0F00
0000
0FE0
3FF0
7FF0
7E10
FC00
F800
F800
F800
FC00
7E10
7FF0
3FF0
0FF0
ENDCHAR
STARTCHAR Ccaron
ENCODING 268
SWIDTH 726 0
DWIDTH 18 0
BBX 17 22 1 0
BITMAP
071C00
03F800
01F000
000000
03FF00
0FFF80
1FFF80
3F0180
7E0000
7C0000
F80000
F80000
F80000
F80000
F80000
F80000
7C0000
7E0000
3F8180
1FFF80
0FFF80
03FE00
ENDCHAR
STARTCHAR ccaron
ENCODING 269
SWIDTH 545 0
DWIDTH 14 0
BBX 12 17 1 0
BITMAP
38E0
1FC0
0F80
0000
0FE0
3FF0
7FF0
7E10
FC00
F800
F800
F800
FC00
7E10
7FF0
3FF0
0FF0
ENDCHAR
STARTCHAR Dcaron
ENCODING 270
SWIDTH 819 0
DWIDTH 20 0
BBX 17 22 2 0
BITMAP
1C7000
0FE000
07C000
000000
FFF000
FFFC00
FFFE00
F87F00
F81F00
F81F80
F80F80
F80F80
F80F80
F80F80
F80F80
F80F80
F80F00
F81F00
F83F00
FFFE00
FFFC00
FFF000
ENDCHAR
STARTCHAR dcaron
ENCODING 271
SWIDTH 926 0
DWIDTH 23 0
BBX 21 19 1 0
BITMAP
007CF8
007CF8
007CF8
007CF8
007CF8
007C38
1E7C30
3FFCF0
7FFCC0
FCFC00
F87C00
F87C00
F87C00
F87C00
F87C00
FCFC00
7FFC00
7F7C00
1E7C00
ENDCHAR
STARTCHAR Dcroat
ENCODING 272
SWIDTH 819 0
DWIDTH 20 0
BBX 19 18 0 0
BITMAP
3FFC00
3FFF00
3FFF80
3E1FC0
3E07C0
3E07E0
3E03E0
FFE3E0
FFE3E0
FFE3E0
3E03E0
3E03E0
3E03C0
3E07C0
3E0FC0
3FFF80
3FFF00
3FFC00
ENDCHAR
STARTCHAR dcroat
ENCODING 273
SWIDTH 696 0
DWIDTH 17 0
BBX 14 19 1 0
BITMAP
007C
007C
007C
00FC
00FC
00FC
1E7C
3FFC
7FFC
FCFC
F87C
F87C
F87C
F87C
F87C
FCFC
7FFC
7F7C
1E7C
ENDCHAR
STARTCHAR Emacron
ENCODING 274
SWIDTH 645 0
DWIDTH 16 0
BBX 13 22 2 0
BITMAP
3FC0
3FC0
3FC0
0000
FFF0
FFF0
FFF0
F800
F800
F800
F800
FFE0
FFE0
FFE0
F800
F800
F800
F800
F800
FFF8
FFF8
FFF8
ENDCHAR
STARTCHAR emacron
ENCODING 275
SWIDTH 614 0
DWIDTH 15 0
BBX 13 17 1 0
BITMAP
1FE0
1FE0
1FE0
0000
0FC0
3FE0
7FF0
78F0
F8F8
FFF8
FFF8
FFF8
F800
7C08
7FF8
3FF8
0FF0
ENDCHAR
STARTCHAR Ebreve
ENCODING 276
SWIDTH 645 0
DWIDTH 16 0
BBX 13 22 2 0
BITMAP
71C0
3F80
1F00
0000
FFF0
FFF0
FFF0
F800
F800
F800
F800
FFE0
FFE0
FFE0
F800
F800
F800
F800
F800
FFF8
FFF8
FFF8
ENDCHAR
STARTCHAR ebreve
ENCODING 277
SWIDTH 614 0
DWIDTH 15 0
BBX 13 17 1 0
BITMAP
38E0
1FC0
0F80
0000
0FC0
3FE0
7FF0
78F0
F8F8
FFF8
FFF8
FFF8
F800
7C08
7FF8
3FF8
0FF0
ENDCHAR
STARTCHAR Edotaccent
ENCODING 278
SWIDTH 645 0
DWIDTH 16 0
BBX 13 22 2 0
BITMAP
0F00
0F00
0F00
0000
FFF0
FFF0
FFF0
F800
F800
F800
F800
FFE0
FFE0
FFE0
F800
F800
F800
F800
F800
FFF8
FFF8
FFF8
ENDCHAR
STARTCHAR edotaccent
ENCODING 279
SWIDTH 614 0
DWIDTH 15 0
BBX 13 17 1 0
BITMAP
0780
0780
0780
0000
0FC0
3FE0
7FF0
78F0
F8F8
FFF8
FFF8
FFF8
F800
7C08
7FF8
3FF8
0FF0
ENDCHAR
STARTCHAR Eogonek
ENCODING 280
SWIDTH 645 0
DWIDTH 16 0
BBX 13 22 2 -4
BITMAP
FFF0
FFF0
FFF0
F800
F800
F800
F800
FFE0
FFE0
FFE0
F800
F800
F800
F800
F800
FFF8
FFF8
FFF8
0000
0E00
1C00
0F00
ENDCHAR
STARTCHAR eogonek
ENCODING 281
SWIDTH 614 0
DWIDTH 15 0
BBX 13 17 1 -4
BITMAP
0FC0
3FE0
7FF0
78F0
F8F8
FFF8
FFF8
FFF8
F800
7C08
7FF8
3FF8
0FF0
0000
0700
0E00
0780
ENDCHAR
STARTCHAR Ecaron
ENCODING 282
SWIDTH 645 0
DWIDTH 16 0
BBX 13 22 2 0
BITMAP
71C0
3F80
1F00
0000
FFF0
FFF0
FFF0
F800
F800
F800
F800
FFE0
FFE0
FFE0
F800
F800
F800
F800
F800
FFF8
FFF8
FFF8
ENDCHAR
STARTCHAR ecaron
ENCODING 283
SWIDTH 614 0
DWIDTH 15 0
BBX 13 17 1 0
BITMAP
38E0
1FC0
0F80
0000
0FC0
3FE0
7FF0
78F0
F8F8
FFF8
FFF8
FFF8
F800
7C08
7FF8
3FF8
0FF0
ENDCHAR
STARTCHAR Gcircumflex
ENCODING 284
SWIDTH 759 0
DWIDTH 19 0
BBX 16 22 1 0
BITMAP
03E0
07F0
0E38
0000
03FF
0FFF
1FFF
3F03
7E00
7C00
F800
F800
F800
F81F
F81F
F81F
7C1F
7C1F
3F1F
3FFF
0FFF
03FE
ENDCHAR
STARTCHAR gcircumflex
ENCODING 285
SWIDTH 696 0
DWIDTH 17 0
BBX 14 22 1 -5
BITMAP
07C0
0FE0
1C70
0000
1F3C
3FFC
7FFC
7CFC
F87C
F87C
F87C
F87C
F87C
FCFC
7FFC
7F7C
1E7C
007C
20FC
7FF8
7FF0
1FC0
ENDCHAR
STARTCHAR Gbreve
ENCODING 286
SWIDTH 759 0
DWIDTH 19 0
BBX 16 22 1 0
BITMAP
0E38
07F0
03E0
0000
03FF
0FFF
1FFF
3F03
7E00
7C00
F800
F800
F800
F81F
F81F
F81F
7C1F
7C1F
3F1F
3FFF
0FFF
03FE
ENDCHAR
STARTCHAR gbreve
ENCODING 287
SWIDTH 696 0
DWIDTH 17 0
BBX 14 22 1 -5
BITMAP
1C70
0FE0
07C0
0000
1F3C
3FFC
7FFC
7CFC
F87C
F87C
F87C
F87C
F87C
FCFC
7FFC
7F7C
1E7C
007C
20FC
7FF8
7FF0
1FC0
ENDCHAR
STARTCHAR Gdotaccent
ENCODING 288
SWIDTH 759 0
DWIDTH 19 0
BBX 16 22 1 0
BITMAP
01E0
01E0
01E0
0000
03FF
0FFF
1FFF
3F03
7E00
7C00
F800
F800
F800
F81F
F81F
F81F
7C1F
7C1F
3F1F
3FFF
0FFF
03FE
ENDCHAR
STARTCHAR gdotaccent
ENCODING 289
SWIDTH 696 0
DWIDTH 17 0
BBX 14 22 1 -5
BITMAP
0780
0780
0780
0000
1F3C
3FFC
7FFC
7CFC
F87C
F87C
F87C
F87C
F87C
FCFC
7FFC
7F7C
1E7C
007C
20FC
7FF8
7FF0
1FC0
ENDCHAR
STARTCHAR Gcommaaccent
ENCODING 290
SWIDTH 759 0
DWIDTH 19 0
BBX 16 28 1 -10
BITMAP
03FF
0FFF
1FFF
3F03
7E00
7C00
F800
F800
F800
F81F
F81F
F81F
7C1F
7C1F
3F1F
3FFF
0FFF
03FE
0000
03E0
03E0
03E0
03E0
03E0
00E0
01C0
03C0
0300
ENDCHAR
STARTCHAR gcommaaccent
ENCODING 291
SWIDTH 696 0
DWIDTH 17 0
BBX 14 28 1 -5
BITMAP
00C0
03C0
0300
0700
07C0
07C0
07C0
07C0
07C0
0000
1F3C
3FFC
7FFC
7CFC
F87C
F87C
F87C
F87C
F87C
FCFC
7FFC
7F7C
1E7C
007C
20FC
7FF8
7FF0
1FC0
ENDCHAR
STARTCHAR Hcircumflex
ENCODING 292
SWIDTH 813 0
DWIDTH 20 0
BBX 16 22 2 0
BITMAP
03E0
07F0
0E38
0000
F81F
F81F
F81F
F81F
F81F
F81F
F81F
FFFF
FFFF
FFFF
F81F
F81F
F81F
F81F
F81F
F81F
F81F
F81F
ENDCHAR
STARTCHAR hcircumflex
ENCODING 293
SWIDTH 693 0
DWIDTH 17 0
BBX 14 23 1 0
BITMAP
3E00
7F00
E380
0000
7C00
7C00
7C00
7C00
7C00
7C00
7CF0
7DF8
7FFC
7FFC
7E7C
7C7C
7C7C
7C7C
7C7C
7C7C
7C7C
7C7C
7C7C
ENDCHAR
STARTCHAR Hbar
ENCODING 294
SWIDTH 813 0
DWIDTH 20 0
BBX 16 18 2 0
BITMAP
F81F
F81F
F81F
FFFF
FFFF
FFFF
F81F
FFFF
FFFF
FFFF
F81F
F81F
F81F
F81F
F81F
F81F
F81F
F81F
ENDCHAR
STARTCHAR hbar
ENCODING 295
SWIDTH 693 0
DWIDTH 17 0
BBX 13 19 2 0
BITMAP
F800
F800
F800
FC00
FC00
FC00
F9E0
FBF0
FFF8
FFF8
FCF8
F8F8
F8F8
F8F8
F8F8
F8F8
F8F8
F8F8
F8F8
ENDCHAR
STARTCHAR Itilde
ENCODING 296
SWIDTH 361 0
DWIDTH 9 0
BBX 9 22 0 0
BITMAP
7B80
FF80
EF00
0000
3E00
3E00
3E00
3E00
3E00
3E00
3E00
3E00
3E00
3E00
3E00
3E00
3E00
3E00
3E00
3E00
3E00
3E00
ENDCHAR
STARTCHAR itilde
ENCODING 297
SWIDTH 361 0
DWIDTH 9 0
BBX 9 17 0 0
BITMAP
7B80
FF80
EF00
0000
3E00
3E00
3E00
3E00
3E00
3E00
3E00
3E00
3E00
3E00
3E00
3E00
3E00
ENDCHAR
STARTCHAR Imacron
ENCODING 298
SWIDTH 361 0
DWIDTH 9 0
BBX 8 22 1 0
BITMAP
FF
FF
FF
00
7C
7C
7C
7C
7C
7C
7C
7C
7C
7C
7C
7C
7C
7C
7C
7C
7C
7C
ENDCHAR
STARTCHAR imacron
ENCODING 299
SWIDTH 361 0
DWIDTH 9 0
BBX 8 17 1 0
BITMAP
FF
FF
FF
00
7C
7C
7C
7C
7C
7C
7C
7C
7C
7C
7C
7C
7C
ENDCHAR
STARTCHAR Ibreve
ENCODING 300
SWIDTH 361 0
DWIDTH 9 0
BBX 9 22 0 0
BITMAP
E380
7F00
3E00
0000
3E00
3E00
3E00
3E00
3E00
3E00
3E00
3E00
3E00
3E00
3E00
3E00
3E00
3E00
3E00
3E00
3E00
3E00
ENDCHAR
STARTCHAR ibreve
ENCODING 301
SWIDTH 361 0
DWIDTH 9 0
BBX 9 17 0 0
BITMAP
E380
7F00
3E00
0000
3E00
3E00
3E00
3E00
3E00
3E00
3E00
3E00
3E00
3E00
3E00
3E00
3E00
ENDCHAR
STARTCHAR Iogonek
ENCODING 302
SWIDTH 361 0
DWIDTH 9 0
BBX 5 22 2 -4
BITMAP
F8
F8
F8
F8
F8
F8
F8
F8
F8
F8
F8
F8
F8
F8
F8
F8
F8
F8
00
70
E0
78
ENDCHAR
STARTCHAR iogonek
ENCODING 303
SWIDTH 361 0
DWIDTH 9 0
BBX 5 23 2 -4
BITMAP
F8
F8
F8
00
00
00
F8
F8
F8
F8
F8
F8
F8
F8
F8
F8
F8
F8
F8
00
70
E0
78
ENDCHAR
STARTCHAR Idotaccent
ENCODING 304
SWIDTH 361 0
DWIDTH 9 0
BBX 5 22 2 0
BITMAP
78
78
78
00
F8
F8
F8
F8
F8
F8
F8
F8
F8
F8
F8
F8
F8
F8
F8
F8
F8
F8
ENDCHAR
STARTCHAR dotlessi
ENCODING 305
SWIDTH 361 0
DWIDTH 9 0
BBX 5 13 2 0
BITMAP
F8
F8
F8
F8
F8
F8
F8
F8
F8
F8
F8
F8
F8
ENDCHAR
STARTCHAR IJ
ENCODING 306
SWIDTH 844 0
DWIDTH 22 0
BBX 17 22 2 -4
BITMAP
F80F80
F80F80
F80F80
F80F80
F80F80
F80F80
F80F80
F80F80
F80F80
F80F80
F80F80
F80F80
F80F80
F80F80
F80F80
F80F80
F80F80
F80F80
011F80
01FF00
01FF00
00FC00
ENDCHAR
STARTCHAR ij
ENCODING 307
SWIDTH 704 0
DWIDTH 18 0
BBX 15 24 2 -5
BITMAP
F83E
F83E
F83E
0000
0000
0000
F83E
F83E
F83E
F83E
F83E
F83E
F83E
F83E
F83E
F83E
F83E
F83E
F83E
003E
003E
07FE
07FC
07F0
ENDCHAR
STARTCHAR Jcircumflex
ENCODING 308
SWIDTH 501 0
DWIDTH 13 0
BBX 11 26 0 -4
BITMAP
0F80
1FC0
38E0
0000
07C0
07C0
07C0
07C0
07C0
07C0
07C0
07C0
07C0
07C0
07C0
07C0
07C0
07C0
07C0
07C0
07C0
07C0
8FC0
FF80
FF80
7E00
ENDCHAR
STARTCHAR jcircumflex
ENCODING 309
SWIDTH 361 0
DWIDTH 9 0
BBX 11 22 -2 -5
BITMAP
0F80
1FC0
38E0
0000
07C0
07C0
07C0
07C0
07C0
07C0
07C0
07C0
07C0
07C0
07C0
07C0
07C0
07C0
07C0
FFC0
FF80
FE00
ENDCHAR
STARTCHAR Kcommaaccent
ENCODING 310
SWIDTH 753 0
DWIDTH 19 0
BBX 16 28 2 -10
BITMAP
F81E
F83C
F878
F870
F8F0
F9E0
FBC0
FBC0
FFC0
FFE0
FFE0
FBF0
F9F8
F9F8
F8FC
F87E
F87E
F83F
0000
07C0
07C0
07C0
07C0
07C0
01C0
0380
0780
0600
ENDCHAR
STARTCHAR kcommaaccent
ENCODING 311
SWIDTH 681 0
DWIDTH 17 0
BBX 14 29 2 -10
BITMAP
F800
F800
F800
F800
F800
F800
F878
F8F0
F8E0
F9C0
FBC0
FBC0
FFC0
FFE0
FBF0
FBF0
F9F8
F8F8
F8FC
0000
0F80
0F80
0F80
0F80
0F80
0380
0700
0F00
0C00
ENDCHAR
STARTCHAR kgreenlandic
ENCODING 312
SWIDTH 681 0
DWIDTH 17 0
BBX 14 13 2 0
BITMAP
F878
F8F0
F8E0
F9C0
FBC0
FBC0
FFC0
FFE0
FBF0
FBF0
F9F8
F8F8
F8FC
ENDCHAR
STARTCHAR Lacute
ENCODING 313
SWIDTH 620 0
DWIDTH 16 0
BBX 13 22 2 0
BITMAP
0F00
1C00
3800
0000
F800
F800
F800
F800
F800
F800
F800
F800
F800
F800
F800
F800
F800
F800
F800
FFF8
FFF8
FFF8
ENDCHAR
STARTCHAR lacute
ENCODING 314
SWIDTH 361 0
DWIDTH 9 0
BBX 7 23 2 0
BITMAP
1E
38
70
00
F8
F8
F8
F8
F8
F8
F8
F8
F8
F8
F8
F8
F8
F8
F8
F8
F8
F8
F8
ENDCHAR
STARTCHAR Lcommaaccent
ENCODING 315
SWIDTH 620 0
DWIDTH 16 0
BBX 13 28 2 -10
BITMAP
F800
F800
F800
F800
F800
F800
F800
F800
F800
F800
F800
F800
F800
F800
F800
FFF8
FFF8
FFF8
0000
1F00
1F00
1F00
1F00
1F00
0700
0E00
1E00
1800
ENDCHAR
STARTCHAR lcommaaccent
ENCODING 316
SWIDTH 361 0
DWIDTH 9 0
BBX 5 29 2 -10
BITMAP
F8
F8
F8
F8
F8
F8
F8
F8
F8
F8
F8
F8
F8
F8
F8
F8
F8
F8
F8
00
F8
F8
F8
F8
F8
38
70
F0
C0
ENDCHAR
STARTCHAR Lcaron
ENCODING 317
SWIDTH 854 0
DWIDTH 22 0
BBX 19 19 2 0
BITMAP
0003E0
F803E0
F803E0
F803E0
F803E0
F800E0
F800C0
F803C0
F80300
F80000
F80000
F80000
F80000
F80000
F80000
F80000
FFF800
FFF800
FFF800
ENDCHAR
STARTCHAR lcaron
ENCODING 318
SWIDTH 608 0
DWIDTH 16 0
BBX 13 19 2 0
BITMAP
F8F8
F8F8
F8F8
F8F8
F8F8
F838
F830
F8F0
F8C0
F800
F800
F800
F800
F800
F800
F800
F800
F800
F800
ENDCHAR
STARTCHAR Ldot
ENCODING 319
SWIDTH 932 0
DWIDTH 32 0
BBX 24 18 2 0
BITMAP
F80000
F80000
F80000
F80000
F80000
F80000
F80000
F80000
F80000
F8000F
F8000F
F8000F
F80000
F80000
F80000
FFF800
FFF800
FFF800
ENDCHAR
STARTCHAR ldot
ENCODING 320
SWIDTH 686 0
DWIDTH 26 0
BBX 18 19 2 0
BITMAP
F80000
F80000
F80000
F80000
F80000
F80000
F80000
F80000
F80000
F80000
F803C0
F803C0
F803C0
F80000
F80000
F80000
F80000
F80000
F80000
ENDCHAR
STARTCHAR Lslash
ENCODING 321
SWIDTH 620 0
DWIDTH 16 0
BBX 15 18 0 0
BITMAP
3E00
3E00
3E00
3E00
3E00
3E80
3F80
3F80
3F00
FE00
FE00
FE00
BE00
3E00
3E00
3FFE
3FFE
3FFE
ENDCHAR
STARTCHAR lslash
ENCODING 322
SWIDTH 361 0
DWIDTH 9 0
BBX 9 19 0 0
BITMAP
3E00
3E00
3E00
3E00
3E00
3E00
3E80
3F80
3F80
7F00
FE00
FE00
FE00
BE00
3E00
3E00
3E00
3E00
3E00
ENDCHAR
STARTCHAR Nacute
ENCODING 323
SWIDTH 783 0
DWIDTH 20 0
BBX 15 22 2 0
BITMAP
01E0
0380
0700
0000
F00E
F80E
FC0E
FE0E
FE0E
FF0E
FF8E
FF8E
EFCE
E7EE
E3FE
E3FE
E1FE
E0FE
E0FE
E07E
E03E
E01E
ENDCHAR
STARTCHAR nacute
ENCODING 324
SWIDTH 693 0
DWIDTH 17 0
BBX 13 17 2 0
BITMAP
03C0
0700
0E00
0000
F9E0
FBF0
FFF8
FFF8
FCF8
F8F8
F8F8
F8F8
F8F8
F8F8
F8F8
F8F8
F8F8
ENDCHAR
STARTCHAR Ncommaaccent
ENCODING 325
SWIDTH 783 0
DWIDTH 20 0
BBX 15 28 2 -10
BITMAP
F00E
F80E
FC0E
FE0E
FE0E
FF0E
FF8E
FF8E
EFCE
E7EE
E3FE
E3FE
E1FE
E0FE
E0FE
E07E
E03E
E01E
0000
03E0
03E0
03E0
03E0
03E0
00E0
01C0
03C0
0300
ENDCHAR
STARTCHAR ncommaaccent
ENCODING 326
SWIDTH 693 0
DWIDTH 17 0
BBX 13 23 2 -10
BITMAP
F9E0
FBF0
FFF8
FFF8
FCF8
F8F8
F8F8
F8F8
F8F8
F8F8
F8F8
F8F8
F8F8
0000
0F80
0F80
0F80
0F80
0F80
0380
0700
0F00
0C00
ENDCHAR
STARTCHAR Ncaron
ENCODING 327
SWIDTH 783 0
DWIDTH 20 0
BBX 15 22 2 0
BITMAP
38E0
1FC0
0F80
0000
F00E
F80E
FC0E
FE0E
FE0E
FF0E
FF8E
FF8E
EFCE
E7EE
E3FE
E3FE
E1FE
E0FE
E0FE
E07E
E03E
E01E
ENDCHAR
STARTCHAR ncaron
ENCODING 328
SWIDTH 693 0
DWIDTH 17 0
BBX 13 17 2 0
BITMAP
38E0
1FC0
0F80
0000
F9E0
FBF0
FFF8
FFF8
FCF8
F8F8
F8F8
F8F8
F8F8
F8F8
F8F8
F8F8
F8F8
ENDCHAR
STARTCHAR napostrophe
ENCODING 329
SWIDTH 945 0
DWIDTH 24 0
BBX 21 19 1 0
BITMAP
F80000
F80000
F80000
F80000
F80000
380000
30F9E0
F0FBF0
C0FFF8
00FFF8
00FCF8
00F8F8
00F8F8
00F8F8
00F8F8
00F8F8
00F8F8
00F8F8
00F8F8
ENDCHAR
STARTCHAR Eng
ENCODING 330
SWIDTH 783 0
DWIDTH 20 0
BBX 15 23 2 -5
BITMAP
F00E
F80E
FC0E
FE0E
FE0E
FF0E
FF8E
FF8E
EFCE
E7EE
E3FE
E3FE
E1FE
E0FE
E0FE
E07E
E03E
E03E
003E
003E
07FE
07FC
07F0
ENDCHAR
STARTCHAR eng
ENCODING 331
SWIDTH 693 0
DWIDTH 17 0
BBX 13 18 2 -5
BITMAP
F9E0
FBF0
FFF8
FFF8
FCF8
F8F8
F8F8
F8F8
F8F8
F8F8
F8F8
F8F8
F8F8
00F8
00F8
1FF8
1FF0
1FC0
ENDCHAR
STARTCHAR Omacron
ENCODING 332
SWIDTH 855 0
DWIDTH 21 0
BBX 20 22 1 0
BITMAP
03FC00
03FC00
03FC00
000000
03FC00
0FFF00
1FFF80
3F0FC0
7E07E0
7C03E0
F801F0
F801F0
F801F0
F801F0
F801F0
F801F0
7C03E0
7E07E0
3F0FC0
1FFF80
0FFF00
03FC00
ENDCHAR
STARTCHAR omacron
ENCODING 333
SWIDTH 675 0
DWIDTH 17 0
BBX 15 17 1 0
BITMAP
0FF0
0FF0
0FF0
0000
0FE0
3FF8
7FFC
7C7C
F83E
F83E
F83E
F83E
F83E
7C7C
7FFC
3FF8
0FE0
ENDCHAR
STARTCHAR Obreve
ENCODING 334
SWIDTH 855 0
DWIDTH 21 0
BBX 20 22 1 0
BITMAP
038E00
01FC00
00F800
000000
03FC00
0FFF00
1FFF80
3F0FC0
7E07E0
7C03E0
F801F0
F801F0
F801F0
F801F0
F801F0
F801F0
7C03E0
7E07E0
3F0FC0
1FFF80
0FFF00
03FC00
ENDCHAR
STARTCHAR obreve
ENCODING 335
SWIDTH 675 0
DWIDTH 17 0
BBX 15 17 1 0
BITMAP
1C70
0FE0
07C0
0000
0FE0
3FF8
7FFC
7C7C
F83E
F83E
F83E
F83E
F83E
7C7C
7FFC
3FF8
0FE0
ENDCHAR
STARTCHAR Ohungarumlaut
ENCODING 336
SWIDTH 855 0
DWIDTH 21 0
BBX 20 22 1 0
BITMAP
007700
00EC00
01D800
000000
03FC00
0FFF00
1FFF80
3F0FC0
7E07E0
7C03E0
F801F0
F801F0
F801F0
F801F0
F801F0
F801F0
7C03E0
7E07E0
3F0FC0
1FFF80
0FFF00
03FC00
ENDCHAR
STARTCHAR ohungarumlaut
ENCODING 337
SWIDTH 675 0
DWIDTH 17 0
BBX 15 17 1 0
BITMAP
03B8
0760
0EC0
0000
0FE0
3FF8
7FFC
7C7C
F83E
F83E
F83E
F83E
F83E
7C7C
7FFC
3FF8
0FE0
ENDCHAR
STARTCHAR OE
ENCODING 338
SWIDTH 1102 0
DWIDTH 28 0
BBX 25 18 1 0
BITMAP
03FFFF00
0FFFFF00
3FFFFF00
3E1F8000
7C0F8000
7C0F8000
F80F8000
F80FFE00
F80FFE00
F80FFE00
F80F8000
F80F8000
7C0F8000
7C0F8000
3E1F8000
3FFFFF80
0FFFFF80
03FFFF80
ENDCHAR
STARTCHAR oe
ENCODING 339
SWIDTH 990 0
DWIDTH 25 0
BBX 23 13 1 0
BITMAP
0FC1E0
3FF7F8
7FFFFC
7C7E7C
F83E3E
F83FFE
F83FFE
F83FFE
F83E00
7C7E02
7FFFFE
3FFFFE
0FE3FC
ENDCHAR
STARTCHAR Racute
ENCODING 340
SWIDTH 734 0
DWIDTH 18 0
BBX 16 22 2 0
BITMAP
01E0
0380
0700
0000
FFE0
FFF8
FFFC
F8FC
F87C
F87C
F87C
F8F8
FFF0
FFE0
FFE0
F9F0
F9F8
F8F8
F8FC
F87E
F87E
F83F
ENDCHAR
STARTCHAR racute
ENCODING 341
SWIDTH 500 0
DWIDTH 12 0
BBX 10 17 2 0
BITMAP
0780
0E00
1C00
0000
F9C0
FBC0
FFC0
FFC0
FC00
F800
F800
F800
F800
F800
F800
F800
F800
ENDCHAR
STARTCHAR Rcommaaccent
ENCODING 342
SWIDTH 734 0
DWIDTH 18 0
BBX 16 28 2 -10
BITMAP
FFE0
FFF8
FFFC
F8FC
F87C
F87C
F87C
F8F8
FFF0
FFE0
FFE0
F9F0
F9F8
F8F8
F8FC
F87E
F87E
F83F
0000
07C0
07C0
07C0
07C0
07C0
01C0
0380
0780
0600
ENDCHAR
STARTCHAR rcommaaccent
ENCODING 343
SWIDTH 500 0
DWIDTH 12 0
BBX 10 23 2 -10
BITMAP
F9C0
FBC0
FFC0
FFC0
FC00
F800
F800
F800
F800
F800
F800
F800
F800
0000
7C00
7C00
7C00
7C00
7C00
1C00
3800
7800
6000
ENDCHAR
STARTCHAR Rcaron
ENCODING 344
SWIDTH 734 0
DWIDTH 18 0
BBX 16 22 2 0
BITMAP
1C70
0FE0
07C0
0000
FFE0
FFF8
FFFC
F8FC
F87C
F87C
F87C
F8F8
FFF0
FFE0
FFE0
F9F0
F9F8
F8F8
F8FC
F87E
F87E
F83F
ENDCHAR
STARTCHAR rcaron
ENCODING 345
SWIDTH 500 0
DWIDTH 12 0
BBX 10 17 2 0
BITMAP
E380
7F00
3E00
0000
F9C0
FBC0
FFC0
FFC0
FC00
F800
F800
F800
F800
F800
F800
F800
F800
ENDCHAR
STARTCHAR Sacute
ENCODING 346
SWIDTH 594 0
DWIDTH 15 0
BBX 13 22 1 0
BITMAP
03C0
0700
0E00
0000
1FF0
7FF0
7FF0
F830
F800
FC00
FF00
7F80
7FE0
1FF0
0FF8
03F8
00F8
00F8
C1F8
FFF0
FFE0
FF80
ENDCHAR
STARTCHAR sacute
ENCODING 347
SWIDTH 622 0
DWIDTH 16 0
BBX 12 17 2 0
BITMAP
03C0
0700
0E00
0000
3FC0
7FE0
FFE0
F820
F800
FF00
3FC0
0FF0
01F0
C1F0
FFF0
FFE0
7F80
ENDCHAR
STARTCHAR Scircumflex
ENCODING 348
SWIDTH 594 0
DWIDTH 15 0
BBX 13 22 1 0
BITMAP
0F80
1FC0
38E0
0000
1FF0
7FF0
7FF0
F830
F800
FC00
FF00
7F80
7FE0
1FF0
0FF8
03F8
00F8
00F8
C1F8
FFF0
FFE0
FF80
ENDCHAR
STARTCHAR scircumflex
ENCODING 349
SWIDTH 622 0
DWIDTH 16 0
BBX 12 17 2 0
BITMAP
1F00
3F80
71C0
0000
3FC0
7FE0
FFE0
F820
F800
FF00
3FC0
0FF0
01F0
C1F0
FFF0
FFE0
7F80
ENDCHAR
STARTCHAR Scedilla
ENCODING 350
SWIDTH 594 0
DWIDTH 15 0
BBX 13 23 1 -5
BITMAP
1FF0
7FF0
7FF0
F830
F800
FC00
FF00
7F80
7FE0
1FF0
0FF8
03F8
00F8
00F8
C1F8
FFF0
FFE0
FF80
0300
0600
0380
0F80
0F00
ENDCHAR
STARTCHAR scedilla
ENCODING 351
SWIDTH 622 0
DWIDTH 16 0
BBX 12 18 2 -5
BITMAP
3FC0
7FE0
FFE0
F820
F800
FF00
3FC0
0FF0
01F0
C1F0
FFF0
FFE0
7F80
0600
0C00
0700
1F00
1E00
ENDCHAR
STARTCHAR Scaron
ENCODING 352
SWIDTH 594 0
DWIDTH 15 0
BBX 13 22 1 0
BITMAP
38E0
1FC0
0F80
0000
1FF0
7FF0
7FF0
F830
F800
FC00
FF00
7F80
7FE0
1FF0
0FF8
03F8
00F8
00F8
C1F8
FFF0
FFE0
FF80
ENDCHAR
STARTCHAR scaron
ENCODING 353
SWIDTH 622 0
DWIDTH 16 0
BBX 12 17 2 0
BITMAP
38E0
1FC0
0F80
0000
3FC0
7FE0
FFE0
F820
F800
FF00
3FC0
0FF0
01F0
C1F0
FFF0
FFE0
7F80
ENDCHAR
STARTCHAR Tcommaaccent
ENCODING 354
SWIDTH 735 0
DWIDTH 18 0
BBX 19 23 0 -5
BITMAP
FFFFE0
FFFFE0
FFFFE0
01F000
01F000
01F000
01F000
01F000
01F000
01F000
01F000
01F000
01F000
01F000
01F000
01F000
01F000
01F000
006000
00C000
007000
01F000
01E000
ENDCHAR
STARTCHAR tcommaaccent
ENCODING 355
SWIDTH 436 0
DWIDTH 11 0
BBX 9 22 1 -5
BITMAP
1C00
7C00
7C00
7C00
FF80
FF80
FF80
7C00
7C00
7C00
7C00
7C00
7C00
7C00
7F80
3F80
1F80
0C00
1800
0E00
3E00
3C00
ENDCHAR
STARTCHAR Tcaron
ENCODING 356
SWIDTH 735 0
DWIDTH 18 0
BBX 19 22 0 0
BITMAP
071C00
03F800
01F000
000000
FFFFE0
FFFFE0
FFFFE0
01F000
01F000
01F000
01F000
01F000
01F000
01F000
01F000
01F000
01F000
01F000
01F000
01F000
01F000
01F000
ENDCHAR
STARTCHAR tcaron
ENCODING 357
SWIDTH 679 0
DWIDTH 17 0
BBX 15 19 1 0
BITMAP
003E
003E
1C3E
7C3E
7C3E
7C0E
FF8C
FFBC
FFB0
7C00
7C00
7C00
7C00
7C00
7C00
7C00
7F80
3F80
1F80
ENDCHAR
STARTCHAR Tbar
ENCODING 358
SWIDTH 735 0
DWIDTH 18 0
BBX 19 18 0 0
BITMAP
FFFFE0
FFFFE0
FFFFE0
01F000
01F000
01F000
01F000
01F000
01F000
01F000
01F000
01F000
01F000
01F000
01F000
01F000
01F000
01F000
ENDCHAR
STARTCHAR tbar
ENCODING 359
SWIDTH 436 0
DWIDTH 11 0
BBX 9 17 1 0
BITMAP
1C00
7C00
7C00
7C00
FF80
FF80
FF80
7C00
7C00
7E00
7E00
7E00
7C00
7C00
7F80
3F80
1F80
ENDCHAR
STARTCHAR Utilde
ENCODING 360
SWIDTH 783 0
DWIDTH 20 0
BBX 15 22 2 0
BITMAP
0F70
1FF0
1DE0
0000
F83E
F83E
F83E
F83E
F83E
F83E
F83E
F83E
F83E
F83E
F83E
F83E
F83E
F83E
7C7C
7FFC
3FF8
0FE0
ENDCHAR
STARTCHAR utilde
ENCODING 361
SWIDTH 693 0
DWIDTH 17 0
BBX 13 17 2 0
BITMAP
1EE0
3FE0
3BC0
0000
F8F8
F8F8
F8F8
F8F8
F8F8
F8F8
F8F8
F8F8
F8F8
F9F8
FFF8
7EF8
3CF8
ENDCHAR
STARTCHAR Umacron
ENCODING 362
SWIDTH 783 0
DWIDTH 20 0
BBX 15 22 2 0
BITMAP
0FF0
0FF0
0FF0
0000
F83E
F83E
F83E
F83E
F83E
F83E
F83E
F83E
F83E
F83E
F83E
F83E
F83E
F83E
7C7C
7FFC
3FF8
0FE0
ENDCHAR
STARTCHAR umacron
ENCODING 363
SWIDTH 693 0
DWIDTH 17 0
BBX 13 17 2 0
BITMAP
1FE0
1FE0
1FE0
0000
F8F8
F8F8
F8F8
F8F8
F8F8
F8F8
F8F8
F8F8
F8F8
F9F8
FFF8
7EF8
3CF8
ENDCHAR
STARTCHAR Ubreve
ENCODING 364
SWIDTH 783 0
DWIDTH 20 0
BBX 15 22 2 0
BITMAP
1C70
0FE0
07C0
0000
F83E
F83E
F83E
F83E
F83E
F83E
F83E
F83E
F83E
F83E
F83E
F83E
F83E
F83E
7C7C
7FFC
3FF8
0FE0
ENDCHAR
STARTCHAR ubreve
ENCODING 365
SWIDTH 693 0
DWIDTH 17 0
BBX 13 17 2 0
BITMAP
38E0
1FC0
0F80
0000
F8F8
F8F8
F8F8
F8F8
F8F8
F8F8
F8F8
F8F8
F8F8
F9F8
FFF8
7EF8
3CF8
ENDCHAR
STARTCHAR Uring
ENCODING 366
SWIDTH 783 0
DWIDTH 20 0
BBX 15 23 2 0
BITMAP
0180
0240
0240
0180
0000
F83E
F83E
F83E
F83E
F83E
F83E
F83E
F83E
F83E
F83E
F83E
F83E
F83E
F83E
7C7C
7FFC
3FF8
0FE0
ENDCHAR
STARTCHAR uring
ENCODING 367
SWIDTH 693 0
DWIDTH 17 0
BBX 13 18 2 0
BITMAP
0300
0480
0480
0300
0000
F8F8
F8F8
F8F8
F8F8
F8F8
F8F8
F8F8
F8F8
F8F8
F9F8
FFF8
7EF8
3CF8
ENDCHAR
STARTCHAR Uhungarumlaut
ENCODING 368
SWIDTH 783 0
DWIDTH 20 0
BBX 15 22 2 0
BITMAP
03B8
0760
0EC0
0000
F83E
F83E
F83E
F83E
F83E
F83E
F83E
F83E
F83E
F83E
F83E
F83E
F83E
F83E
7C7C
7FFC
3FF8
0FE0
ENDCHAR
STARTCHAR uhungarumlaut
ENCODING 369
SWIDTH 693 0
DWIDTH 17 0
BBX 13 17 2 0
BITMAP
0770
0EC0
1D80
0000
F8F8
F8F8
F8F8
F8F8
F8F8
F8F8
F8F8
F8F8
F8F8
F9F8
FFF8
7EF8
3CF8
ENDCHAR
STARTCHAR Uogonek
ENCODING 370
SWIDTH 783 0
DWIDTH 20 0
BBX 15 22 2 -4
BITMAP
F83E
F83E
F83E
F83E
F83E
F83E
F83E
F83E
F83E
F83E
F83E
F83E
F83E
F83E
7C7C
7FFC
3FF8
0FE0
0000
0380
0700
03C0
ENDCHAR
STARTCHAR uogonek
ENCODING 371
SWIDTH 693 0
DWIDTH 17 0
BBX 13 17 2 -4
BITMAP
F8F8
F8F8
F8F8
F8F8
F8F8
F8F8
F8F8
F8F8
F8F8
F9F8
FFF8
7EF8
3CF8
0000
0700
0E00
0780
ENDCHAR
STARTCHAR Wcircumflex
ENCODING 372
SWIDTH 940 0
DWIDTH 23 0
BBX 23 22 0 0
BITMAP
00F800
01FC00
038E00
000000
F83C0E
F83C0E
F83E1C
7C7E1C
7C7E1C
7C7E1C
7C7E38
3EFF38
3EEF38
3EEF38
3EEF70
1FEFF0
1FC7F0
1FC7F0
1FC7E0
1FC7E0
0F83E0
0F83E0
ENDCHAR
STARTCHAR wcircumflex
ENCODING 373
SWIDTH 885 0
DWIDTH 22 0
BBX 21 17 1 0
BITMAP
00F800
01FC00
038E00
000000
F07838
78FC70
78FC70
78FC70
78FC70
3DDEE0
3DDEE0
3DDEE0
3F9FC0
1F8FC0
1F8FC0
1F8FC0
1F0F80
ENDCHAR
STARTCHAR Ycircumflex
ENCODING 374
SWIDTH 738 0
DWIDTH 18 0
BBX 17 22 1 0
BITMAP
03E000
07F000
0E3800
000000
FC0780
7C0700
7E0F00
3F0E00
3F1C00
1FBC00
1FB800
0FF800
07F000
07F000
03E000
03E000
03E000
03E000
03E000
03E000
03E000
03E000
ENDCHAR
STARTCHAR ycircumflex
ENCODING 375
SWIDTH 645 0
DWIDTH 16 0
BBX 15 22 1 -5
BITMAP
07C0
0FE0
1C70
0000
F81E
FC1C
7C3C
7E38
3E38
3E70
3F70
1FE0
1FE0
0FE0
0FC0
0FC0
0780
0780
0F00
0F00
1E00
3E00
ENDCHAR
STARTCHAR Ydieresis
ENCODING 376
SWIDTH 738 0
DWIDTH 18 0
BBX 17 22 1 0
BITMAP
073800
073800
073800
000000
FC0780
7C0700
7E0F00
3F0E00
3F1C00
1FBC00
1FB800
0FF800
07F000
07F000
03E000
03E000
03E000
03E000
03E000
03E000
03E000
03E000
ENDCHAR
STARTCHAR Zacute
ENCODING 377
SWIDTH 675 0
DWIDTH 17 0
BBX 14 22 1 0
BITMAP
00F0
01C0
0380
0000
FFFC
FFFC
FFFC
00FC
01F8
03F8
03F0
07E0
0FC0
0FC0
1F80
3F00
7F00
7E00
FC00
FFFC
FFFC
FFFC
ENDCHAR
STARTCHAR zacute
ENCODING 378
SWIDTH 608 0
DWIDTH 15 0
BBX 13 17 1 0
BITMAP
01E0
0380
0700
0000
FFF8
FFF8
FFF8
03F8
07F0
0FE0
1FC0
3F80
7F00
FE00
FFF8
FFF8
FFF8
ENDCHAR
STARTCHAR Zdotaccent
ENCODING 379
SWIDTH 675 0
DWIDTH 17 0
BBX 14 22 1 0
BITMAP
03C0
03C0
03C0
0000
FFFC
FFFC
FFFC
00FC
01F8
03F8
03F0
07E0
0FC0
0FC0
1F80
3F00
7F00
7E00
FC00
FFFC
FFFC
FFFC
ENDCHAR
STARTCHAR zdotaccent
ENCODING 380
SWIDTH 608 0
DWIDTH 15 0
BBX 13 17 1 0
BITMAP
0780
0780
0780
0000
FFF8
FFF8
FFF8
03F8
07F0
0FE0
1FC0
3F80
7F00
FE00
FFF8
FFF8
FFF8
ENDCHAR
STARTCHAR Zcaron
ENCODING 381
SWIDTH 675 0
DWIDTH 17 0
BBX 14 22 1 0
BITMAP
1C70
0FE0
07C0
0000
FFFC
FFFC
FFFC
00FC
01F8
03F8
03F0
07E0
0FC0
0FC0
1F80
3F00
7F00
7E00
FC00
FFFC
FFFC
FFFC
ENDCHAR
STARTCHAR zcaron
ENCODING 382
SWIDTH 608 0
DWIDTH 15 0
BBX 13 17 1 0
BITMAP
38E0
1FC0
0F80
0000
FFF8
FFF8
FFF8
03F8
07F0
0FE0
1FC0
3F80
7F00
FE00
FFF8
FFF8
FFF8
ENDCHAR
STARTCHAR uni0186
ENCODING 390
SWIDTH 726 0
DWIDTH 18 0
BBX 17 18 1 0
BITMAP
3FE000
FFF800
FFFC00
C0FE00
003F00
001F00
000F80
000F80
000F80
000F80
000F80
000F80
001F00
003F00
C07E00
FFFC00
FFF800
7FE000
ENDCHAR
STARTCHAR uni0189
ENCODING 393
SWIDTH 819 0
DWIDTH 20 0
BBX 19 18 0 0
BITMAP
3FFC00
3FFF00
3FFF80
3E1FC0
3E07C0
3E07E0
3E03E0
FFE3E0
FFE3E0
FFE3E0
3E03E0
3E03E0
3E03C0
3E07C0
3E0FC0
3FFF80
3FFF00
3FFC00
ENDCHAR
STARTCHAR uni018E
ENCODING 398
SWIDTH 645 0
DWIDTH 16 0
BBX 13 18 2 0
BITMAP
FFF8
FFF8
FFF8
00F8
00F8
00F8
00F8
00F8
3FF8
3FF8
3FF8
00F8
00F8
00F8
00F8
7FF8
7FF8
7FF8
ENDCHAR
STARTCHAR florin
ENCODING 402
SWIDTH 687 0
DWIDTH 17 0
BBX 14 22 3 -4
BITMAP
00FC
03FC
07FC
0F80
0F80
1F00
1F00
7FC0
7FC0
7FC0
3E00
3E00
3E00
3E00
7C00
7C00
7C00
7C00
7C00
F800
F800
F800
ENDCHAR
STARTCHAR uni0197
ENCODING 407
SWIDTH 361 0
DWIDTH 9 0
BBX 5 18 2 0
BITMAP
F8
F8
F8
F8
F8
F8
F8
F8
F8
F8
F8
F8
F8
F8
F8
F8
F8
F8
ENDCHAR
STARTCHAR uni019A
ENCODING 410
SWIDTH 361 0
DWIDTH 9 0
BBX 5 19 2 0
BITMAP
F8
F8
F8
F8
F8
F8
F8
F8
F8
F8
F8
F8
F8
F8
F8
F8
F8
F8
F8
ENDCHAR
STARTCHAR uni019D
ENCODING 413
SWIDTH 783 0
DWIDTH 20 0
BBX 20 23 -3 -5
BITMAP
078070
07C070
07E070
07F070
07F070
07F870
07FC70
07FC70
077E70
073F70
071FF0
071FF0
07CFF0
07C7F0
07C7F0
07C3F0
07C1F0
07C0F0
07C000
07C000
FFC000
FF8000
FE0000
ENDCHAR
STARTCHAR uni019F
ENCODING 415
SWIDTH 855 0
DWIDTH 21 0
BBX 20 18 1 0
BITMAP
03FC00
0FFF00
1FFF80
3F0FC0
7E07E0
7C03E0
F801F0
FFFFF0
FFFFF0
FFFFF0
F801F0
F801F0
7C03E0
7E07E0
3F0FC0
1FFF80
0FFF00
03FC00
ENDCHAR
STARTCHAR Ohorn
ENCODING 416
SWIDTH 855 0
DWIDTH 21 0
BBX 23 18 1 0
BITMAP
03FC3E
0FFF3E
1FFFBE
3F0FFE
7E07FE
7C03EE
F801FC
F801FC
F801F0
F801F0
F801F0
F801F0
7C03E0
7E07E0
3F0FC0
1FFF80
0FFF00
03FC00
ENDCHAR
STARTCHAR ohorn
ENCODING 417
SWIDTH 675 0
DWIDTH 17 0
BBX 19 13 1 0
BITMAP
0FE3E0
3FFBE0
7FFFE0
7C7FE0
F83FE0
F83EE0
F83EC0
F83FC0
F83F00
7C7C00
7FFC00
3FF800
0FE000
ENDCHAR
STARTCHAR uni01A7
ENCODING 423
SWIDTH 594 0
DWIDTH 15 0
BBX 13 18 1 0
BITMAP
7FC0
7FF0
7FF0
60F8
00F8
01F8
07F8
0FF0
3FF0
7FC0
FF80
FE00
F800
F800
FC18
7FF8
3FF8
0FF8
ENDCHAR
STARTCHAR uni01A8
ENCODING 424
SWIDTH 622 0
DWIDTH 16 0
BBX 12 13 2 0
BITMAP
3FC0
7FE0
7FF0
41F0
01F0
0FF0
3FC0
FF00
F800
F830
FFF0
7FF0
1FE0
ENDCHAR
STARTCHAR uni01AE
ENCODING 430
SWIDTH 735 0
DWIDTH 18 0
BBX 19 23 0 -5
BITMAP
FFFFE0
FFFFE0
FFFFE0
01F000
01F000
01F000
01F000
01F000
01F000
01F000
01F000
01F000
01F000
01F000
01F000
01F000
01F000
01F000
01F000
01F000
01FF80
00FF80
003F80
ENDCHAR
STARTCHAR Uhorn
ENCODING 431
SWIDTH 783 0
DWIDTH 20 0
BBX 19 18 2 0
BITMAP
F83FE0
F83FE0
F83FE0
F83FE0
F83FE0
F83EE0
F83EC0
F83FC0
F83F00
F83E00
F83E00
F83E00
F83E00
F83E00
7C7C00
7FFC00
3FF800
0FE000
ENDCHAR
STARTCHAR uhorn
ENCODING 432
SWIDTH 693 0
DWIDTH 17 0
BBX 17 13 2 0
BITMAP
F8FF80
F8FF80
F8FF80
F8FF80
F8FF80
F8FB80
F8FB00
F8FF00
F8FC00
F9F800
FFF800
7EF800
3CF800
ENDCHAR
STARTCHAR uni01B5
ENCODING 437
SWIDTH 675 0
DWIDTH 17 0
BBX 14 18 1 0
BITMAP
FFFC
FFFC
FFFC
00FC
01F8
03F8
03F0
07E0
0FC0
0FC0
1F80
3F00
7F00
7E00
FC00
FFFC
FFFC
FFFC
ENDCHAR
STARTCHAR uni01B6
ENCODING 438
SWIDTH 608 0
DWIDTH 15 0
BBX 13 13 1 0
BITMAP
FFF8
FFF8
FFF8
03F8
07F0
0FE0
1FC0
3F80
7F00
FE00
FFF8
FFF8
FFF8
ENDCHAR
STARTCHAR uni01BB
ENCODING 443
SWIDTH 687 0
DWIDTH 17 0
BBX 13 18 2 0
BITMAP
3F80
FFE0
FFF0
C1F8
00F8
00F8
00F8
FFF8
FFF8
FFF8
07C0
0F80
3E00
7C00
F800
FFF8
FFF8
FFF8
ENDCHAR
STARTCHAR uni01BC
ENCODING 444
SWIDTH 687 0
DWIDTH 17 0
BBX 12 18 3 0
BITMAP
FFF0
FFF0
FFF0
E000
E000
E000
FE00
FF80
FFE0
07E0
03F0
01F0
01F0
01F0
83F0
FFE0
FFC0
7F00
ENDCHAR
STARTCHAR uni01C0
ENCODING 448
SWIDTH 265 0
DWIDTH 7 0
BBX 3 23 2 -4
BITMAP
E0
E0
E0
E0
E0
E0
E0
E0
E0
E0
E0
E0
E0
E0
E0
E0
E0
E0
E0
E0
E0
E0
E0
ENDCHAR
STARTCHAR uni01C2
ENCODING 450
SWIDTH 687 0
DWIDTH 17 0
BBX 14 23 2 -5
BITMAP
0380
0380
0380
0380
0380
0380
0380
FFFC
FFFC
FFFC
0380
0380
0380
FFFC
FFFC
FFFC
0380
0380
0380
0380
0380
0380
0380
ENDCHAR
STARTCHAR uni01C3
ENCODING 451
SWIDTH 265 0
DWIDTH 9 0
BBX 5 18 2 0
BITMAP
F8
F8
F8
F8
F8
F8
F8
F8
70
70
70
70
70
00
00
F8
F8
F8
ENDCHAR
STARTCHAR uni01CD
ENCODING 461
SWIDTH 773 0
DWIDTH 19 0
BBX 19 22 0 0
BITMAP
071C00
03F800
01F000
000000
01F000
03F800
03F800
03FC00
07FC00
077C00
0F7E00
0E3E00
0E3F00
1C1F00
1FFF00
1FFF80
3FFF80
380FC0
7807C0
7007C0
7003E0
E003E0
ENDCHAR
STARTCHAR uni01CE
ENCODING 462
SWIDTH 623 0
DWIDTH 16 0
BBX 14 17 1 0
BITMAP
1C70
0FE0
07C0
0000
1FC0
7FF0
7FF8
41F8
00F8
1FF8
7FF8
FFF8
F8F8
F8F8
FFFC
7FFC
3E7C
ENDCHAR
STARTCHAR uni01CF
ENCODING 463
SWIDTH 361 0
DWIDTH 9 0
BBX 9 22 0 0
BITMAP
E380
7F00
3E00
0000
3E00
3E00
3E00
3E00
3E00
3E00
3E00
3E00
3E00
3E00
3E00
3E00
3E00
3E00
3E00
3E00
3E00
3E00
ENDCHAR
STARTCHAR uni01D0
ENCODING 464
SWIDTH 361 0
DWIDTH 9 0
BBX 9 17 0 0
BITMAP
E380
7F00
3E00
0000
3E00
3E00
3E00
3E00
3E00
3E00
3E00
3E00
3E00
3E00
3E00
3E00
3E00
ENDCHAR
STARTCHAR uni01D1
ENCODING 465
SWIDTH 855 0
DWIDTH 21 0
BBX 20 22 1 0
BITMAP
038E00
01FC00
00F800
000000
03FC00
0FFF00
1FFF80
3F0FC0
7E07E0
7C03E0
F801F0
F801F0
F801F0
F801F0
F801F0
F801F0
7C03E0
7E07E0
3F0FC0
1FFF80
0FFF00
03FC00
ENDCHAR
STARTCHAR uni01D2
ENCODING 466
SWIDTH 675 0
DWIDTH 17 0
BBX 15 17 1 0
BITMAP
1C70
0FE0
07C0
0000
0FE0
3FF8
7FFC
7C7C
F83E
F83E
F83E
F83E
F83E
7C7C
7FFC
3FF8
0FE0
ENDCHAR
STARTCHAR uni01D3
ENCODING 467
SWIDTH 783 0
DWIDTH 20 0
BBX 15 22 2 0
BITMAP
1C70
0FE0
07C0
0000
F83E
F83E
F83E
F83E
F83E
F83E
F83E
F83E
F83E
F83E
F83E
F83E
F83E
F83E
7C7C
7FFC
3FF8
0FE0
ENDCHAR
STARTCHAR uni01D4
ENCODING 468
SWIDTH 693 0
DWIDTH 17 0
BBX 13 17 2 0
BITMAP
38E0
1FC0
0F80
0000
F8F8
F8F8
F8F8
F8F8
F8F8
F8F8
F8F8
F8F8
F8F8
F9F8
FFF8
7EF8
3CF8
ENDCHAR
STARTCHAR uni01D5
ENCODING 469
SWIDTH 783 0
DWIDTH 20 0
BBX 15 26 2 0
BITMAP
0FF0
0FF0
0FF0
0000
0E70
0E70
0E70
0000
F83E
F83E
F83E
F83E
F83E
F83E
F83E
F83E
F83E
F83E
F83E
F83E
F83E
F83E
7C7C
7FFC
3FF8
0FE0
ENDCHAR
STARTCHAR uni01D6
ENCODING 470
SWIDTH 693 0
DWIDTH 17 0
BBX 13 21 2 0
BITMAP
1FE0
1FE0
1FE0
0000
1CE0
1CE0
1CE0
0000
F8F8
F8F8
F8F8
F8F8
F8F8
F8F8
F8F8
F8F8
F8F8
F9F8
FFF8
7EF8
3CF8
ENDCHAR
STARTCHAR uni01D7
ENCODING 471
SWIDTH 783 0
DWIDTH 20 0
BBX 15 26 2 0
BITMAP
00F0
01C0
0380
0000
0E70
0E70
0E70
0000
F83E
F83E
F83E
F83E
F83E
F83E
F83E
F83E
F83E
F83E
F83E
F83E
F83E
F83E
7C7C
7FFC
3FF8
0FE0
ENDCHAR
STARTCHAR uni01D8
ENCODING 472
SWIDTH 693 0
DWIDTH 17 0
BBX 13 21 2 0
BITMAP
01E0
0380
0700
0000
1CE0
1CE0
1CE0
0000
F8F8
F8F8
F8F8
F8F8
F8F8
F8F8
F8F8
F8F8
F8F8
F9F8
FFF8
7EF8
3CF8
ENDCHAR
STARTCHAR uni01D9
ENCODING 473
SWIDTH 783 0
DWIDTH 20 0
BBX 15 26 2 0
BITMAP
1C70
0FE0
07C0
0000
0E70
0E70
0E70
0000
F83E
F83E
F83E
F83E
F83E
F83E
F83E
F83E
F83E
F83E
F83E
F83E
F83E
F83E
7C7C
7FFC
3FF8
0FE0
ENDCHAR
STARTCHAR uni01DA
ENCODING 474
SWIDTH 693 0
DWIDTH 17 0
BBX 13 21 2 0
BITMAP
38E0
1FC0
0F80
0000
1CE0
1CE0
1CE0
0000
F8F8
F8F8
F8F8
F8F8
F8F8
F8F8
F8F8
F8F8
F8F8
F9F8
FFF8
7EF8
3CF8
ENDCHAR
STARTCHAR uni01DB
ENCODING 475
SWIDTH 783 0
DWIDTH 20 0
BBX 15 26 2 0
BITMAP
0F00
0380
01C0
0000
0E70
0E70
0E70
0000
F83E
F83E
F83E
F83E
F83E
F83E
F83E
F83E
F83E
F83E
F83E
F83E
F83E
F83E
7C7C
7FFC
3FF8
0FE0
ENDCHAR
STARTCHAR uni01DC
ENCODING 476
SWIDTH 693 0
DWIDTH 17 0
BBX 13 21 2 0
BITMAP
1E00
0700
0380
0000
1CE0
1CE0
1CE0
0000
F8F8
F8F8
F8F8
F8F8
F8F8
F8F8
F8F8
F8F8
F8F8
F9F8
FFF8
7EF8
3CF8
ENDCHAR
STARTCHAR uni01DD
ENCODING 477
SWIDTH 614 0
DWIDTH 15 0
BBX 13 13 1 0
BITMAP
7F80
FFE0
FFF0
81F0
00F8
FFF8
FFF8
FFF8
F8F8
78F0
7FF0
3FE0
1F80
ENDCHAR
STARTCHAR uni01DE
ENCODING 478
SWIDTH 773 0
DWIDTH 19 0
BBX 19 26 0 0
BITMAP
03FC00
03FC00
03FC00
000000
039C00
039C00
039C00
000000
01F000
03F800
03F800
03FC00
07FC00
077C00
0F7E00
0E3E00
0E3F00
1C1F00
1FFF00
1FFF80
3FFF80
380FC0
7807C0
7007C0
7003E0
E003E0
ENDCHAR
STARTCHAR uni01DF
ENCODING 479
SWIDTH 623 0
DWIDTH 16 0
BBX 14 21 1 0
BITMAP
1FE0
1FE0
1FE0
0000
1CE0
1CE0
1CE0
0000
1FC0
7FF0
7FF8
41F8
00F8
1FF8
7FF8
FFF8
F8F8
F8F8
FFFC
7FFC
3E7C
ENDCHAR
STARTCHAR uni01E0
ENCODING 480
SWIDTH 773 0
DWIDTH 19 0
BBX 19 26 0 0
BITMAP
03FC00
03FC00
03FC00
000000
00F000
00F000
00F000
000000
01F000
03F800
03F800
03FC00
07FC00
077C00
0F7E00
0E3E00
0E3F00
1C1F00
1FFF00
1FFF80
3FFF80
380FC0
7807C0
7007C0
7003E0
E003E0
ENDCHAR
STARTCHAR uni01E1
ENCODING 481
SWIDTH 623 0
DWIDTH 16 0
BBX 14 21 1 0
BITMAP
1FE0
1FE0
1FE0
0000
0780
0780
0780
0000
1FC0
7FF0
7FF8
41F8
00F8
1FF8
7FF8
FFF8
F8F8
F8F8
FFFC
7FFC
3E7C
ENDCHAR
STARTCHAR uni01E2
ENCODING 482
SWIDTH 997 0
DWIDTH 25 0
BBX 24 22 0 0
BITMAP
003FC0
003FC0
003FC0
000000
003FFE
007FFE
007FFE
00FF00
00FF00
01FF00
01DF00
03DFFC
079FFC
071FFC
0F1F00
0FFF00
1FFF00
1FFF00
3C1F00
381FFF
701FFF
F01FFF
ENDCHAR
STARTCHAR uni01E3
ENCODING 483
SWIDTH 913 0
DWIDTH 23 0
BBX 21 17 1 0
BITMAP
01FE00
01FE00
01FE00
000000
1F8FC0
7FDFE0
7FFFF0
40F9F0
00F8F8
1FFFF8
7FFFF8
FFFFF8
F8F800
F8F808
FFFFF8
7F3FF8
3E0FF0
ENDCHAR
STARTCHAR uni01E4
ENCODING 484
SWIDTH 759 0
DWIDTH 19 0
BBX 16 18 1 0
BITMAP
03FF
0FFF
1FFF
3F03
7E00
7C00
F800
F800
F800
F81F
F81F
F81F
7C1F
7C1F
3F1F
3FFF
0FFF
03FE
ENDCHAR
STARTCHAR uni01E5
ENCODING 485
SWIDTH 696 0
DWIDTH 17 0
BBX 14 18 1 -5
BITMAP
1F3C
3FFC
7FFC
7CFC
F87C
F87C
F87C
F87C
F87C
FCFC
7FFC
FFFC
FFFC
FFFC
20FC
7FF8
7FF0
1FC0
ENDCHAR
STARTCHAR Gcaron
ENCODING 486
SWIDTH 759 0
DWIDTH 19 0
BBX 16 22 1 0
BITMAP
0E38
07F0
03E0
0000
03FF
0FFF
1FFF
3F03
7E00
7C00
F800
F800
F800
F81F
F81F
F81F
7C1F
7C1F
3F1F
3FFF
0FFF
03FE
ENDCHAR
STARTCHAR gcaron
ENCODING 487
SWIDTH 696 0
DWIDTH 17 0
BBX 14 22 1 -5
BITMAP
1C70
0FE0
07C0
0000
1F3C
3FFC
7FFC
7CFC
F87C
F87C
F87C
F87C
F87C
FCFC
7FFC
7F7C
1E7C
007C
20FC
7FF8
7FF0
1FC0
ENDCHAR
STARTCHAR uni01E8
ENCODING 488
SWIDTH 753 0
DWIDTH 19 0
BBX 16 22 2 0
BITMAP
38E0
1FC0
0F80
0000
F81E
F83C
F878
F870
F8F0
F9E0
FBC0
FBC0
FFC0
FFE0
FFE0
FBF0
F9F8
F9F8
F8FC
F87E
F87E
F83F
ENDCHAR
STARTCHAR uni01E9
ENCODING 489
SWIDTH 681 0
DWIDTH 17 0
BBX 14 23 2 0
BITMAP
E380
7F00
3E00
0000
F800
F800
F800
F800
F800
F800
F878
F8F0
F8E0
F9C0
FBC0
FBC0
FFC0
FFE0
FBF0
FBF0
F9F8
F8F8
F8FC
ENDCHAR
STARTCHAR uni01EA
ENCODING 490
SWIDTH 855 0
DWIDTH 21 0
BBX 20 22 1 -4
BITMAP
03FC00
0FFF00
1FFF80
3F0FC0
7E07E0
7C03E0
F801F0
F801F0
F801F0
F801F0
F801F0
F801F0
7C03E0
7E07E0
3F0FC0
1FFF80
0FFF00
03FC00
000000
007000
00E000
007800
ENDCHAR
STARTCHAR uni01EB
ENCODING 491
SWIDTH 675 0
DWIDTH 17 0
BBX 15 17 1 -4
BITMAP
0FE0
3FF8
7FFC
7C7C
F83E
F83E
F83E
F83E
F83E
7C7C
7FFC
3FF8
0FE0
0000
0380
0700
03C0
ENDCHAR
STARTCHAR uni01EC
ENCODING 492
SWIDTH 855 0
DWIDTH 21 0
BBX 20 26 1 -4
BITMAP
03FC00
03FC00
03FC00
000000
03FC00
0FFF00
1FFF80
3F0FC0
7E07E0
7C03E0
F801F0
F801F0
F801F0
F801F0
F801F0
F801F0
7C03E0
7E07E0
3F0FC0
1FFF80
0FFF00
03FC00
000000
007000
00E000
007800
ENDCHAR
STARTCHAR uni01ED
ENCODING 493
SWIDTH 675 0
DWIDTH 17 0
BBX 15 21 1 -4
BITMAP
0FF0
0FF0
0FF0
0000
0FE0
3FF8
7FFC
7C7C
F83E
F83E
F83E
F83E
F83E
7C7C
7FFC
3FF8
0FE0
0000
0380
0700
03C0
ENDCHAR
STARTCHAR uni01F0
ENCODING 496
SWIDTH 361 0
DWIDTH 9 0
BBX 11 22 -2 -5
BITMAP
38E0
1FC0
0F80
0000
07C0
07C0
07C0
07C0
07C0
07C0
07C0
07C0
07C0
07C0
07C0
07C0
07C0
07C0
07C0
FFC0
FF80
FE00
ENDCHAR
STARTCHAR uni01F4
ENCODING 500
SWIDTH 759 0
DWIDTH 19 0
BBX 16 22 1 0
BITMAP
0078
00E0
01C0
0000
03FF
0FFF
1FFF
3F03
7E00
7C00
F800
F800
F800
F81F
F81F
F81F
7C1F
7C1F
3F1F
3FFF
0FFF
03FE
ENDCHAR
STARTCHAR uni01F5
ENCODING 501
SWIDTH 696 0
DWIDTH 17 0
BBX 14 22 1 -5
BITMAP
01E0
0380
0700
0000
1F3C
3FFC
7FFC
7CFC
F87C
F87C
F87C
F87C
F87C
FCFC
7FFC
7F7C
1E7C
007C
20FC
7FF8
7FF0
1FC0
ENDCHAR
STARTCHAR uni01F8
ENCODING 504
SWIDTH 783 0
DWIDTH 20 0
BBX 15 22 2 0
BITMAP
1E00
0700
0380
0000
F00E
F80E
FC0E
FE0E
FE0E
FF0E
FF8E
FF8E
EFCE
E7EE
E3FE
E3FE
E1FE
E0FE
E0FE
E07E
E03E
E01E
ENDCHAR
STARTCHAR uni01F9
ENCODING 505
SWIDTH 693 0
DWIDTH 17 0
BBX 13 17 2 0
BITMAP
3C00
0E00
0700
0000
F9E0
FBF0
FFF8
FFF8
FCF8
F8F8
F8F8
F8F8
F8F8
F8F8
F8F8
F8F8
F8F8
ENDCHAR
STARTCHAR Aringacute
ENCODING 506
SWIDTH 773 0
DWIDTH 19 0
BBX 19 27 0 0
BITMAP
003C00
007000
00E000
000000
006000
009000
009000
006000
000000
01F000
03F800
03F800
03FC00
07FC00
077C00
0F7E00
0E3E00
0E3F00
1C1F00
1FFF00
1FFF80
3FFF80
380FC0
7807C0
7007C0
7003E0
E003E0
ENDCHAR
STARTCHAR aringacute
ENCODING 507
SWIDTH 623 0
DWIDTH 16 0
BBX 14 22 1 0
BITMAP
01E0
0380
0700
0000
0300
0480
0480
0300
0000
1FC0
7FF0
7FF8
41F8
00F8
1FF8
7FF8
FFF8
F8F8
F8F8
FFFC
7FFC
3E7C
ENDCHAR
STARTCHAR AEacute
ENCODING 508
SWIDTH 997 0
DWIDTH 25 0
BBX 24 22 0 0
BITMAP
0003C0
000700
000E00
000000
003FFE
007FFE
007FFE
00FF00
00FF00
01FF00
01DF00
03DFFC
079FFC
071FFC
0F1F00
0FFF00
1FFF00
1FFF00
3C1F00
381FFF
701FFF
F01FFF
ENDCHAR
STARTCHAR aeacute
ENCODING 509
SWIDTH 913 0
DWIDTH 23 0
BBX 21 17 1 0
BITMAP
001E00
003800
007000
000000
1F8FC0
7FDFE0
7FFFF0
40F9F0
00F8F8
1FFFF8
7FFFF8
FFFFF8
F8F800
F8F808
FFFFF8
7F3FF8
3E0FF0
ENDCHAR
STARTCHAR Oslashacute
ENCODING 510
SWIDTH 855 0
DWIDTH 21 0
BBX 20 22 1 0
BITMAP
001E00
003800
007000
000000
03FCF0
0FFFE0
1FFFC0
3F0FC0
7E0FE0
7C1FE0
F83DF0
F879F0
F8F1F0
F8F1F0
F9E1F0
FBC1F0
7F83E0
7F07E0
3F0FC0
3FFF80
7FFF00
F3FC00
ENDCHAR
STARTCHAR oslashacute
ENCODING 511
SWIDTH 675 0
DWIDTH 17 0
BBX 15 17 1 0
BITMAP
00F0
01C0
0380
0000
0FFE
3FFC
7FFC
7CFC
F9FE
FBFE
FFBE
FFBE
FF3E
7E7C
7FFC
7FF8
FFE0
ENDCHAR
STARTCHAR uni0200
ENCODING 512
SWIDTH 773 0
DWIDTH 19 0
BBX 19 22 0 0
BITMAP
0EE000
037000
01B800
000000
01F000
03F800
03F800
03FC00
07FC00
077C00
0F7E00
0E3E00
0E3F00
1C1F00
1FFF00
1FFF80
3FFF80
380FC0
7807C0
7007C0
7003E0
E003E0
ENDCHAR
STARTCHAR uni0201
ENCODING 513
SWIDTH 623 0
DWIDTH 16 0
BBX 14 17 1 0
BITMAP
7700
1B80
0DC0
0000
1FC0
7FF0
7FF8
41F8
00F8
1FF8
7FF8
FFF8
F8F8
F8F8
FFFC
7FFC
3E7C
ENDCHAR
STARTCHAR uni0202
ENCODING 514
SWIDTH 773 0
DWIDTH 19 0
BBX 19 22 0 0
BITMAP
01F000
03F800
071C00
000000
01F000
03F800
03F800
03FC00
07FC00
077C00
0F7E00
0E3E00
0E3F00
1C1F00
1FFF00
1FFF80
3FFF80
380FC0
7807C0
7007C0
7003E0
E003E0
ENDCHAR
STARTCHAR uni0203
ENCODING 515
SWIDTH 623 0
DWIDTH 16 0
BBX 14 17 1 0
BITMAP
07C0
0FE0
1C70
0000
1FC0
7FF0
7FF8
41F8
00F8
1FF8
7FF8
FFF8
F8F8
F8F8
FFFC
7FFC
3E7C
ENDCHAR
STARTCHAR uni0204
ENCODING 516
SWIDTH 645 0
DWIDTH 16 0
BBX 13 22 2 0
BITMAP
EE00
3700
1B80
0000
FFF0
FFF0
FFF0
F800
F800
F800
F800
FFE0
FFE0
FFE0
F800
F800
F800
F800
F800
FFF8
FFF8
FFF8
ENDCHAR
STARTCHAR uni0205
ENCODING 517
SWIDTH 614 0
DWIDTH 15 0
BBX 13 17 1 0
BITMAP
7700
1B80
0DC0
0000
0FC0
3FE0
7FF0
78F0
F8F8
FFF8
FFF8
FFF8
F800
7C08
7FF8
3FF8
0FF0
ENDCHAR
STARTCHAR uni0206
ENCODING 518
SWIDTH 645 0
DWIDTH 16 0
BBX 13 22 2 0
BITMAP
1F00
3F80
71C0
0000
FFF0
FFF0
FFF0
F800
F800
F800
F800
FFE0
FFE0
FFE0
F800
F800
F800
F800
F800
FFF8
FFF8
FFF8
ENDCHAR
STARTCHAR uni0207
ENCODING 519
SWIDTH 614 0
DWIDTH 15 0
BBX 13 17 1 0
BITMAP
0F80
1FC0
38E0
0000
0FC0
3FE0
7FF0
78F0
F8F8
FFF8
FFF8
FFF8
F800
7C08
7FF8
3FF8
0FF0
ENDCHAR
STARTCHAR uni0208
ENCODING 520
SWIDTH 361 0
DWIDTH 9 0
BBX 9 22 -1 0
BITMAP
EE00
3700
1B80
0000
1F00
1F00
1F00
1F00
1F00
1F00
1F00
1F00
1F00
1F00
1F00
1F00
1F00
1F00
1F00
1F00
1F00
1F00
ENDCHAR
STARTCHAR uni0209
ENCODING 521
SWIDTH 361 0
DWIDTH 9 0
BBX 9 17 -1 0
BITMAP
EE00
3700
1B80
0000
1F00
1F00
1F00
1F00
1F00
1F00
1F00
1F00
1F00
1F00
1F00
1F00
1F00
ENDCHAR
STARTCHAR uni020A
ENCODING 522
SWIDTH 361 0
DWIDTH 9 0
BBX 9 22 0 0
BITMAP
3E00
7F00
E380
0000
3E00
3E00
3E00
3E00
3E00
3E00
3E00
3E00
3E00
3E00
3E00
3E00
3E00
3E00
3E00
3E00
3E00
3E00
ENDCHAR
STARTCHAR uni020B
ENCODING 523
SWIDTH 361 0
DWIDTH 9 0
BBX 9 17 0 0
BITMAP
3E00
7F00
E380
0000
3E00
3E00
3E00
3E00
3E00
3E00
3E00
3E00
3E00
3E00
3E00
3E00
3E00
ENDCHAR
STARTCHAR uni020C
ENCODING 524
SWIDTH 855 0
DWIDTH 21 0
BBX 20 22 1 0
BITMAP
0EE000
037000
01B800
000000
03FC00
0FFF00
1FFF80
3F0FC0
7E07E0
7C03E0
F801F0
F801F0
F801F0
F801F0
F801F0
F801F0
7C03E0
7E07E0
3F0FC0
1FFF80
0FFF00
03FC00
ENDCHAR
STARTCHAR uni020D
ENCODING 525
SWIDTH 675 0
DWIDTH 17 0
BBX 15 17 1 0
BITMAP
3B80
0DC0
06E0
0000
0FE0
3FF8
7FFC
7C7C
F83E
F83E
F83E
F83E
F83E
7C7C
7FFC
3FF8
0FE0
ENDCHAR
STARTCHAR uni020E
ENCODING 526
SWIDTH 855 0
DWIDTH 21 0
BBX 20 22 1 0
BITMAP
00F800
01FC00
038E00
000000
03FC00
0FFF00
1FFF80
3F0FC0
7E07E0
7C03E0
F801F0
F801F0
F801F0
F801F0
F801F0
F801F0
7C03E0
7E07E0
3F0FC0
1FFF80
0FFF00
03FC00
ENDCHAR
STARTCHAR uni020F
ENCODING 527
SWIDTH 675 0
DWIDTH 17 0
BBX 15 17 1 0
BITMAP
07C0
0FE0
1C70
0000
0FE0
3FF8
7FFC
7C7C
F83E
F83E
F83E
F83E
F83E
7C7C
7FFC
3FF8
0FE0
ENDCHAR
STARTCHAR uni0210
ENCODING 528
SWIDTH 734 0
DWIDTH 18 0
BBX 16 22 2 0
BITMAP
3B80
0DC0
06E0
0000
FFE0
FFF8
FFFC
F8FC
F87C
F87C
F87C
F8F8
FFF0
FFE0
FFE0
F9F0
F9F8
F8F8
F8FC
F87E
F87E
F83F
ENDCHAR
STARTCHAR uni0211
ENCODING 529
SWIDTH 500 0
DWIDTH 12 0
BBX 11 17 1 0
BITMAP
EE00
3700
1B80
0000
7CE0
7DE0
7FE0
7FE0
7E00
7C00
7C00
7C00
7C00
7C00
7C00
7C00
7C00
ENDCHAR
STARTCHAR uni0212
ENCODING 530
SWIDTH 734 0
DWIDTH 18 0
BBX 16 22 2 0
BITMAP
07C0
0FE0
1C70
0000
FFE0
FFF8
FFFC
F8FC
F87C
F87C
F87C
F8F8
FFF0
FFE0
FFE0
F9F0
F9F8
F8F8
F8FC
F87E
F87E
F83F
ENDCHAR
STARTCHAR uni0213
ENCODING 531
SWIDTH 500 0
DWIDTH 12 0
BBX 10 17 2 0
BITMAP
3E00
7F00
E380
0000
F9C0
FBC0
FFC0
FFC0
FC00
F800
F800
F800
F800
F800
F800
F800
F800
ENDCHAR
STARTCHAR uni0214
ENCODING 532
SWIDTH 783 0
DWIDTH 20 0
BBX 15 22 2 0
BITMAP
3B80
0DC0
06E0
0000
F83E
F83E
F83E
F83E
F83E
F83E
F83E
F83E
F83E
F83E
F83E
F83E
F83E
F83E
7C7C
7FFC
3FF8
0FE0
ENDCHAR
STARTCHAR uni0215
ENCODING 533
SWIDTH 693 0
DWIDTH 17 0
BBX 13 17 2 0
BITMAP
7700
1B80
0DC0
0000
F8F8
F8F8
F8F8
F8F8
F8F8
F8F8
F8F8
F8F8
F8F8
F9F8
FFF8
7EF8
3CF8
ENDCHAR
STARTCHAR uni0216
ENCODING 534
SWIDTH 783 0
DWIDTH 20 0
BBX 15 22 2 0
BITMAP
07C0
0FE0
1C70
0000
F83E
F83E
F83E
F83E
F83E
F83E
F83E
F83E
F83E
F83E
F83E
F83E
F83E
F83E
7C7C
7FFC
3FF8
0FE0
ENDCHAR
STARTCHAR uni0217
ENCODING 535
SWIDTH 693 0
DWIDTH 17 0
BBX 13 17 2 0
BITMAP
0F80
1FC0
38E0
0000
F8F8
F8F8
F8F8
F8F8
F8F8
F8F8
F8F8
F8F8
F8F8
F9F8
FFF8
7EF8
3CF8
ENDCHAR
STARTCHAR Scommaaccent
ENCODING 536
SWIDTH 594 0
DWIDTH 15 0
BBX 13 28 1 -10
BITMAP
1FF0
7FF0
7FF0
F830
F800
FC00
FF00
7F80
7FE0
1FF0
0FF8
03F8
00F8
00F8
C1F8
FFF0
FFE0
FF80
0000
0F80
0F80
0F80
0F80
0F80
0380
0700
0F00
0C00
ENDCHAR
STARTCHAR scommaaccent
ENCODING 537
SWIDTH 622 0
DWIDTH 16 0
BBX 12 23 2 -10
BITMAP
3FC0
7FE0
FFE0
F820
F800
FF00
3FC0
0FF0
01F0
C1F0
FFF0
FFE0
7F80
0000
1F00
1F00
1F00
1F00
1F00
0700
0E00
1E00
1800
ENDCHAR
STARTCHAR Tcommaaccent
ENCODING 538
SWIDTH 735 0
DWIDTH 18 0
BBX 19 28 0 -10
BITMAP
FFFFE0
FFFFE0
FFFFE0
01F000
01F000
01F000
01F000
01F000
01F000
01F000
01F000
01F000
01F000
01F000
01F000
01F000
01F000
01F000
000000
01F000
01F000
01F000
01F000
01F000
007000
00E000
01E000
018000
ENDCHAR
STARTCHAR tcommaaccent
ENCODING 539
SWIDTH 436 0
DWIDTH 11 0
BBX 9 27 1 -10
BITMAP
1C00
7C00
7C00
7C00
FF80
FF80
FF80
7C00
7C00
7C00
7C00
7C00
7C00
7C00
7F80
3F80
1F80
0000
3E00
3E00
3E00
3E00
3E00
0E00
1C00
3C00
3000
ENDCHAR
STARTCHAR uni021E
ENCODING 542
SWIDTH 813 0
DWIDTH 20 0
BBX 16 22 2 0
BITMAP
0E38
07F0
03E0
0000
F81F
F81F
F81F
F81F
F81F
F81F
F81F
FFFF
FFFF
FFFF
F81F
F81F
F81F
F81F
F81F
F81F
F81F
F81F
ENDCHAR
STARTCHAR uni021F
ENCODING 543
SWIDTH 693 0
DWIDTH 17 0
BBX 14 23 1 0
BITMAP
E380
7F00
3E00
0000
7C00
7C00
7C00
7C00
7C00
7C00
7CF0
7DF8
7FFC
7FFC
7E7C
7C7C
7C7C
7C7C
7C7C
7C7C
7C7C
7C7C
7C7C
ENDCHAR
STARTCHAR uni0226
ENCODING 550
SWIDTH 773 0
DWIDTH 19 0
BBX 19 22 0 0
BITMAP
00F000
00F000
00F000
000000
01F000
03F800
03F800
03FC00
07FC00
077C00
0F7E00
0E3E00
0E3F00
1C1F00
1FFF00
1FFF80
3FFF80
380FC0
7807C0
7007C0
7003E0
E003E0
ENDCHAR
STARTCHAR uni0227
ENCODING 551
SWIDTH 623 0
DWIDTH 16 0
BBX 14 17 1 0
BITMAP
0780
0780
0780
0000
1FC0
7FF0
7FF8
41F8
00F8
1FF8
7FF8
FFF8
F8F8
F8F8
FFFC
7FFC
3E7C
ENDCHAR
STARTCHAR uni0228
ENCODING 552
SWIDTH 645 0
DWIDTH 16 0
BBX 13 23 2 -5
BITMAP
FFF0
FFF0
FFF0
F800
F800
F800
F800
FFE0
FFE0
FFE0
F800
F800
F800
F800
F800
FFF8
FFF8
FFF8
0600
0C00
0700
1F00
1E00
ENDCHAR
STARTCHAR uni0229
ENCODING 553
SWIDTH 614 0
DWIDTH 15 0
BBX 13 18 1 -5
BITMAP
0FC0
3FE0
7FF0
78F0
F8F8
FFF8
FFF8
FFF8
F800
7C08
7FF8
3FF8
0FF0
0300
0600
0380
0F80
0F00
ENDCHAR
STARTCHAR uni022A
ENCODING 554
SWIDTH 855 0
DWIDTH 21 0
BBX 20 26 1 0
BITMAP
03FC00
03FC00
03FC00
000000
039C00
039C00
039C00
000000
03FC00
0FFF00
1FFF80
3F0FC0
7E07E0
7C03E0
F801F0
F801F0
F801F0
F801F0
F801F0
F801F0
7C03E0
7E07E0
3F0FC0
1FFF80
0FFF00
03FC00
ENDCHAR
STARTCHAR uni022B
ENCODING 555
SWIDTH 675 0
DWIDTH 17 0
BBX 15 21 1 0
BITMAP
0FF0
0FF0
0FF0
0000
0E70
0E70
0E70
0000
0FE0
3FF8
7FFC
7C7C
F83E
F83E
F83E
F83E
F83E
7C7C
7FFC
3FF8
0FE0
ENDCHAR
STARTCHAR uni022C
ENCODING 556
SWIDTH 855 0
DWIDTH 21 0
BBX 20 26 1 0
BITMAP
03FC00
03FC00
03FC00
000000
01EE00
03FE00
03BC00
000000
03FC00
0FFF00
1FFF80
3F0FC0
7E07E0
7C03E0
F801F0
F801F0
F801F0
F801F0
F801F0
F801F0
7C03E0
7E07E0
3F0FC0
1FFF80
0FFF00
03FC00
ENDCHAR
STARTCHAR uni022D
ENCODING 557
SWIDTH 675 0
DWIDTH 17 0
BBX 15 21 1 0
BITMAP
0FF0
0FF0
0FF0
0000
0F70
1FF0
1DE0
0000
0FE0
3FF8
7FFC
7C7C
F83E
F83E
F83E
F83E
F83E
7C7C
7FFC
3FF8
0FE0
ENDCHAR
STARTCHAR uni022E
ENCODING 558
SWIDTH 855 0
DWIDTH 21 0
BBX 20 22 1 0
BITMAP
00F000
00F000
00F000
000000
03FC00
0FFF00
1FFF80
3F0FC0
7E07E0
7C03E0
F801F0
F801F0
F801F0
F801F0
F801F0
F801F0
7C03E0
7E07E0
3F0FC0
1FFF80
0FFF00
03FC00
ENDCHAR
STARTCHAR uni022F
ENCODING 559
SWIDTH 675 0
DWIDTH 17 0
BBX 15 17 1 0
BITMAP
03C0
03C0
03C0
0000
0FE0
3FF8
7FFC
7C7C
F83E
F83E
F83E
F83E
F83E
7C7C
7FFC
3FF8
0FE0
ENDCHAR
STARTCHAR uni0230
ENCODING 560
SWIDTH 855 0
DWIDTH 21 0
BBX 20 26 1 0
BITMAP
03FC00
03FC00
03FC00
000000
00F000
00F000
00F000
000000
03FC00
0FFF00
1FFF80
3F0FC0
7E07E0
7C03E0
F801F0
F801F0
F801F0
F801F0
F801F0
F801F0
7C03E0
7E07E0
3F0FC0
1FFF80
0FFF00
03FC00
ENDCHAR
STARTCHAR uni0231
ENCODING 561
SWIDTH 675 0
DWIDTH 17 0
BBX 15 21 1 0
BITMAP
0FF0
0FF0
0FF0
0000
03C0
03C0
03C0
0000
0FE0
3FF8
7FFC
7C7C
F83E
F83E
F83E
F83E
F83E
7C7C
7FFC
3FF8
0FE0
ENDCHAR
STARTCHAR uni0232
ENCODING 562
SWIDTH 738 0
DWIDTH 18 0
BBX 17 22 1 0
BITMAP
0FF000
0FF000
0FF000
000000
FC0780
7C0700
7E0F00
3F0E00
3F1C00
1FBC00
1FB800
0FF800
07F000
07F000
03E000
03E000
03E000
03E000
03E000
03E000
03E000
03E000
ENDCHAR
STARTCHAR uni0233
ENCODING 563
SWIDTH 645 0
DWIDTH 16 0
BBX 15 22 1 -5
BITMAP
1FE0
1FE0
1FE0
0000
F81E
FC1C
7C3C
7E38
3E38
3E70
3F70
1FE0
1FE0
0FE0
0FC0
0FC0
0780
0780
0F00
0F00
1E00
3E00
ENDCHAR
STARTCHAR uni0250
ENCODING 592
SWIDTH 623 0
DWIDTH 16 0
BBX 14 13 1 0
BITMAP
F9F0
FFF8
FFFC
7C7C
7C7C
7FFC
7FF8
7FE0
7C00
7E08
7FF8
3FF8
0FE0
ENDCHAR
STARTCHAR uni0254
ENCODING 596
SWIDTH 545 0
DWIDTH 14 0
BBX 12 13 1 0
BITMAP
7F00
FFC0
FFE0
87E0
03F0
01F0
01F0
01F0
03F0
87E0
FFE0
FFC0
FF00
ENDCHAR
STARTCHAR uni0258
ENCODING 600
SWIDTH 614 0
DWIDTH 15 0
BBX 13 13 1 0
BITMAP
1F80
3FE0
7FF0
78F0
F8F8
FFF8
FFF8
FFF8
00F8
81F0
FFF0
FFE0
7F80
ENDCHAR
STARTCHAR uni0259
ENCODING 601
SWIDTH 614 0
DWIDTH 15 0
BBX 13 13 1 0
BITMAP
7F80
FFE0
FFF0
81F0
00F8
FFF8
FFF8
FFF8
F8F8
78F0
7FF0
3FE0
1F80
ENDCHAR
STARTCHAR uni025F
ENCODING 607
SWIDTH 461 0
DWIDTH 12 0
BBX 12 19 0 -6
BITMAP
07C0
07C0
07C0
07C0
07C0
07C0
07C0
07C0
07C0
07C0
7FF0
7FF0
7FF0
07C0
07C0
07C0
FF80
FF80
FE00
ENDCHAR
STARTCHAR uni0265
ENCODING 613
SWIDTH 693 0
DWIDTH 17 0
BBX 13 19 2 -6
BITMAP
F8F8
F8F8
F8F8
F8F8
F8F8
F8F8
F8F8
F8F8
F9F8
FFF8
FFF8
7EF8
3CF8
00F8
00F8
00F8
00F8
00F8
00F8
ENDCHAR
STARTCHAR uni0275
ENCODING 629
SWIDTH 675 0
DWIDTH 17 0
BBX 15 13 1 0
BITMAP
0FE0
3FF8
7FFC
7C7C
F83E
FFFE
FFFE
FFFE
F83E
7C7C
7FFC
3FF8
0FE0
ENDCHAR
STARTCHAR uni0279
ENCODING 633
SWIDTH 500 0
DWIDTH 12 0
BBX 10 13 2 0
BITMAP
07C0
07C0
07C0
07C0
07C0
07C0
07C0
07C0
0FC0
FFC0
FFC0
F7C0
E7C0
ENDCHAR
STARTCHAR uni0287
ENCODING 647
SWIDTH 436 0
DWIDTH 11 0
BBX 9 17 1 0
BITMAP
FC00
FE00
FF00
1F00
1F00
1F00
1F00
1F00
1F00
1F00
FF80
FF80
FF80
1F00
1F00
1F00
1C00
ENDCHAR
STARTCHAR uni0288
ENCODING 648
SWIDTH 436 0
DWIDTH 11 0
BBX 11 22 1 -5
BITMAP
1C00
7C00
7C00
7C00
FF80
FF80
FF80
7C00
7C00
7C00
7C00
7C00
7C00
7C00
7C00
7C00
7C00
7C00
7C00
7FE0
3FE0
0FE0
ENDCHAR
STARTCHAR uni0289
ENCODING 649
SWIDTH 693 0
DWIDTH 17 0
BBX 13 13 2 0
BITMAP
F8F8
F8F8
F8F8
F8F8
F8F8
FFF8
FFF8
FFF8
F8F8
F9F8
FFF8
7EF8
3CF8
ENDCHAR
STARTCHAR uni028C
ENCODING 652
SWIDTH 663 0
DWIDTH 17 0
BBX 15 13 1 0
BITMAP
07C0
0FE0
0FE0
0FE0
1FF0
1DF0
3DF8
38F8
38F8
78FC
707C
707E
E03E
ENDCHAR
STARTCHAR uni028D
ENCODING 653
SWIDTH 885 0
DWIDTH 22 0
BBX 21 13 1 0
BITMAP
0F87C0
1F8FC0
1F8FC0
1F8FC0
1FCFE0
3BDDE0
3BDDE0
3BDDE0
71F8F0
71F8F0
71F8F0
71F8F0
E0F078
ENDCHAR
STARTCHAR uni028E
ENCODING 654
SWIDTH 645 0
DWIDTH 16 0
BBX 15 18 1 0
BITMAP
00F8
00F0
01E0
01E0
03C0
03C0
07E0
07E0
0FE0
0FF0
0FF0
1DF8
1CF8
38F8
38FC
787C
707E
F03E
ENDCHAR
STARTCHAR uni029E
ENCODING 670
SWIDTH 681 0
DWIDTH 17 0
BBX 14 19 2 -6
BITMAP
FC7C
7C7C
7E7C
3F7C
3F7C
1FFC
0FFC
0F7C
0F7C
0E7C
1C7C
3C7C
787C
007C
007C
007C
007C
007C
007C
ENDCHAR
STARTCHAR uni02BB
ENCODING 699
SWIDTH 265 0
DWIDTH 7 0
BBX 5 9 1 10
BITMAP
18
78
60
E0
F8
F8
F8
F8
F8
ENDCHAR
STARTCHAR afii57929
ENCODING 700
SWIDTH 265 0
DWIDTH 7 0
BBX 5 9 1 10
BITMAP
F8
F8
F8
F8
F8
38
30
F0
C0
ENDCHAR
STARTCHAR afii64937
ENCODING 701
SWIDTH 265 0
DWIDTH 7 0
BBX 5 9 1 10
BITMAP
F8
F8
F8
F8
F8
E0
60
78
18
ENDCHAR
STARTCHAR circumflex
ENCODING 710
SWIDTH 675 0
DWIDTH 17 0
BBX 9 3 4 16
BITMAP
3E00
7F00
E380
ENDCHAR
STARTCHAR caron
ENCODING 711
SWIDTH 675 0
DWIDTH 17 0
BBX 9 3 4 16
BITMAP
E380
7F00
3E00
ENDCHAR
STARTCHAR uni02C8
ENCODING 712
SWIDTH 265 0
DWIDTH 7 0
BBX 5 9 1 10
BITMAP
F8
F8
F8
F8
F8
70
70
70
70
ENDCHAR
STARTCHAR macron
ENCODING 713
SWIDTH 675 0
DWIDTH 17 0
BBX 8 3 4 15
BITMAP
FF
FF
FF
ENDCHAR
STARTCHAR uni02CA
ENCODING 714
SWIDTH 675 0
DWIDTH 17 0
BBX 6 3 6 16
BITMAP
3C
70
E0
ENDCHAR
STARTCHAR uni02CB
ENCODING 715
SWIDTH 675 0
DWIDTH 17 0
BBX 6 3 5 16
BITMAP
F0
38
1C
ENDCHAR
STARTCHAR uni02CD
ENCODING 717
SWIDTH 675 0
DWIDTH 17 0
BBX 8 3 4 -4
BITMAP
FF
FF
FF
ENDCHAR
STARTCHAR uni02CE
ENCODING 718
SWIDTH 675 0
DWIDTH 17 0
BBX 6 3 5 -4
BITMAP
F0
38
1C
ENDCHAR
STARTCHAR uni02CF
ENCODING 719
SWIDTH 675 0
DWIDTH 17 0
BBX 6 3 6 -4
BITMAP
3C
70
E0
ENDCHAR
STARTCHAR breve
ENCODING 728
SWIDTH 675 0
DWIDTH 17 0
BBX 9 3 4 16
BITMAP
E380
7F00
3E00
ENDCHAR
STARTCHAR dotaccent
ENCODING 729
SWIDTH 675 0
DWIDTH 17 0
BBX 4 3 6 16
BITMAP
F0
F0
F0
ENDCHAR
STARTCHAR ring
ENCODING 730
SWIDTH 675 0
DWIDTH 17 0
BBX 4 4 6 15
BITMAP
60
90
90
60
ENDCHAR
STARTCHAR ogonek
ENCODING 731
SWIDTH 675 0
DWIDTH 17 0
BBX 5 3 6 -4
BITMAP
70
E0
78
ENDCHAR
STARTCHAR tilde
ENCODING 732
SWIDTH 675 0
DWIDTH 17 0
BBX 9 3 4 16
BITMAP
7B80
FF80
EF00
ENDCHAR
STARTCHAR hungarumlaut
ENCODING 733
SWIDTH 675 0
DWIDTH 17 0
BBX 9 3 5 16
BITMAP
3B80
7600
EC00
ENDCHAR
STARTCHAR uni02EE
ENCODING 750
SWIDTH 530 0
DWIDTH 13 0
BBX 11 9 1 10
BITMAP
FBE0
FBE0
FBE0
FBE0
FBE0
38E0
70C0
F3C0
C300
ENDCHAR
STARTCHAR uni037E
ENCODING 894
SWIDTH 343 0
DWIDTH 9 0
BBX 5 17 2 -4
BITMAP
F8
F8
F8
F8
F8
00
00
00
F8
F8
F8
F8
F8
38
70
F0
C0
ENDCHAR
STARTCHAR tonos
ENCODING 900
SWIDTH 675 0
DWIDTH 17 0
BBX 6 3 6 16
BITMAP
3C
70
E0
ENDCHAR
STARTCHAR dieresistonos
ENCODING 901
SWIDTH 675 0
DWIDTH 17 0
BBX 8 7 4 15
BITMAP
0F
1C
38
00
E7
E7
E7
ENDCHAR
STARTCHAR anoteleia
ENCODING 903
SWIDTH 343 0
DWIDTH 17 0
BBX 4 3 7 6
BITMAP
F0
F0
F0
ENDCHAR
STARTCHAR mu
ENCODING 956
SWIDTH 699 0
DWIDTH 17 0
BBX 13 17 2 -4
BITMAP
F8F8
F8F8
F8F8
F8F8
F8F8
F8F8
F8F8
F8F8
F8F8
F9F8
FFF8
FFF8
FEF8
F800
F800
F800
F800
ENDCHAR
STARTCHAR uni1E00
ENCODING 7680
SWIDTH 773 0
DWIDTH 19 0
BBX 19 23 0 -5
BITMAP
01F000
03F800
03F800
03FC00
07FC00
077C00
0F7E00
0E3E00
0E3F00
1C1F00
1FFF00
1FFF80
3FFF80
380FC0
7807C0
7007C0
7003E0
E003E0
000000
006000
009000
009000
006000
ENDCHAR
STARTCHAR uni1E01
ENCODING 7681
SWIDTH 623 0
DWIDTH 16 0
BBX 14 18 1 -5
BITMAP
1FC0
7FF0
7FF8
41F8
00F8
1FF8
7FF8
FFF8
F8F8
F8F8
FFFC
7FFC
3E7C
0000
0300
0480
0480
0300
ENDCHAR
STARTCHAR uni1E02
ENCODING 7682
SWIDTH 669 0
DWIDTH 17 0
BBX 14 22 2 0
BITMAP
0F00
0F00
0F00
0000
FFE0
FFF0
FFF8
F8F8
F8F8
F8F8
F9F0
FFE0
FF80
FFF0
F8F8
F87C
F87C
F87C
F87C
FFFC
FFF8
FFE0
ENDCHAR
STARTCHAR uni1E03
ENCODING 7683
SWIDTH 696 0
DWIDTH 17 0
BBX 14 23 2 0
BITMAP
3C00
3C00
3C00
0000
F800
F800
F800
F800
F800
F800
F9E0
FBF8
FFF8
FCFC
F87C
F87C
F87C
F87C
F87C
FCF8
FFF8
FFF0
F3E0
ENDCHAR
STARTCHAR uni1E04
ENCODING 7684
SWIDTH 669 0
DWIDTH 17 0
BBX 14 22 2 -4
BITMAP
FFE0
FFF0
FFF8
F8F8
F8F8
F8F8
F9F0
FFE0
FF80
FFF0
F8F8
F87C
F87C
F87C
F87C
FFFC
FFF8
FFE0
0000
0780
0780
0780
ENDCHAR
STARTCHAR uni1E05
ENCODING 7685
SWIDTH 696 0
DWIDTH 17 0
BBX 14 23 2 -4
BITMAP
F800
F800
F800
F800
F800
F800
F9E0
FBF8
FFF8
FCFC
F87C
F87C
F87C
F87C
F87C
FCF8
FFF8
FFF0
F3E0
0000
0780
0780
0780
ENDCHAR
STARTCHAR uni1E06
ENCODING 7686
SWIDTH 669 0
DWIDTH 17 0
BBX 14 22 2 -4
BITMAP
FFE0
FFF0
FFF8
F8F8
F8F8
F8F8
F9F0
FFE0
FF80
FFF0
F8F8
F87C
F87C
F87C
F87C
FFFC
FFF8
FFE0
0000
1FE0
1FE0
1FE0
ENDCHAR
STARTCHAR uni1E07
ENCODING 7687
SWIDTH 696 0
DWIDTH 17 0
BBX 14 23 2 -4
BITMAP
F800
F800
F800
F800
F800
F800
F9E0
FBF8
FFF8
FCFC
F87C
F87C
F87C
F87C
F87C
FCF8
FFF8
FFF0
F3E0
0000
1FE0
1FE0
1FE0
ENDCHAR
STARTCHAR uni1E08
ENCODING 7688
SWIDTH 726 0
DWIDTH 18 0
BBX 17 27 1 -5
BITMAP
007800
00E000
01C000
000000
03FF00
0FFF80
1FFF80
3F0180
7E0000
7C0000
F80000
F80000
F80000
F80000
F80000
F80000
7C0000
7E0000
3F8180
1FFF80
0FFF80
03FE00
00C000
018000
00E000
03E000
03C000
ENDCHAR
STARTCHAR uni1E09
ENCODING 7689
SWIDTH 545 0
DWIDTH 14 0
BBX 12 22 1 -5
BITMAP
03C0
0700
0E00
0000
0FE0
3FF0
7FF0
7E10
FC00
F800
F800
F800
FC00
7E10
7FF0
3FF0
0FF0
0300
0600
0380
0F80
0F00
ENDCHAR
STARTCHAR uni1E0A
ENCODING 7690
SWIDTH 819 0
DWIDTH 20 0
BBX 17 22 2 0
BITMAP
03C000
03C000
03C000
000000
FFF000
FFFC00
FFFE00
F87F00
F81F00
F81F80
F80F80
F80F80
F80F80
F80F80
F80F80
F80F80
F80F00
F81F00
F83F00
FFFE00
FFFC00
FFF000
ENDCHAR
STARTCHAR uni1E0B
ENCODING 7691
SWIDTH 696 0
DWIDTH 17 0
BBX 14 23 1 0
BITMAP
00F0
00F0
00F0
0000
007C
007C
007C
007C
007C
007C
1E7C
3FFC
7FFC
FCFC
F87C
F87C
F87C
F87C
F87C
FCFC
7FFC
7F7C
1E7C
ENDCHAR
STARTCHAR uni1E0C
ENCODING 7692
SWIDTH 819 0
DWIDTH 20 0
BBX 17 22 2 -4
BITMAP
FFF000
FFFC00
FFFE00
F87F00
F81F00
F81F80
F80F80
F80F80
F80F80
F80F80
F80F80
F80F80
F80F00
F81F00
F83F00
FFFE00
FFFC00
FFF000
000000
03C000
03C000
03C000
ENDCHAR
STARTCHAR uni1E0D
ENCODING 7693
SWIDTH 696 0
DWIDTH 17 0
BBX 14 23 1 -4
BITMAP
007C
007C
007C
007C
007C
007C
1E7C
3FFC
7FFC
FCFC
F87C
F87C
F87C
F87C
F87C
FCFC
7FFC
7F7C
1E7C
0000
0780
0780
0780
ENDCHAR
STARTCHAR uni1E0E
ENCODING 7694
SWIDTH 819 0
DWIDTH 20 0
BBX 17 22 2 -4
BITMAP
FFF000
FFFC00
FFFE00
F87F00
F81F00
F81F80
F80F80
F80F80
F80F80
F80F80
F80F80
F80F80
F80F00
F81F00
F83F00
FFFE00
FFFC00
FFF000
000000
0FF000
0FF000
0FF000
ENDCHAR
STARTCHAR uni1E0F
ENCODING 7695
SWIDTH 696 0
DWIDTH 17 0
BBX 14 23 1 -4
BITMAP
007C
007C
007C
007C
007C
007C
1E7C
3FFC
7FFC
FCFC
F87C
F87C
F87C
F87C
F87C
FCFC
7FFC
7F7C
1E7C
0000
1FE0
1FE0
1FE0
ENDCHAR
STARTCHAR uni1E10
ENCODING 7696
SWIDTH 819 0
DWIDTH 20 0
BBX 17 23 2 -5
BITMAP
FFF000
FFFC00
FFFE00
F87F00
F81F00
F81F80
F80F80
F80F80
F80F80
F80F80
F80F80
F80F80
F80F00
F81F00
F83F00
FFFE00
FFFC00
FFF000
018000
030000
01C000
07C000
078000
ENDCHAR
STARTCHAR uni1E11
ENCODING 7697
SWIDTH 696 0
DWIDTH 17 0
BBX 14 24 1 -5
BITMAP
007C
007C
007C
007C
007C
007C
1E7C
3FFC
7FFC
FCFC
F87C
F87C
F87C
F87C
F87C
FCFC
7FFC
7F7C
1E7C
0180
0300
01C0
07C0
0780
ENDCHAR
STARTCHAR uni1E12
ENCODING 7698
SWIDTH 819 0
DWIDTH 20 0
BBX 17 22 2 -4
BITMAP
FFF000
FFFC00
FFFE00
F87F00
F81F00
F81F80
F80F80
F80F80
F80F80
F80F80
F80F80
F80F80
F80F00
F81F00
F83F00
FFFE00
FFFC00
FFF000
000000
07C000
0FE000
1C7000
ENDCHAR
STARTCHAR uni1E13
ENCODING 7699
SWIDTH 696 0
DWIDTH 17 0
BBX 14 23 1 -4
BITMAP
007C
007C
007C
007C
007C
007C
1E7C
3FFC
7FFC
FCFC
F87C
F87C
F87C
F87C
F87C
FCFC
7FFC
7F7C
1E7C
0000
07C0
0FE0
1C70
ENDCHAR
STARTCHAR uni1E14
ENCODING 7700
SWIDTH 645 0
DWIDTH 16 0
BBX 13 26 2 0
BITMAP
3C00
0E00
0700
0000
3FC0
3FC0
3FC0
0000
FFF0
FFF0
FFF0
F800
F800
F800
F800
FFE0
FFE0
FFE0
F800
F800
F800
F800
F800
FFF8
FFF8
FFF8
ENDCHAR
STARTCHAR uni1E15
ENCODING 7701
SWIDTH 614 0
DWIDTH 15 0
BBX 13 21 1 0
BITMAP
1E00
0700
0380
0000
1FE0
1FE0
1FE0
0000
0FC0
3FE0
7FF0
78F0
F8F8
FFF8
FFF8
FFF8
F800
7C08
7FF8
3FF8
0FF0
ENDCHAR
STARTCHAR uni1E16
ENCODING 7702
SWIDTH 645 0
DWIDTH 16 0
BBX 13 26 2 0
BITMAP
03C0
0700
0E00
0000
3FC0
3FC0
3FC0
0000
FFF0
FFF0
FFF0
F800
F800
F800
F800
FFE0
FFE0
FFE0
F800
F800
F800
F800
F800
FFF8
FFF8
FFF8
ENDCHAR
STARTCHAR uni1E17
ENCODING 7703
SWIDTH 614 0
DWIDTH 15 0
BBX 13 21 1 0
BITMAP
01E0
0380
0700
0000
1FE0
1FE0
1FE0
0000
0FC0
3FE0
7FF0
78F0
F8F8
FFF8
FFF8
FFF8
F800
7C08
7FF8
3FF8
0FF0
ENDCHAR
STARTCHAR uni1E18
ENCODING 7704
SWIDTH 645 0
DWIDTH 16 0
BBX 13 22 2 -4
BITMAP
FFF0
FFF0
FFF0
F800
F800
F800
F800
FFE0
FFE0
FFE0
F800
F800
F800
F800
F800
FFF8
FFF8
FFF8
0000
1F00
3F80
71C0
ENDCHAR
STARTCHAR uni1E19
ENCODING 7705
SWIDTH 614 0
DWIDTH 15 0
BBX 13 17 1 -4
BITMAP
0FC0
3FE0
7FF0
78F0
F8F8
FFF8
FFF8
FFF8
F800
7C08
7FF8
3FF8
0FF0
0000
0F80
1FC0
38E0
ENDCHAR
STARTCHAR uni1E1A
ENCODING 7706
SWIDTH 645 0
DWIDTH 16 0
BBX 13 22 2 -4
BITMAP
FFF0
FFF0
FFF0
F800
F800
F800
F800
FFE0
FFE0
FFE0
F800
F800
F800
F800
F800
FFF8
FFF8
FFF8
0000
3DC0
7FC0
7780
ENDCHAR
STARTCHAR uni1E1B
ENCODING 7707
SWIDTH 614 0
DWIDTH 15 0
BBX 13 17 1 -4
BITMAP
0FC0
3FE0
7FF0
78F0
F8F8
FFF8
FFF8
FFF8
F800
7C08
7FF8
3FF8
0FF0
0000
1EE0
3FE0
3BC0
ENDCHAR
STARTCHAR uni1E1C
ENCODING 7708
SWIDTH 645 0
DWIDTH 16 0
BBX 13 27 2 -5
BITMAP
71C0
3F80
1F00
0000
FFF0
FFF0
FFF0
F800
F800
F800
F800
FFE0
FFE0
FFE0
F800
F800
F800
F800
F800
FFF8
FFF8
FFF8
0600
0C00
0700
1F00
1E00
ENDCHAR
STARTCHAR uni1E1D
ENCODING 7709
SWIDTH 614 0
DWIDTH 15 0
BBX 13 22 1 -5
BITMAP
38E0
1FC0
0F80
0000
0FC0
3FE0
7FF0
78F0
F8F8
FFF8
FFF8
FFF8
F800
7C08
7FF8
3FF8
0FF0
0300
0600
0380
0F80
0F00
ENDCHAR
STARTCHAR uni1E1E
ENCODING 7710
SWIDTH 602 0
DWIDTH 15 0
BBX 13 22 2 0
BITMAP
0F00
0F00
0F00
0000
FFF8
FFF8
FFF8
F800
F800
F800
F800
F800
FFF0
FFF0
FFF0
F800
F800
F800
F800
F800
F800
F800
ENDCHAR
STARTCHAR uni1E1F
ENCODING 7711
SWIDTH 461 0
DWIDTH 12 0
BBX 12 23 0 0
BITMAP
0780
0780
0780
0000
07F0
1FF0
1FF0
3E00
3E00
3E00
FFE0
FFE0
FFE0
3E00
3E00
3E00
3E00
3E00
3E00
3E00
3E00
3E00
3E00
ENDCHAR
STARTCHAR uni1E20
ENCODING 7712
SWIDTH 759 0
DWIDTH 19 0
BBX 16 22 1 0
BITMAP
07F8
07F8
07F8
0000
03FF
0FFF
1FFF
3F03
7E00
7C00
F800
F800
F800
F81F
F81F
F81F
7C1F
7C1F
3F1F
3FFF
0FFF
03FE
ENDCHAR
STARTCHAR uni1E21
ENCODING 7713
SWIDTH 696 0
DWIDTH 17 0
BBX 14 22 1 -5
BITMAP
1FE0
1FE0
1FE0
0000
1F3C
3FFC
7FFC
7CFC
F87C
F87C
F87C
F87C
F87C
FCFC
7FFC
7F7C
1E7C
007C
20FC
7FF8
7FF0
1FC0
ENDCHAR
STARTCHAR uni1E22
ENCODING 7714
SWIDTH 813 0
DWIDTH 20 0
BBX 16 22 2 0
BITMAP
03C0
03C0
03C0
0000
F81F
F81F
F81F
F81F
F81F
F81F
F81F
FFFF
FFFF
FFFF
F81F
F81F
F81F
F81F
F81F
F81F
F81F
F81F
ENDCHAR
STARTCHAR uni1E23
ENCODING 7715
SWIDTH 693 0
DWIDTH 17 0
BBX 13 23 2 0
BITMAP
3C00
3C00
3C00
0000
F800
F800
F800
F800
F800
F800
F9E0
FBF0
FFF8
FFF8
FCF8
F8F8
F8F8
F8F8
F8F8
F8F8
F8F8
F8F8
F8F8
ENDCHAR
STARTCHAR uni1E24
ENCODING 7716
SWIDTH 813 0
DWIDTH 20 0
BBX 16 22 2 -4
BITMAP
F81F
F81F
F81F
F81F
F81F
F81F
F81F
FFFF
FFFF
FFFF
F81F
F81F
F81F
F81F
F81F
F81F
F81F
F81F
0000
03C0
03C0
03C0
ENDCHAR
STARTCHAR uni1E25
ENCODING 7717
SWIDTH 693 0
DWIDTH 17 0
BBX 13 23 2 -4
BITMAP
F800
F800
F800
F800
F800
F800
F9E0
FBF0
FFF8
FFF8
FCF8
F8F8
F8F8
F8F8
F8F8
F8F8
F8F8
F8F8
F8F8
0000
0780
0780
0780
ENDCHAR
STARTCHAR uni1E26
ENCODING 7718
SWIDTH 813 0
DWIDTH 20 0
BBX 16 22 2 0
BITMAP
0E70
0E70
0E70
0000
F81F
F81F
F81F
F81F
F81F
F81F
F81F
FFFF
FFFF
FFFF
F81F
F81F
F81F
F81F
F81F
F81F
F81F
F81F
ENDCHAR
STARTCHAR uni1E27
ENCODING 7719
SWIDTH 693 0
DWIDTH 17 0
BBX 13 23 2 0
BITMAP
E700
E700
E700
0000
F800
F800
F800
F800
F800
F800
F9E0
FBF0
FFF8
FFF8
FCF8
F8F8
F8F8
F8F8
F8F8
F8F8
F8F8
F8F8
F8F8
ENDCHAR
STARTCHAR uni1E28
ENCODING 7720
SWIDTH 813 0
DWIDTH 20 0
BBX 16 23 2 -5
BITMAP
F81F
F81F
F81F
F81F
F81F
F81F
F81F
FFFF
FFFF
FFFF
F81F
F81F
F81F
F81F
F81F
F81F
F81F
F81F
00C0
0180
00E0
03E0
03C0
ENDCHAR
STARTCHAR uni1E29
ENCODING 7721
SWIDTH 693 0
DWIDTH 17 0
BBX 13 24 2 -5
BITMAP
F800
F800
F800
F800
F800
F800
F9E0
FBF0
FFF8
FFF8
FCF8
F8F8
F8F8
F8F8
F8F8
F8F8
F8F8
F8F8
F8F8
0300
0600
0380
0F80
0F00
ENDCHAR
STARTCHAR uni1E2A
ENCODING 7722
SWIDTH 813 0
DWIDTH 20 0
BBX 16 22 2 -4
BITMAP
F81F
F81F
F81F
F81F
F81F
F81F
F81F
FFFF
FFFF
FFFF
F81F
F81F
F81F
F81F
F81F
F81F
F81F
F81F
0000
0E38
07F0
03E0
ENDCHAR
STARTCHAR uni1E2B
ENCODING 7723
SWIDTH 693 0
DWIDTH 17 0
BBX 13 23 2 -4
BITMAP
F800
F800
F800
F800
F800
F800
F9E0
FBF0
FFF8
FFF8
FCF8
F8F8
F8F8
F8F8
F8F8
F8F8
F8F8
F8F8
F8F8
0000
38E0
1FC0
0F80
ENDCHAR
STARTCHAR uni1E2C
ENCODING 7724
SWIDTH 361 0
DWIDTH 9 0
BBX 9 22 0 -4
BITMAP
3E00
3E00
3E00
3E00
3E00
3E00
3E00
3E00
3E00
3E00
3E00
3E00
3E00
3E00
3E00
3E00
3E00
3E00
0000
7B80
FF80
EF00
ENDCHAR
STARTCHAR uni1E2D
ENCODING 7725
SWIDTH 361 0
DWIDTH 9 0
BBX 9 23 0 -4
BITMAP
3E00
3E00
3E00
0000
0000
0000
3E00
3E00
3E00
3E00
3E00
3E00
3E00
3E00
3E00
3E00
3E00
3E00
3E00
0000
7B80
FF80
EF00
ENDCHAR
STARTCHAR uni1E2E
ENCODING 7726
SWIDTH 361 0
DWIDTH 9 0
BBX 8 26 3 0
BITMAP
0F
1C
38
00
E7
E7
E7
00
7C
7C
7C
7C
7C
7C
7C
7C
7C
7C
7C
7C
7C
7C
7C
7C
7C
7C
ENDCHAR
STARTCHAR uni1E2F
ENCODING 7727
SWIDTH 361 0
DWIDTH 9 0
BBX 8 21 3 0
BITMAP
0F
1C
38
00
E7
E7
E7
00
7C
7C
7C
7C
7C
7C
7C
7C
7C
7C
7C
7C
7C
ENDCHAR
STARTCHAR uni1E30
ENCODING 7728
SWIDTH 753 0
DWIDTH 19 0
BBX 16 22 2 0
BITMAP
01E0
0380
0700
0000
F81E
F83C
F878
F870
F8F0
F9E0
FBC0
FBC0
FFC0
FFE0
FFE0
FBF0
F9F8
F9F8
F8FC
F87E
F87E
F83F
ENDCHAR
STARTCHAR uni1E31
ENCODING 7729
SWIDTH 681 0
DWIDTH 17 0
BBX 14 23 2 0
BITMAP
0F00
1C00
3800
0000
F800
F800
F800
F800
F800
F800
F878
F8F0
F8E0
F9C0
FBC0
FBC0
FFC0
FFE0
FBF0
FBF0
F9F8
F8F8
F8FC
ENDCHAR
STARTCHAR uni1E32
ENCODING 7730
SWIDTH 753 0
DWIDTH 19 0
BBX 16 22 2 -4
BITMAP
F81E
F83C
F878
F870
F8F0
F9E0
FBC0
FBC0
FFC0
FFE0
FFE0
FBF0
F9F8
F9F8
F8FC
F87E
F87E
F83F
0000
03C0
03C0
03C0
ENDCHAR
STARTCHAR uni1E33
ENCODING 7731
SWIDTH 681 0
DWIDTH 17 0
BBX 14 23 2 -4
BITMAP
F800
F800
F800
F800
F800
F800
F878
F8F0
F8E0
F9C0
FBC0
FBC0
FFC0
FFE0
FBF0
FBF0
F9F8
F8F8
F8FC
0000
0780
0780
0780
ENDCHAR
STARTCHAR uni1E34
ENCODING 7732
SWIDTH 753 0
DWIDTH 19 0
BBX 16 22 2 -4
BITMAP
F81E
F83C
F878
F870
F8F0
F9E0
FBC0
FBC0
FFC0
FFE0
FFE0
FBF0
F9F8
F9F8
F8FC
F87E
F87E
F83F
0000
0FF0
0FF0
0FF0
ENDCHAR
STARTCHAR uni1E35
ENCODING 7733
SWIDTH 681 0
DWIDTH 17 0
BBX 14 23 2 -4
BITMAP
F800
F800
F800
F800
F800
F800
F878
F8F0
F8E0
F9C0
FBC0
FBC0
FFC0
FFE0
FBF0
FBF0
F9F8
F8F8
F8FC
0000
1FE0
1FE0
1FE0
ENDCHAR
STARTCHAR uni1E36
ENCODING 7734
SWIDTH 620 0
DWIDTH 16 0
BBX 13 22 2 -4
BITMAP
F800
F800
F800
F800
F800
F800
F800
F800
F800
F800
F800
F800
F800
F800
F800
FFF8
FFF8
FFF8
0000
0F00
0F00
0F00
ENDCHAR
STARTCHAR uni1E37
ENCODING 7735
SWIDTH 361 0
DWIDTH 9 0
BBX 5 23 2 -4
BITMAP
F8
F8
F8
F8
F8
F8
F8
F8
F8
F8
F8
F8
F8
F8
F8
F8
F8
F8
F8
00
78
78
78
ENDCHAR
STARTCHAR uni1E38
ENCODING 7736
SWIDTH 620 0
DWIDTH 16 0
BBX 13 26 2 -4
BITMAP
FF00
FF00
FF00
0000
F800
F800
F800
F800
F800
F800
F800
F800
F800
F800
F800
F800
F800
F800
F800
FFF8
FFF8
FFF8
0000
0F00
0F00
0F00
ENDCHAR
STARTCHAR uni1E39
ENCODING 7737
SWIDTH 361 0
DWIDTH 9 0
BBX 8 27 1 -4
BITMAP
FF
FF
FF
00
7C
7C
7C
7C
7C
7C
7C
7C
7C
7C
7C
7C
7C
7C
7C
7C
7C
7C
7C
00
3C
3C
3C
ENDCHAR
STARTCHAR uni1E3A
ENCODING 7738
SWIDTH 620 0
DWIDTH 16 0
BBX 13 22 2 -4
BITMAP
F800
F800
F800
F800
F800
F800
F800
F800
F800
F800
F800
F800
F800
F800
F800
FFF8
FFF8
FFF8
0000
3FC0
3FC0
3FC0
ENDCHAR
STARTCHAR uni1E3B
ENCODING 7739
SWIDTH 361 0
DWIDTH 9 0
BBX 8 23 1 -4
BITMAP
7C
7C
7C
7C
7C
7C
7C
7C
7C
7C
7C
7C
7C
7C
7C
7C
7C
7C
7C
00
FF
FF
FF
ENDCHAR
STARTCHAR uni1E3C
ENCODING 7740
SWIDTH 620 0
DWIDTH 16 0
BBX 13 22 2 -4
BITMAP
F800
F800
F800
F800
F800
F800
F800
F800
F800
F800
F800
F800
F800
F800
F800
FFF8
FFF8
FFF8
0000
1F00
3F80
71C0
ENDCHAR
STARTCHAR uni1E3D
ENCODING 7741
SWIDTH 361 0
DWIDTH 9 0
BBX 9 23 0 -4
BITMAP
3E00
3E00
3E00
3E00
3E00
3E00
3E00
3E00
3E00
3E00
3E00
3E00
3E00
3E00
3E00
3E00
3E00
3E00
3E00
0000
3E00
7F00
E380
ENDCHAR
STARTCHAR uni1E3E
ENCODING 7742
SWIDTH 940 0
DWIDTH 23 0
BBX 19 22 2 0
BITMAP
003C00
007000
00E000
000000
FC07E0
FC07E0
FE0FE0
FE0FE0
FE0FE0
FF1FE0
EF1FE0
EF1FE0
EFBBE0
E7BBE0
E7BBE0
E7F3E0
E3F3E0
E3F3E0
E3E3E0
E1E3E0
E1E3E0
E003E0
ENDCHAR
STARTCHAR uni1E3F
ENCODING 7743
SWIDTH 1006 0
DWIDTH 25 0
BBX 21 17 2 0
BITMAP
003C00
007000
00E000
000000
FBE1F0
F7F3F8
FFFFF8
FFFFF8
FCFCF8
F8F8F8
F8F8F8
F8F8F8
F8F8F8
F8F8F8
F8F8F8
F8F8F8
F8F8F8
ENDCHAR
STARTCHAR uni1E40
ENCODING 7744
SWIDTH 940 0
DWIDTH 23 0
BBX 19 22 2 0
BITMAP
00F000
00F000
00F000
000000
FC07E0
FC07E0
FE0FE0
FE0FE0
FE0FE0
FF1FE0
EF1FE0
EF1FE0
EFBBE0
E7BBE0
E7BBE0
E7F3E0
E3F3E0
E3F3E0
E3E3E0
E1E3E0
E1E3E0
E003E0
ENDCHAR
STARTCHAR uni1E41
ENCODING 7745
SWIDTH 1006 0
DWIDTH 25 0
BBX 21 17 2 0
BITMAP
00F000
00F000
00F000
000000
FBE1F0
F7F3F8
FFFFF8
FFFFF8
FCFCF8
F8F8F8
F8F8F8
F8F8F8
F8F8F8
F8F8F8
F8F8F8
F8F8F8
F8F8F8
ENDCHAR
STARTCHAR uni1E42
ENCODING 7746
SWIDTH 940 0
DWIDTH 23 0
BBX 19 22 2 -4
BITMAP
FC07E0
FC07E0
FE0FE0
FE0FE0
FE0FE0
FF1FE0
EF1FE0
EF1FE0
EFBBE0
E7BBE0
E7BBE0
E7F3E0
E3F3E0
E3F3E0
E3E3E0
E1E3E0
E1E3E0
E003E0
000000
00F000
00F000
00F000
ENDCHAR
STARTCHAR uni1E43
ENCODING 7747
SWIDTH 1006 0
DWIDTH 25 0
BBX 21 17 2 -4
BITMAP
FBE1F0
F7F3F8
FFFFF8
FFFFF8
FCFCF8
F8F8F8
F8F8F8
F8F8F8
F8F8F8
F8F8F8
F8F8F8
F8F8F8
F8F8F8
000000
007800
007800
007800
ENDCHAR
STARTCHAR uni1E44
ENCODING 7748
SWIDTH 783 0
DWIDTH 20 0
BBX 15 22 2 0
BITMAP
0780
0780
0780
0000
F00E
F80E
FC0E
FE0E
FE0E
FF0E
FF8E
FF8E
EFCE
E7EE
E3FE
E3FE
E1FE
E0FE
E0FE
E07E
E03E
E01E
ENDCHAR
STARTCHAR uni1E45
ENCODING 7749
SWIDTH 693 0
DWIDTH 17 0
BBX 13 17 2 0
BITMAP
0F00
0F00
0F00
0000
F9E0
FBF0
FFF8
FFF8
FCF8
F8F8
F8F8
F8F8
F8F8
F8F8
F8F8
F8F8
F8F8
ENDCHAR
STARTCHAR uni1E46
ENCODING 7750
SWIDTH 783 0
DWIDTH 20 0
BBX 15 22 2 -4
BITMAP
F00E
F80E
FC0E
FE0E
FE0E
FF0E
FF8E
FF8E
EFCE
E7EE
E3FE
E3FE
E1FE
E0FE
E0FE
E07E
E03E
E01E
0000
03C0
03C0
03C0
ENDCHAR
STARTCHAR uni1E47
ENCODING 7751
SWIDTH 693 0
DWIDTH 17 0
BBX 13 17 2 -4
BITMAP
F9E0
FBF0
FFF8
FFF8
FCF8
F8F8
F8F8
F8F8
F8F8
F8F8
F8F8
F8F8
F8F8
0000
0780
0780
0780
ENDCHAR
STARTCHAR uni1E48
ENCODING 7752
SWIDTH 783 0
DWIDTH 20 0
BBX 15 22 2 -4
BITMAP
F00E
F80E
FC0E
FE0E
FE0E
FF0E
FF8E
FF8E
EFCE
E7EE
E3FE
E3FE
E1FE
E0FE
E0FE
E07E
E03E
E01E
0000
0FF0
0FF0
0FF0
ENDCHAR
STARTCHAR uni1E49
ENCODING 7753
SWIDTH 693 0
DWIDTH 17 0
BBX 13 17 2 -4
BITMAP
F9E0
FBF0
FFF8
FFF8
FCF8
F8F8
F8F8
F8F8
F8F8
F8F8
F8F8
F8F8
F8F8
0000
1FE0
1FE0
1FE0
ENDCHAR
STARTCHAR uni1E4A
ENCODING 7754
SWIDTH 783 0
DWIDTH 20 0
BBX 15 22 2 -4
BITMAP
F00E
F80E
FC0E
FE0E
FE0E
FF0E
FF8E
FF8E
EFCE
E7EE
E3FE
E3FE
E1FE
E0FE
E0FE
E07E
E03E
E01E
0000
03E0
07F0
0E38
ENDCHAR
STARTCHAR uni1E4B
ENCODING 7755
SWIDTH 693 0
DWIDTH 17 0
BBX 13 17 2 -4
BITMAP
F9E0
FBF0
FFF8
FFF8
FCF8
F8F8
F8F8
F8F8
F8F8
F8F8
F8F8
F8F8
F8F8
0000
0F80
1FC0
38E0
ENDCHAR
STARTCHAR uni1E4C
ENCODING 7756
SWIDTH 855 0
DWIDTH 21 0
BBX 20 26 1 0
BITMAP
003C00
007000
00E000
000000
01EE00
03FE00
03BC00
000000
03FC00
0FFF00
1FFF80
3F0FC0
7E07E0
7C03E0
F801F0
F801F0
F801F0
F801F0
F801F0
F801F0
7C03E0
7E07E0
3F0FC0
1FFF80
0FFF00
03FC00
ENDCHAR
STARTCHAR uni1E4D
ENCODING 7757
SWIDTH 675 0
DWIDTH 17 0
BBX 15 21 1 0
BITMAP
00F0
01C0
0380
0000
0F70
1FF0
1DE0
0000
0FE0
3FF8
7FFC
7C7C
F83E
F83E
F83E
F83E
F83E
7C7C
7FFC
3FF8
0FE0
ENDCHAR
STARTCHAR uni1E4E
ENCODING 7758
SWIDTH 855 0
DWIDTH 21 0
BBX 20 26 1 0
BITMAP
039C00
039C00
039C00
000000
01EE00
03FE00
03BC00
000000
03FC00
0FFF00
1FFF80
3F0FC0
7E07E0
7C03E0
F801F0
F801F0
F801F0
F801F0
F801F0
F801F0
7C03E0
7E07E0
3F0FC0
1FFF80
0FFF00
03FC00
ENDCHAR
STARTCHAR uni1E4F
ENCODING 7759
SWIDTH 675 0
DWIDTH 17 0
BBX 15 21 1 0
BITMAP
0E70
0E70
0E70
0000
0F70
1FF0
1DE0
0000
0FE0
3FF8
7FFC
7C7C
F83E
F83E
F83E
F83E
F83E
7C7C
7FFC
3FF8
0FE0
ENDCHAR
STARTCHAR uni1E50
ENCODING 7760
SWIDTH 855 0
DWIDTH 21 0
BBX 20 26 1 0
BITMAP
03C000
00E000
007000
000000
03FC00
03FC00
03FC00
000000
03FC00
0FFF00
1FFF80
3F0FC0
7E07E0
7C03E0
F801F0
F801F0
F801F0
F801F0
F801F0
F801F0
7C03E0
7E07E0
3F0FC0
1FFF80
0FFF00
03FC00
ENDCHAR
STARTCHAR uni1E51
ENCODING 7761
SWIDTH 675 0
DWIDTH 17 0
BBX 15 21 1 0
BITMAP
0F00
0380
01C0
0000
0FF0
0FF0
0FF0
0000
0FE0
3FF8
7FFC
7C7C
F83E
F83E
F83E
F83E
F83E
7C7C
7FFC
3FF8
0FE0
ENDCHAR
STARTCHAR uni1E52
ENCODING 7762
SWIDTH 855 0
DWIDTH 21 0
BBX 20 26 1 0
BITMAP
003C00
007000
00E000
000000
03FC00
03FC00
03FC00
000000
03FC00
0FFF00
1FFF80
3F0FC0
7E07E0
7C03E0
F801F0
F801F0
F801F0
F801F0
F801F0
F801F0
7C03E0
7E07E0
3F0FC0
1FFF80
0FFF00
03FC00
ENDCHAR
STARTCHAR uni1E53
ENCODING 7763
SWIDTH 675 0
DWIDTH 17 0
BBX 15 21 1 0
BITMAP
00F0
01C0
0380
0000
0FF0
0FF0
0FF0
0000
0FE0
3FF8
7FFC
7C7C
F83E
F83E
F83E
F83E
F83E
7C7C
7FFC
3FF8
0FE0
ENDCHAR
STARTCHAR uni1E54
ENCODING 7764
SWIDTH 657 0
DWIDTH 16 0
BBX 14 22 2 0
BITMAP
01E0
0380
0700
0000
FFF0
FFF8
FFFC
F8FC
F87C
F87C
F87C
F8F8
FFF8
FFF0
FFC0
F800
F800
F800
F800
F800
F800
F800
ENDCHAR
STARTCHAR uni1E55
ENCODING 7765
SWIDTH 696 0
DWIDTH 17 0
BBX 14 22 2 -5
BITMAP
01E0
0380
0700
0000
F9E0
FBF8
FFF8
FCFC
F87C
F87C
F87C
F87C
F87C
FCFC
FFF8
FFF0
F9E0
F800
F800
F800
F800
F800
ENDCHAR
STARTCHAR uni1E56
ENCODING 7766
SWIDTH 657 0
DWIDTH 16 0
BBX 14 22 2 0
BITMAP
0780
0780
0780
0000
FFF0
FFF8
FFFC
F8FC
F87C
F87C
F87C
F8F8
FFF8
FFF0
FFC0
F800
F800
F800
F800
F800
F800
F800
ENDCHAR
STARTCHAR uni1E57
ENCODING 7767
SWIDTH 696 0
DWIDTH 17 0
BBX 14 22 2 -5
BITMAP
0780
0780
0780
0000
F9E0
FBF8
FFF8
FCFC
F87C
F87C
F87C
F87C
F87C
FCFC
FFF8
FFF0
F9E0
F800
F800
F800
F800
F800
ENDCHAR
STARTCHAR uni1E58
ENCODING 7768
SWIDTH 734 0
DWIDTH 18 0
BBX 16 22 2 0
BITMAP
0780
0780
0780
0000
FFE0
FFF8
FFFC
F8FC
F87C
F87C
F87C
F8F8
FFF0
FFE0
FFE0
F9F0
F9F8
F8F8
F8FC
F87E
F87E
F83F
ENDCHAR
STARTCHAR uni1E59
ENCODING 7769
SWIDTH 500 0
DWIDTH 12 0
BBX 10 17 2 0
BITMAP
1E00
1E00
1E00
0000
F9C0
FBC0
FFC0
FFC0
FC00
F800
F800
F800
F800
F800
F800
F800
F800
ENDCHAR
STARTCHAR uni1E5A
ENCODING 7770
SWIDTH 734 0
DWIDTH 18 0
BBX 16 22 2 -4
BITMAP
FFE0
FFF8
FFFC
F8FC
F87C
F87C
F87C
F8F8
FFF0
FFE0
FFE0
F9F0
F9F8
F8F8
F8FC
F87E
F87E
F83F
0000
03C0
03C0
03C0
ENDCHAR
STARTCHAR uni1E5B
ENCODING 7771
SWIDTH 500 0
DWIDTH 12 0
BBX 10 17 2 -4
BITMAP
F9C0
FBC0
FFC0
FFC0
FC00
F800
F800
F800
F800
F800
F800
F800
F800
0000
7800
7800
7800
ENDCHAR
STARTCHAR uni1E5C
ENCODING 7772
SWIDTH 734 0
DWIDTH 18 0
BBX 16 26 2 -4
BITMAP
1FE0
1FE0
1FE0
0000
FFE0
FFF8
FFFC
F8FC
F87C
F87C
F87C
F8F8
FFF0
FFE0
FFE0
F9F0
F9F8
F8F8
F8FC
F87E
F87E
F83F
0000
03C0
03C0
03C0
ENDCHAR
STARTCHAR uni1E5D
ENCODING 7773
SWIDTH 500 0
DWIDTH 12 0
BBX 10 21 2 -4
BITMAP
7F80
7F80
7F80
0000
F9C0
FBC0
FFC0
FFC0
FC00
F800
F800
F800
F800
F800
F800
F800
F800
0000
7800
7800
7800
ENDCHAR
STARTCHAR uni1E5E
ENCODING 7774
SWIDTH 734 0
DWIDTH 18 0
BBX 16 22 2 -4
BITMAP
FFE0
FFF8
FFFC
F8FC
F87C
F87C
F87C
F8F8
FFF0
FFE0
FFE0
F9F0
F9F8
F8F8
F8FC
F87E
F87E
F83F
0000
0FF0
0FF0
0FF0
ENDCHAR
STARTCHAR uni1E5F
ENCODING 7775
SWIDTH 500 0
DWIDTH 12 0
BBX 11 17 1 -4
BITMAP
7CE0
7DE0
7FE0
7FE0
7E00
7C00
7C00
7C00
7C00
7C00
7C00
7C00
7C00
0000
FF00
FF00
FF00
ENDCHAR
STARTCHAR uni1E60
ENCODING 7776
SWIDTH 594 0
DWIDTH 15 0
BBX 13 22 1 0
BITMAP
0F00
0F00
0F00
0000
1FF0
7FF0
7FF0
F830
F800
FC00
FF00
7F80
7FE0
1FF0
0FF8
03F8
00F8
00F8
C1F8
FFF0
FFE0
FF80
ENDCHAR
STARTCHAR uni1E61
ENCODING 7777
SWIDTH 622 0
DWIDTH 16 0
BBX 12 17 2 0
BITMAP
0F00
0F00
0F00
0000
3FC0
7FE0
FFE0
F820
F800
FF00
3FC0
0FF0
01F0
C1F0
FFF0
FFE0
7F80
ENDCHAR
STARTCHAR uni1E62
ENCODING 7778
SWIDTH 594 0
DWIDTH 15 0
BBX 13 22 1 -4
BITMAP
1FF0
7FF0
7FF0
F830
F800
FC00
FF00
7F80
7FE0
1FF0
0FF8
03F8
00F8
00F8
C1F8
FFF0
FFE0
FF80
0000
0F00
0F00
0F00
ENDCHAR
STARTCHAR uni1E63
ENCODING 7779
SWIDTH 622 0
DWIDTH 16 0
BBX 12 17 2 -4
BITMAP
3FC0
7FE0
FFE0
F820
F800
FF00
3FC0
0FF0
01F0
C1F0
FFF0
FFE0
7F80
0000
0F00
0F00
0F00
ENDCHAR
STARTCHAR uni1E64
ENCODING 7780
SWIDTH 594 0
DWIDTH 15 0
BBX 13 26 1 0
BITMAP
0780
0780
0780
0000
03C0
0700
0E00
0000
1FF0
7FF0
7FF0
F830
F800
FC00
FF00
7F80
7FE0
1FF0
0FF8
03F8
00F8
00F8
C1F8
FFF0
FFE0
FF80
ENDCHAR
STARTCHAR uni1E65
ENCODING 7781
SWIDTH 622 0
DWIDTH 16 0
BBX 12 21 2 0
BITMAP
0F00
0F00
0F00
0000
03C0
0700
0E00
0000
3FC0
7FE0
FFE0
F820
F800
FF00
3FC0
0FF0
01F0
C1F0
FFF0
FFE0
7F80
ENDCHAR
STARTCHAR uni1E66
ENCODING 7782
SWIDTH 594 0
DWIDTH 15 0
BBX 13 26 1 0
BITMAP
0780
0780
0780
0000
38E0
1FC0
0F80
0000
1FF0
7FF0
7FF0
F830
F800
FC00
FF00
7F80
7FE0
1FF0
0FF8
03F8
00F8
00F8
C1F8
FFF0
FFE0
FF80
ENDCHAR
STARTCHAR uni1E67
ENCODING 7783
SWIDTH 622 0
DWIDTH 16 0
BBX 12 21 2 0
BITMAP
0F00
0F00
0F00
0000
38E0
1FC0
0F80
0000
3FC0
7FE0
FFE0
F820
F800
FF00
3FC0
0FF0
01F0
C1F0
FFF0
FFE0
7F80
ENDCHAR
STARTCHAR uni1E68
ENCODING 7784
SWIDTH 594 0
DWIDTH 15 0
BBX 13 26 1 -4
BITMAP
0F00
0F00
0F00
0000
1FF0
7FF0
7FF0
F830
F800
FC00
FF00
7F80
7FE0
1FF0
0FF8
03F8
00F8
00F8
C1F8
FFF0
FFE0
FF80
0000
0F00
0F00
0F00
ENDCHAR
STARTCHAR uni1E69
ENCODING 7785
SWIDTH 622 0
DWIDTH 16 0
BBX 12 21 2 -4
BITMAP
1E00
1E00
1E00
0000
3FC0
7FE0
FFE0
F820
F800
FF00
3FC0
0FF0
01F0
C1F0
FFF0
FFE0
7F80
0000
0F00
0F00
0F00
ENDCHAR
STARTCHAR uni1E6A
ENCODING 7786
SWIDTH 735 0
DWIDTH 18 0
BBX 19 22 0 0
BITMAP
00F000
00F000
00F000
000000
FFFFE0
FFFFE0
FFFFE0
01F000
01F000
01F000
01F000
01F000
01F000
01F000
01F000
01F000
01F000
01F000
01F000
01F000
01F000
01F000
ENDCHAR
STARTCHAR uni1E6B
ENCODING 7787
SWIDTH 436 0
DWIDTH 11 0
BBX 9 21 1 0
BITMAP
3C00
3C00
3C00
0000
1C00
7C00
7C00
7C00
FF80
FF80
FF80
7C00
7C00
7C00
7C00
7C00
7C00
7C00
7F80
3F80
1F80
ENDCHAR
STARTCHAR uni1E6C
ENCODING 7788
SWIDTH 735 0
DWIDTH 18 0
BBX 19 22 0 -4
BITMAP
FFFFE0
FFFFE0
FFFFE0
01F000
01F000
01F000
01F000
01F000
01F000
01F000
01F000
01F000
01F000
01F000
01F000
01F000
01F000
01F000
000000
00F000
00F000
00F000
ENDCHAR
STARTCHAR uni1E6D
ENCODING 7789
SWIDTH 436 0
DWIDTH 11 0
BBX 9 21 1 -4
BITMAP
1C00
7C00
7C00
7C00
FF80
FF80
FF80
7C00
7C00
7C00
7C00
7C00
7C00
7C00
7F80
3F80
1F80
0000
1E00
1E00
1E00
ENDCHAR
STARTCHAR uni1E6E
ENCODING 7790
SWIDTH 735 0
DWIDTH 18 0
BBX 19 22 0 -4
BITMAP
FFFFE0
FFFFE0
FFFFE0
01F000
01F000
01F000
01F000
01F000
01F000
01F000
01F000
01F000
01F000
01F000
01F000
01F000
01F000
01F000
000000
03FC00
03FC00
03FC00
ENDCHAR
STARTCHAR uni1E6F
ENCODING 7791
SWIDTH 436 0
DWIDTH 11 0
BBX 9 21 1 -4
BITMAP
1C00
7C00
7C00
7C00
FF80
FF80
FF80
7C00
7C00
7C00
7C00
7C00
7C00
7C00
7F80
3F80
1F80
0000
7F80
7F80
7F80
ENDCHAR
STARTCHAR uni1E70
ENCODING 7792
SWIDTH 735 0
DWIDTH 18 0
BBX 19 22 0 -4
BITMAP
FFFFE0
FFFFE0
FFFFE0
01F000
01F000
01F000
01F000
01F000
01F000
01F000
01F000
01F000
01F000
01F000
01F000
01F000
01F000
01F000
000000
01F000
03F800
071C00
ENDCHAR
STARTCHAR uni1E71
ENCODING 7793
SWIDTH 436 0
DWIDTH 11 0
BBX 9 21 1 -4
BITMAP
1C00
7C00
7C00
7C00
FF80
FF80
FF80
7C00
7C00
7C00
7C00
7C00
7C00
7C00
7F80
3F80
1F80
0000
3E00
7F00
E380
ENDCHAR
STARTCHAR uni1E72
ENCODING 7794
SWIDTH 783 0
DWIDTH 20 0
BBX 15 22 2 -4
BITMAP
F83E
F83E
F83E
F83E
F83E
F83E
F83E
F83E
F83E
F83E
F83E
F83E
F83E
F83E
7C7C
7FFC
3FF8
0FE0
0000
0E70
0E70
0E70
ENDCHAR
STARTCHAR uni1E73
ENCODING 7795
SWIDTH 693 0
DWIDTH 17 0
BBX 13 17 2 -4
BITMAP
F8F8
F8F8
F8F8
F8F8
F8F8
F8F8
F8F8
F8F8
F8F8
F9F8
FFF8
7EF8
3CF8
0000
1CE0
1CE0
1CE0
ENDCHAR
STARTCHAR uni1E74
ENCODING 7796
SWIDTH 783 0
DWIDTH 20 0
BBX 15 22 2 -4
BITMAP
F83E
F83E
F83E
F83E
F83E
F83E
F83E
F83E
F83E
F83E
F83E
F83E
F83E
F83E
7C7C
7FFC
3FF8
0FE0
0000
0F70
1FF0
1DE0
ENDCHAR
STARTCHAR uni1E75
ENCODING 7797
SWIDTH 693 0
DWIDTH 17 0
BBX 13 17 2 -4
BITMAP
F8F8
F8F8
F8F8
F8F8
F8F8
F8F8
F8F8
F8F8
F8F8
F9F8
FFF8
7EF8
3CF8
0000
1EE0
3FE0
3BC0
ENDCHAR
STARTCHAR uni1E76
ENCODING 7798
SWIDTH 783 0
DWIDTH 20 0
BBX 15 22 2 -4
BITMAP
F83E
F83E
F83E
F83E
F83E
F83E
F83E
F83E
F83E
F83E
F83E
F83E
F83E
F83E
7C7C
7FFC
3FF8
0FE0
0000
07C0
0FE0
1C70
ENDCHAR
STARTCHAR uni1E77
ENCODING 7799
SWIDTH 693 0
DWIDTH 17 0
BBX 13 17 2 -4
BITMAP
F8F8
F8F8
F8F8
F8F8
F8F8
F8F8
F8F8
F8F8
F8F8
F9F8
FFF8
7EF8
3CF8
0000
0F80
1FC0
38E0
ENDCHAR
STARTCHAR uni1E78
ENCODING 7800
SWIDTH 783 0
DWIDTH 20 0
BBX 15 26 2 0
BITMAP
00F0
01C0
0380
0000
0F70
1FF0
1DE0
0000
F83E
F83E
F83E
F83E
F83E
F83E
F83E
F83E
F83E
F83E
F83E
F83E
F83E
F83E
7C7C
7FFC
3FF8
0FE0
ENDCHAR
STARTCHAR uni1E79
ENCODING 7801
SWIDTH 693 0
DWIDTH 17 0
BBX 13 21 2 0
BITMAP
01E0
0380
0700
0000
1EE0
3FE0
3BC0
0000
F8F8
F8F8
F8F8
F8F8
F8F8
F8F8
F8F8
F8F8
F8F8
F9F8
FFF8
7EF8
3CF8
ENDCHAR
STARTCHAR uni1E7A
ENCODING 7802
SWIDTH 783 0
DWIDTH 20 0
BBX 15 26 2 0
BITMAP
0E70
0E70
0E70
0000
0FF0
0FF0
0FF0
0000
F83E
F83E
F83E
F83E
F83E
F83E
F83E
F83E
F83E
F83E
F83E
F83E
F83E
F83E
7C7C
7FFC
3FF8
0FE0
ENDCHAR
STARTCHAR uni1E7B
ENCODING 7803
SWIDTH 693 0
DWIDTH 17 0
BBX 13 21 2 0
BITMAP
1CE0
1CE0
1CE0
0000
1FE0
1FE0
1FE0
0000
F8F8
F8F8
F8F8
F8F8
F8F8
F8F8
F8F8
F8F8
F8F8
F9F8
FFF8
7EF8
3CF8
ENDCHAR
STARTCHAR uni1E7C
ENCODING 7804
SWIDTH 735 0
DWIDTH 18 0
BBX 18 22 0 0
BITMAP
07B800
0FF800
0EF000
000000
F801C0
FC0380
7C0380
7E0380
3E0700
3E0700
3F0F00
1F0E00
1F0E00
1F9E00
0F9C00
0FDC00
07F800
07F800
07F800
03F000
03F000
03F000
ENDCHAR
STARTCHAR uni1E7D
ENCODING 7805
SWIDTH 663 0
DWIDTH 17 0
BBX 15 17 1 0
BITMAP
0F70
1FF0
1DE0
0000
F80E
FC1C
7C1C
7E3C
3E38
3E38
3F78
1F70
1FF0
0FE0
0FE0
0FE0
07C0
ENDCHAR
STARTCHAR uni1E7E
ENCODING 7806
SWIDTH 735 0
DWIDTH 18 0
BBX 18 22 0 -4
BITMAP
F801C0
FC0380
7C0380
7E0380
3E0700
3E0700
3F0F00
1F0E00
1F0E00
1F9E00
0F9C00
0FDC00
07F800
07F800
07F800
03F000
03F000
03F000
000000
01E000
01E000
01E000
ENDCHAR
STARTCHAR uni1E7F
ENCODING 7807
SWIDTH 663 0
DWIDTH 17 0
BBX 15 17 1 -4
BITMAP
F80E
FC1C
7C1C
7E3C
3E38
3E38
3F78
1F70
1FF0
0FE0
0FE0
0FE0
07C0
0000
03C0
03C0
03C0
ENDCHAR
STARTCHAR Wgrave
ENCODING 7808
SWIDTH 940 0
DWIDTH 23 0
BBX 23 22 0 0
BITMAP
01E000
007000
003800
000000
F83C0E
F83C0E
F83E1C
7C7E1C
7C7E1C
7C7E1C
7C7E38
3EFF38
3EEF38
3EEF38
3EEF70
1FEFF0
1FC7F0
1FC7F0
1FC7E0
1FC7E0
0F83E0
0F83E0
ENDCHAR
STARTCHAR wgrave
ENCODING 7809
SWIDTH 885 0
DWIDTH 22 0
BBX 21 17 1 0
BITMAP
03C000
00E000
007000
000000
F07838
78FC70
78FC70
78FC70
78FC70
3DDEE0
3DDEE0
3DDEE0
3F9FC0
1F8FC0
1F8FC0
1F8FC0
1F0F80
ENDCHAR
STARTCHAR Wacute
ENCODING 7810
SWIDTH 940 0
DWIDTH 23 0
BBX 23 22 0 0
BITMAP
001E00
003800
007000
000000
F83C0E
F83C0E
F83E1C
7C7E1C
7C7E1C
7C7E1C
7C7E38
3EFF38
3EEF38
3EEF38
3EEF70
1FEFF0
1FC7F0
1FC7F0
1FC7E0
1FC7E0
0F83E0
0F83E0
ENDCHAR
STARTCHAR wacute
ENCODING 7811
SWIDTH 885 0
DWIDTH 22 0
BBX 21 17 1 0
BITMAP
003C00
007000
00E000
000000
F07838
78FC70
78FC70
78FC70
78FC70
3DDEE0
3DDEE0
3DDEE0
3F9FC0
1F8FC0
1F8FC0
1F8FC0
1F0F80
ENDCHAR
STARTCHAR Wdieresis
ENCODING 7812
SWIDTH 940 0
DWIDTH 23 0
BBX 23 22 0 0
BITMAP
01CE00
01CE00
01CE00
000000
F83C0E
F83C0E
F83E1C
7C7E1C
7C7E1C
7C7E1C
7C7E38
3EFF38
3EEF38
3EEF38
3EEF70
1FEFF0
1FC7F0
1FC7F0
1FC7E0
1FC7E0
0F83E0
0F83E0
ENDCHAR
STARTCHAR wdieresis
ENCODING 7813
SWIDTH 885 0
DWIDTH 22 0
BBX 21 17 1 0
BITMAP
039C00
039C00
039C00
000000
F07838
78FC70
78FC70
78FC70
78FC70
3DDEE0
3DDEE0
3DDEE0
3F9FC0
1F8FC0
1F8FC0
1F8FC0
1F0F80
ENDCHAR
STARTCHAR uni1E86
ENCODING 7814
SWIDTH 940 0
DWIDTH 23 0
BBX 23 22 0 0
BITMAP
007800
007800
007800
000000
F83C0E
F83C0E
F83E1C
7C7E1C
7C7E1C
7C7E1C
7C7E38
3EFF38
3EEF38
3EEF38
3EEF70
1FEFF0
1FC7F0
1FC7F0
1FC7E0
1FC7E0
0F83E0
0F83E0
ENDCHAR
STARTCHAR uni1E87
ENCODING 7815
SWIDTH 885 0
DWIDTH 22 0
BBX 21 17 1 0
BITMAP
00F000
00F000
00F000
000000
F07838
78FC70
78FC70
78FC70
78FC70
3DDEE0
3DDEE0
3DDEE0
3F9FC0
1F8FC0
1F8FC0
1F8FC0
1F0F80
ENDCHAR
STARTCHAR uni1E88
ENCODING 7816
SWIDTH 940 0
DWIDTH 23 0
BBX 23 22 0 -4
BITMAP
F83C0E
F83C0E
F83E1C
7C7E1C
7C7E1C
7C7E1C
7C7E38
3EFF38
3EEF38
3EEF38
3EEF70
1FEFF0
1FC7F0
1FC7F0
1FC7E0
1FC7E0
0F83E0
0F83E0
000000
007800
007800
007800
ENDCHAR
STARTCHAR uni1E89
ENCODING 7817
SWIDTH 885 0
DWIDTH 22 0
BBX 21 17 1 -4
BITMAP
F07838
78FC70
78FC70
78FC70
78FC70
3DDEE0
3DDEE0
3DDEE0
3F9FC0
1F8FC0
1F8FC0
1F8FC0
1F0F80
000000
00F000
00F000
00F000
ENDCHAR
STARTCHAR uni1E8A
ENCODING 7818
SWIDTH 699 0
DWIDTH 17 0
BBX 16 22 1 0
BITMAP
03C0
03C0
03C0
0000
FC0F
7E1E
7E1C
3F3C
1F78
1FF0
0FF0
0FE0
07E0
07E0
07F0
0FF0
1FF8
1CFC
3CFC
387E
783E
F03F
ENDCHAR
STARTCHAR uni1E8B
ENCODING 7819
SWIDTH 568 0
DWIDTH 14 0
BBX 13 17 1 0
BITMAP
0F00
0F00
0F00
0000
FC78
7CF0
3EE0
3FE0
1FC0
1F80
0F80
0FC0
1FC0
3FE0
3BF0
79F0
F0F8
ENDCHAR
STARTCHAR uni1E8C
ENCODING 7820
SWIDTH 699 0
DWIDTH 17 0
BBX 16 22 1 0
BITMAP
0E70
0E70
0E70
0000
FC0F
7E1E
7E1C
3F3C
1F78
1FF0
0FF0
0FE0
07E0
07E0
07F0
0FF0
1FF8
1CFC
3CFC
387E
783E
F03F
ENDCHAR
STARTCHAR uni1E8D
ENCODING 7821
SWIDTH 568 0
DWIDTH 14 0
BBX 13 17 1 0
BITMAP
39C0
39C0
39C0
0000
FC78
7CF0
3EE0
3FE0
1FC0
1F80
0F80
0FC0
1FC0
3FE0
3BF0
79F0
F0F8
ENDCHAR
STARTCHAR uni1E8E
ENCODING 7822
SWIDTH 738 0
DWIDTH 18 0
BBX 17 22 1 0
BITMAP
03C000
03C000
03C000
000000
FC0780
7C0700
7E0F00
3F0E00
3F1C00
1FBC00
1FB800
0FF800
07F000
07F000
03E000
03E000
03E000
03E000
03E000
03E000
03E000
03E000
ENDCHAR
STARTCHAR uni1E8F
ENCODING 7823
SWIDTH 645 0
DWIDTH 16 0
BBX 15 22 1 -5
BITMAP
0780
0780
0780
0000
F81E
FC1C
7C3C
7E38
3E38
3E70
3F70
1FE0
1FE0
0FE0
0FC0
0FC0
0780
0780
0F00
0F00
1E00
3E00
ENDCHAR
STARTCHAR uni1E90
ENCODING 7824
SWIDTH 675 0
DWIDTH 17 0
BBX 14 22 1 0
BITMAP
07C0
0FE0
1C70
0000
FFFC
FFFC
FFFC
00FC
01F8
03F8
03F0
07E0
0FC0
0FC0
1F80
3F00
7F00
7E00
FC00
FFFC
FFFC
FFFC
ENDCHAR
STARTCHAR uni1E91
ENCODING 7825
SWIDTH 608 0
DWIDTH 15 0
BBX 13 17 1 0
BITMAP
0F80
1FC0
38E0
0000
FFF8
FFF8
FFF8
03F8
07F0
0FE0
1FC0
3F80
7F00
FE00
FFF8
FFF8
FFF8
ENDCHAR
STARTCHAR uni1E92
ENCODING 7826
SWIDTH 675 0
DWIDTH 17 0
BBX 14 22 1 -4
BITMAP
FFFC
FFFC
FFFC
00FC
01F8
03F8
03F0
07E0
0FC0
0FC0
1F80
3F00
7F00
7E00
FC00
FFFC
FFFC
FFFC
0000
0F00
0F00
0F00
ENDCHAR
STARTCHAR uni1E93
ENCODING 7827
SWIDTH 608 0
DWIDTH 15 0
BBX 13 17 1 -4
BITMAP
FFF8
FFF8
FFF8
03F8
07F0
0FE0
1FC0
3F80
7F00
FE00
FFF8
FFF8
FFF8
0000
0F00
0F00
0F00
ENDCHAR
STARTCHAR uni1E94
ENCODING 7828
SWIDTH 675 0
DWIDTH 17 0
BBX 14 22 1 -4
BITMAP
FFFC
FFFC
FFFC
00FC
01F8
03F8
03F0
07E0
0FC0
0FC0
1F80
3F00
7F00
7E00
FC00
FFFC
FFFC
FFFC
0000
3FC0
3FC0
3FC0
ENDCHAR
STARTCHAR uni1E95
ENCODING 7829
SWIDTH 608 0
DWIDTH 15 0
BBX 13 17 1 -4
BITMAP
FFF8
FFF8
FFF8
03F8
07F0
0FE0
1FC0
3F80
7F00
FE00
FFF8
FFF8
FFF8
0000
3FC0
3FC0
3FC0
ENDCHAR
STARTCHAR uni1E96
ENCODING 7830
SWIDTH 693 0
DWIDTH 17 0
BBX 13 23 2 -4
BITMAP
F800
F800
F800
F800
F800
F800
F9E0
FBF0
FFF8
FFF8
FCF8
F8F8
F8F8
F8F8
F8F8
F8F8
F8F8
F8F8
F8F8
0000
1FE0
1FE0
1FE0
ENDCHAR
STARTCHAR uni1E97
ENCODING 7831
SWIDTH 436 0
DWIDTH 11 0
BBX 9 21 1 0
BITMAP
E700
E700
E700
0000
1C00
7C00
7C00
7C00
FF80
FF80
FF80
7C00
7C00
7C00
7C00
7C00
7C00
7C00
7F80
3F80
1F80
ENDCHAR
STARTCHAR uni1E98
ENCODING 7832
SWIDTH 885 0
DWIDTH 22 0
BBX 21 18 1 0
BITMAP
006000
009000
009000
006000
000000
F07838
78FC70
78FC70
78FC70
78FC70
3DDEE0
3DDEE0
3DDEE0
3F9FC0
1F8FC0
1F8FC0
1F8FC0
1F0F80
ENDCHAR
STARTCHAR uni1E99
ENCODING 7833
SWIDTH 645 0
DWIDTH 16 0
BBX 15 23 1 -5
BITMAP
0300
0480
0480
0300
0000
F81E
FC1C
7C3C
7E38
3E38
3E70
3F70
1FE0
1FE0
0FE0
0FC0
0FC0
0780
0780
0F00
0F00
1E00
3E00
ENDCHAR
STARTCHAR uni1EA0
ENCODING 7840
SWIDTH 773 0
DWIDTH 19 0
BBX 19 22 0 -4
BITMAP
01F000
03F800
03F800
03FC00
07FC00
077C00
0F7E00
0E3E00
0E3F00
1C1F00
1FFF00
1FFF80
3FFF80
380FC0
7807C0
7007C0
7003E0
E003E0
000000
00F000
00F000
00F000
ENDCHAR
STARTCHAR uni1EA1
ENCODING 7841
SWIDTH 623 0
DWIDTH 16 0
BBX 14 17 1 -4
BITMAP
1FC0
7FF0
7FF8
41F8
00F8
1FF8
7FF8
FFF8
F8F8
F8F8
FFFC
7FFC
3E7C
0000
0780
0780
0780
ENDCHAR
STARTCHAR uni1EA4
ENCODING 7844
SWIDTH 773 0
DWIDTH 19 0
BBX 19 26 0 0
BITMAP
003C00
007000
00E000
000000
01F000
03F800
071C00
000000
01F000
03F800
03F800
03FC00
07FC00
077C00
0F7E00
0E3E00
0E3F00
1C1F00
1FFF00
1FFF80
3FFF80
380FC0
7807C0
7007C0
7003E0
E003E0
ENDCHAR
STARTCHAR uni1EA5
ENCODING 7845
SWIDTH 623 0
DWIDTH 16 0
BBX 14 21 1 0
BITMAP
01E0
0380
0700
0000
07C0
0FE0
1C70
0000
1FC0
7FF0
7FF8
41F8
00F8
1FF8
7FF8
FFF8
F8F8
F8F8
FFFC
7FFC
3E7C
ENDCHAR
STARTCHAR uni1EA6
ENCODING 7846
SWIDTH 773 0
DWIDTH 19 0
BBX 19 26 0 0
BITMAP
03C000
00E000
007000
000000
01F000
03F800
071C00
000000
01F000
03F800
03F800
03FC00
07FC00
077C00
0F7E00
0E3E00
0E3F00
1C1F00
1FFF00
1FFF80
3FFF80
380FC0
7807C0
7007C0
7003E0
E003E0
ENDCHAR
STARTCHAR uni1EA7
ENCODING 7847
SWIDTH 623 0
DWIDTH 16 0
BBX 14 21 1 0
BITMAP
1E00
0700
0380
0000
07C0
0FE0
1C70
0000
1FC0
7FF0
7FF8
41F8
00F8
1FF8
7FF8
FFF8
F8F8
F8F8
FFFC
7FFC
3E7C
ENDCHAR
STARTCHAR uni1EAA
ENCODING 7850
SWIDTH 773 0
DWIDTH 19 0
BBX 19 26 0 0
BITMAP
03DC00
07FC00
077800
000000
01F000
03F800
071C00
000000
01F000
03F800
03F800
03FC00
07FC00
077C00
0F7E00
0E3E00
0E3F00
1C1F00
1FFF00
1FFF80
3FFF80
380FC0
7807C0
7007C0
7003E0
E003E0
ENDCHAR
STARTCHAR uni1EAB
ENCODING 7851
SWIDTH 623 0
DWIDTH 16 0
BBX 14 21 1 0
BITMAP
0F70
1FF0
1DE0
0000
07C0
0FE0
1C70
0000
1FC0
7FF0
7FF8
41F8
00F8
1FF8
7FF8
FFF8
F8F8
F8F8
FFFC
7FFC
3E7C
ENDCHAR
STARTCHAR uni1EAC
ENCODING 7852
SWIDTH 773 0
DWIDTH 19 0
BBX 19 26 0 -4
BITMAP
01F000
03F800
071C00
000000
01F000
03F800
03F800
03FC00
07FC00
077C00
0F7E00
0E3E00
0E3F00
1C1F00
1FFF00
1FFF80
3FFF80
380FC0
7807C0
7007C0
7003E0
E003E0
000000
00F000
00F000
00F000
ENDCHAR
STARTCHAR uni1EAD
ENCODING 7853
SWIDTH 623 0
DWIDTH 16 0
BBX 14 21 1 -4
BITMAP
07C0
0FE0
1C70
0000
1FC0
7FF0
7FF8
41F8
00F8
1FF8
7FF8
FFF8
F8F8
F8F8
FFFC
7FFC
3E7C
0000
0780
0780
0780
ENDCHAR
STARTCHAR uni1EAE
ENCODING 7854
SWIDTH 773 0
DWIDTH 19 0
BBX 19 26 0 0
BITMAP
003C00
007000
00E000
000000
071C00
03F800
01F000
000000
01F000
03F800
03F800
03FC00
07FC00
077C00
0F7E00
0E3E00
0E3F00
1C1F00
1FFF00
1FFF80
3FFF80
380FC0
7807C0
7007C0
7003E0
E003E0
ENDCHAR
STARTCHAR uni1EAF
ENCODING 7855
SWIDTH 623 0
DWIDTH 16 0
BBX 14 21 1 0
BITMAP
01E0
0380
0700
0000
1C70
0FE0
07C0
0000
1FC0
7FF0
7FF8
41F8
00F8
1FF8
7FF8
FFF8
F8F8
F8F8
FFFC
7FFC
3E7C
ENDCHAR
STARTCHAR uni1EB0
ENCODING 7856
SWIDTH 773 0
DWIDTH 19 0
BBX 19 26 0 0
BITMAP
03C000
00E000
007000
000000
071C00
03F800
01F000
000000
01F000
03F800
03F800
03FC00
07FC00
077C00
0F7E00
0E3E00
0E3F00
1C1F00
1FFF00
1FFF80
3FFF80
380FC0
7807C0
7007C0
7003E0
E003E0
ENDCHAR
STARTCHAR uni1EB1
ENCODING 7857
SWIDTH 623 0
DWIDTH 16 0
BBX 14 21 1 0
BITMAP
1E00
0700
0380
0000
1C70
0FE0
07C0
0000
1FC0
7FF0
7FF8
41F8
00F8
1FF8
7FF8
FFF8
F8F8
F8F8
FFFC
7FFC
3E7C
ENDCHAR
STARTCHAR uni1EB4
ENCODING 7860
SWIDTH 773 0
DWIDTH 19 0
BBX 19 26 0 0
BITMAP
03DC00
07FC00
077800
000000
071C00
03F800
01F000
000000
01F000
03F800
03F800
03FC00
07FC00
077C00
0F7E00
0E3E00
0E3F00
1C1F00
1FFF00
1FFF80
3FFF80
380FC0
7807C0
7007C0
7003E0
E003E0
ENDCHAR
STARTCHAR uni1EB5
ENCODING 7861
SWIDTH 623 0
DWIDTH 16 0
BBX 14 21 1 0
BITMAP
0F70
1FF0
1DE0
0000
1C70
0FE0
07C0
0000
1FC0
7FF0
7FF8
41F8
00F8
1FF8
7FF8
FFF8
F8F8
F8F8
FFFC
7FFC
3E7C
ENDCHAR
STARTCHAR uni1EB6
ENCODING 7862
SWIDTH 773 0
DWIDTH 19 0
BBX 19 26 0 -4
BITMAP
071C00
03F800
01F000
000000
01F000
03F800
03F800
03FC00
07FC00
077C00
0F7E00
0E3E00
0E3F00
1C1F00
1FFF00
1FFF80
3FFF80
380FC0
7807C0
7007C0
7003E0
E003E0
000000
00F000
00F000
00F000
ENDCHAR
STARTCHAR uni1EB7
ENCODING 7863
SWIDTH 623 0
DWIDTH 16 0
BBX 14 21 1 -4
BITMAP
1C70
0FE0
07C0
0000
1FC0
7FF0
7FF8
41F8
00F8
1FF8
7FF8
FFF8
F8F8
F8F8
FFFC
7FFC
3E7C
0000
0780
0780
0780
ENDCHAR
STARTCHAR uni1EB8
ENCODING 7864
SWIDTH 645 0
DWIDTH 16 0
BBX 13 22 2 -4
BITMAP
FFF0
FFF0
FFF0
F800
F800
F800
F800
FFE0
FFE0
FFE0
F800
F800
F800
F800
F800
FFF8
FFF8
FFF8
0000
0F00
0F00
0F00
ENDCHAR
STARTCHAR uni1EB9
ENCODING 7865
SWIDTH 614 0
DWIDTH 15 0
BBX 13 17 1 -4
BITMAP
0FC0
3FE0
7FF0
78F0
F8F8
FFF8
FFF8
FFF8
F800
7C08
7FF8
3FF8
0FF0
0000
0780
0780
0780
ENDCHAR
STARTCHAR uni1EBC
ENCODING 7868
SWIDTH 645 0
DWIDTH 16 0
BBX 13 22 2 0
BITMAP
3DC0
7FC0
7780
0000
FFF0
FFF0
FFF0
F800
F800
F800
F800
FFE0
FFE0
FFE0
F800
F800
F800
F800
F800
FFF8
FFF8
FFF8
ENDCHAR
STARTCHAR uni1EBD
ENCODING 7869
SWIDTH 614 0
DWIDTH 15 0
BBX 13 17 1 0
BITMAP
1EE0
3FE0
3BC0
0000
0FC0
3FE0
7FF0
78F0
F8F8
FFF8
FFF8
FFF8
F800
7C08
7FF8
3FF8
0FF0
ENDCHAR
STARTCHAR uni1EBE
ENCODING 7870
SWIDTH 645 0
DWIDTH 16 0
BBX 13 26 2 0
BITMAP
03C0
0700
0E00
0000
0F80
1FC0
38E0
0000
FFF0
FFF0
FFF0
F800
F800
F800
F800
FFE0
FFE0
FFE0
F800
F800
F800
F800
F800
FFF8
FFF8
FFF8
ENDCHAR
STARTCHAR uni1EBF
ENCODING 7871
SWIDTH 614 0
DWIDTH 15 0
BBX 13 21 1 0
BITMAP
01E0
0380
0700
0000
0F80
1FC0
38E0
0000
0FC0
3FE0
7FF0
78F0
F8F8
FFF8
FFF8
FFF8
F800
7C08
7FF8
3FF8
0FF0
ENDCHAR
STARTCHAR uni1EC0
ENCODING 7872
SWIDTH 645 0
DWIDTH 16 0
BBX 13 26 2 0
BITMAP
3C00
0E00
0700
0000
0F80
1FC0
38E0
0000
FFF0
FFF0
FFF0
F800
F800
F800
F800
FFE0
FFE0
FFE0
F800
F800
F800
F800
F800
FFF8
FFF8
FFF8
ENDCHAR
STARTCHAR uni1EC1
ENCODING 7873
SWIDTH 614 0
DWIDTH 15 0
BBX 13 21 1 0
BITMAP
1E00
0700
0380
0000
0F80
1FC0
38E0
0000
0FC0
3FE0
7FF0
78F0
F8F8
FFF8
FFF8
FFF8
F800
7C08
7FF8
3FF8
0FF0
ENDCHAR
STARTCHAR uni1EC4
ENCODING 7876
SWIDTH 645 0
DWIDTH 16 0
BBX 13 26 2 0
BITMAP
1EE0
3FE0
3BC0
0000
0F80
1FC0
38E0
0000
FFF0
FFF0
FFF0
F800
F800
F800
F800
FFE0
FFE0
FFE0
F800
F800
F800
F800
F800
FFF8
FFF8
FFF8
ENDCHAR
STARTCHAR uni1EC5
ENCODING 7877
SWIDTH 614 0
DWIDTH 15 0
BBX 13 21 1 0
BITMAP
1EE0
3FE0
3BC0
0000
0F80
1FC0
38E0
0000
0FC0
3FE0
7FF0
78F0
F8F8
FFF8
FFF8
FFF8
F800
7C08
7FF8
3FF8
0FF0
ENDCHAR
STARTCHAR uni1EC6
ENCODING 7878
SWIDTH 645 0
DWIDTH 16 0
BBX 13 26 2 -4
BITMAP
1F00
3F80
71C0
0000
FFF0
FFF0
FFF0
F800
F800
F800
F800
FFE0
FFE0
FFE0
F800
F800
F800
F800
F800
FFF8
FFF8
FFF8
0000
0F00
0F00
0F00
ENDCHAR
STARTCHAR uni1EC7
ENCODING 7879
SWIDTH 614 0
DWIDTH 15 0
BBX 13 21 1 -4
BITMAP
0F80
1FC0
38E0
0000
0FC0
3FE0
7FF0
78F0
F8F8
FFF8
FFF8
FFF8
F800
7C08
7FF8
3FF8
0FF0
0000
0780
0780
0780
ENDCHAR
STARTCHAR uni1ECA
ENCODING 7882
SWIDTH 361 0
DWIDTH 9 0
BBX 5 22 2 -4
BITMAP
F8
F8
F8
F8
F8
F8
F8
F8
F8
F8
F8
F8
F8
F8
F8
F8
F8
F8
00
78
78
78
ENDCHAR
STARTCHAR uni1ECB
ENCODING 7883
SWIDTH 361 0
DWIDTH 9 0
BBX 5 23 2 -4
BITMAP
F8
F8
F8
00
00
00
F8
F8
F8
F8
F8
F8
F8
F8
F8
F8
F8
F8
F8
00
78
78
78
ENDCHAR
STARTCHAR uni1ECC
ENCODING 7884
SWIDTH 855 0
DWIDTH 21 0
BBX 20 22 1 -4
BITMAP
03FC00
0FFF00
1FFF80
3F0FC0
7E07E0
7C03E0
F801F0
F801F0
F801F0
F801F0
F801F0
F801F0
7C03E0
7E07E0
3F0FC0
1FFF80
0FFF00
03FC00
000000
00F000
00F000
00F000
ENDCHAR
STARTCHAR uni1ECD
ENCODING 7885
SWIDTH 675 0
DWIDTH 17 0
BBX 15 17 1 -4
BITMAP
0FE0
3FF8
7FFC
7C7C
F83E
F83E
F83E
F83E
F83E
7C7C
7FFC
3FF8
0FE0
0000
03C0
03C0
03C0
ENDCHAR
STARTCHAR uni1ED0
ENCODING 7888
SWIDTH 855 0
DWIDTH 21 0
BBX 20 26 1 0
BITMAP
003C00
007000
00E000
000000
00F800
01FC00
038E00
000000
03FC00
0FFF00
1FFF80
3F0FC0
7E07E0
7C03E0
F801F0
F801F0
F801F0
F801F0
F801F0
F801F0
7C03E0
7E07E0
3F0FC0
1FFF80
0FFF00
03FC00
ENDCHAR
STARTCHAR uni1ED1
ENCODING 7889
SWIDTH 675 0
DWIDTH 17 0
BBX 15 21 1 0
BITMAP
00F0
01C0
0380
0000
07C0
0FE0
1C70
0000
0FE0
3FF8
7FFC
7C7C
F83E
F83E
F83E
F83E
F83E
7C7C
7FFC
3FF8
0FE0
ENDCHAR
STARTCHAR uni1ED2
ENCODING 7890
SWIDTH 855 0
DWIDTH 21 0
BBX 20 26 1 0
BITMAP
03C000
00E000
007000
000000
00F800
01FC00
038E00
000000
03FC00
0FFF00
1FFF80
3F0FC0
7E07E0
7C03E0
F801F0
F801F0
F801F0
F801F0
F801F0
F801F0
7C03E0
7E07E0
3F0FC0
1FFF80
0FFF00
03FC00
ENDCHAR
STARTCHAR uni1ED3
ENCODING 7891
SWIDTH 675 0
DWIDTH 17 0
BBX 15 21 1 0
BITMAP
0F00
0380
01C0
0000
07C0
0FE0
1C70
0000
0FE0
3FF8
7FFC
7C7C
F83E
F83E
F83E
F83E
F83E
7C7C
7FFC
3FF8
0FE0
ENDCHAR
STARTCHAR uni1ED6
ENCODING 7894
SWIDTH 855 0
DWIDTH 21 0
BBX 20 26 1 0
BITMAP
01EE00
03FE00
03BC00
000000
00F800
01FC00
038E00
000000
03FC00
0FFF00
1FFF80
3F0FC0
7E07E0
7C03E0
F801F0
F801F0
F801F0
F801F0
F801F0
F801F0
7C03E0
7E07E0
3F0FC0
1FFF80
0FFF00
03FC00
ENDCHAR
STARTCHAR uni1ED7
ENCODING 7895
SWIDTH 675 0
DWIDTH 17 0
BBX 15 21 1 0
BITMAP
0F70
1FF0
1DE0
0000
07C0
0FE0
1C70
0000
0FE0
3FF8
7FFC
7C7C
F83E
F83E
F83E
F83E
F83E
7C7C
7FFC
3FF8
0FE0
ENDCHAR
STARTCHAR uni1ED8
ENCODING 7896
SWIDTH 855 0
DWIDTH 21 0
BBX 20 26 1 -4
BITMAP
00F800
01FC00
038E00
000000
03FC00
0FFF00
1FFF80
3F0FC0
7E07E0
7C03E0
F801F0
F801F0
F801F0
F801F0
F801F0
F801F0
7C03E0
7E07E0
3F0FC0
1FFF80
0FFF00
03FC00
000000
00F000
00F000
00F000
ENDCHAR
STARTCHAR uni1ED9
ENCODING 7897
SWIDTH 675 0
DWIDTH 17 0
BBX 15 21 1 -4
BITMAP
07C0
0FE0
1C70
0000
0FE0
3FF8
7FFC
7C7C
F83E
F83E
F83E
F83E
F83E
7C7C
7FFC
3FF8
0FE0
0000
03C0
03C0
03C0
ENDCHAR
STARTCHAR uni1EDA
ENCODING 7898
SWIDTH 855 0
DWIDTH 21 0
BBX 23 22 1 0
BITMAP
000780
000E00
001C00
000000
03FC3E
0FFF3E
1FFFBE
3F0FFE
7E07FE
7C03EE
F801FC
F801FC
F801F0
F801F0
F801F0
F801F0
7C03E0
7E07E0
3F0FC0
1FFF80
0FFF00
03FC00
ENDCHAR
STARTCHAR uni1EDB
ENCODING 7899
SWIDTH 675 0
DWIDTH 17 0
BBX 19 17 1 0
BITMAP
003C00
007000
00E000
000000
0FE3E0
3FFBE0
7FFFE0
7C7FE0
F83FE0
F83EE0
F83EC0
F83FC0
F83F00
7C7C00
7FFC00
3FF800
0FE000
ENDCHAR
STARTCHAR uni1EDC
ENCODING 7900
SWIDTH 855 0
DWIDTH 21 0
BBX 23 22 1 0
BITMAP
007800
001C00
000E00
000000
03FC3E
0FFF3E
1FFFBE
3F0FFE
7E07FE
7C03EE
F801FC
F801FC
F801F0
F801F0
F801F0
F801F0
7C03E0
7E07E0
3F0FC0
1FFF80
0FFF00
03FC00
ENDCHAR
STARTCHAR uni1EDD
ENCODING 7901
SWIDTH 675 0
DWIDTH 17 0
BBX 19 17 1 0
BITMAP
03C000
00E000
007000
000000
0FE3E0
3FFBE0
7FFFE0
7C7FE0
F83FE0
F83EE0
F83EC0
F83FC0
F83F00
7C7C00
7FFC00
3FF800
0FE000
ENDCHAR
STARTCHAR uni1EE0
ENCODING 7904
SWIDTH 855 0
DWIDTH 21 0
BBX 23 22 1 0
BITMAP
007B80
00FF80
00EF00
000000
03FC3E
0FFF3E
1FFFBE
3F0FFE
7E07FE
7C03EE
F801FC
F801FC
F801F0
F801F0
F801F0
F801F0
7C03E0
7E07E0
3F0FC0
1FFF80
0FFF00
03FC00
ENDCHAR
STARTCHAR uni1EE1
ENCODING 7905
SWIDTH 675 0
DWIDTH 17 0
BBX 19 17 1 0
BITMAP
01EE00
03FE00
03BC00
000000
0FE3E0
3FFBE0
7FFFE0
7C7FE0
F83FE0
F83EE0
F83EC0
F83FC0
F83F00
7C7C00
7FFC00
3FF800
0FE000
ENDCHAR
STARTCHAR uni1EE2
ENCODING 7906
SWIDTH 855 0
DWIDTH 21 0
BBX 23 22 1 -4
BITMAP
03FC3E
0FFF3E
1FFFBE
3F0FFE
7E07FE
7C03EE
F801FC
F801FC
F801F0
F801F0
F801F0
F801F0
7C03E0
7E07E0
3F0FC0
1FFF80
0FFF00
03FC00
000000
007800
007800
007800
ENDCHAR
STARTCHAR uni1EE3
ENCODING 7907
SWIDTH 675 0
DWIDTH 17 0
BBX 19 17 1 -4
BITMAP
0FE3E0
3FFBE0
7FFFE0
7C7FE0
F83FE0
F83EE0
F83EC0
F83FC0
F83F00
7C7C00
7FFC00
3FF800
0FE000
000000
03C000
03C000
03C000
ENDCHAR
STARTCHAR uni1EE4
ENCODING 7908
SWIDTH 783 0
DWIDTH 20 0
BBX 15 22 2 -4
BITMAP
F83E
F83E
F83E
F83E
F83E
F83E
F83E
F83E
F83E
F83E
F83E
F83E
F83E
F83E
7C7C
7FFC
3FF8
0FE0
0000
03C0
03C0
03C0
ENDCHAR
STARTCHAR uni1EE5
ENCODING 7909
SWIDTH 693 0
DWIDTH 17 0
BBX 13 17 2 -4
BITMAP
F8F8
F8F8
F8F8
F8F8
F8F8
F8F8
F8F8
F8F8
F8F8
F9F8
FFF8
7EF8
3CF8
0000
0780
0780
0780
ENDCHAR
STARTCHAR uni1EE8
ENCODING 7912
SWIDTH 783 0
DWIDTH 20 0
BBX 19 22 2 0
BITMAP
003C00
007000
00E000
000000
F83FE0
F83FE0
F83FE0
F83FE0
F83FE0
F83EE0
F83EC0
F83FC0
F83F00
F83E00
F83E00
F83E00
F83E00
F83E00
7C7C00
7FFC00
3FF800
0FE000
ENDCHAR
STARTCHAR uni1EE9
ENCODING 7913
SWIDTH 693 0
DWIDTH 17 0
BBX 17 17 2 0
BITMAP
007800
00E000
01C000
000000
F8FF80
F8FF80
F8FF80
F8FF80
F8FF80
F8FB80
F8FB00
F8FF00
F8FC00
F9F800
FFF800
7EF800
3CF800
ENDCHAR
STARTCHAR uni1EEA
ENCODING 7914
SWIDTH 783 0
DWIDTH 20 0
BBX 19 22 2 0
BITMAP
03C000
00E000
007000
000000
F83FE0
F83FE0
F83FE0
F83FE0
F83FE0
F83EE0
F83EC0
F83FC0
F83F00
F83E00
F83E00
F83E00
F83E00
F83E00
7C7C00
7FFC00
3FF800
0FE000
ENDCHAR
STARTCHAR uni1EEB
ENCODING 7915
SWIDTH 693 0
DWIDTH 17 0
BBX 17 17 2 0
BITMAP
078000
01C000
00E000
000000
F8FF80
F8FF80
F8FF80
F8FF80
F8FF80
F8FB80
F8FB00
F8FF00
F8FC00
F9F800
FFF800
7EF800
3CF800
ENDCHAR
STARTCHAR uni1EEE
ENCODING 7918
SWIDTH 783 0
DWIDTH 20 0
BBX 19 22 2 0
BITMAP
01EE00
03FE00
03BC00
000000
F83FE0
F83FE0
F83FE0
F83FE0
F83FE0
F83EE0
F83EC0
F83FC0
F83F00
F83E00
F83E00
F83E00
F83E00
F83E00
7C7C00
7FFC00
3FF800
0FE000
ENDCHAR
STARTCHAR uni1EEF
ENCODING 7919
SWIDTH 693 0
DWIDTH 17 0
BBX 17 17 2 0
BITMAP
03DC00
07FC00
077800
000000
F8FF80
F8FF80
F8FF80
F8FF80
F8FF80
F8FB80
F8FB00
F8FF00
F8FC00
F9F800
FFF800
7EF800
3CF800
ENDCHAR
STARTCHAR uni1EF0
ENCODING 7920
SWIDTH 783 0
DWIDTH 20 0
BBX 19 22 2 -4
BITMAP
F83FE0
F83FE0
F83FE0
F83FE0
F83FE0
F83EE0
F83EC0
F83FC0
F83F00
F83E00
F83E00
F83E00
F83E00
F83E00
7C7C00
7FFC00
3FF800
0FE000
000000
03C000
03C000
03C000
ENDCHAR
STARTCHAR uni1EF1
ENCODING 7921
SWIDTH 693 0
DWIDTH 17 0
BBX 17 17 2 -4
BITMAP
F8FF80
F8FF80
F8FF80
F8FF80
F8FF80
F8FB80
F8FB00
F8FF00
F8FC00
F9F800
FFF800
7EF800
3CF800
000000
078000
078000
078000
ENDCHAR
STARTCHAR Ygrave
ENCODING 7922
SWIDTH 738 0
DWIDTH 18 0
BBX 17 22 1 0
BITMAP
0F0000
038000
01C000
000000
FC0780
7C0700
7E0F00
3F0E00
3F1C00
1FBC00
1FB800
0FF800
07F000
07F000
03E000
03E000
03E000
03E000
03E000
03E000
03E000
03E000
ENDCHAR
STARTCHAR ygrave
ENCODING 7923
SWIDTH 645 0
DWIDTH 16 0
BBX 15 22 1 -5
BITMAP
1E00
0700
0380
0000
F81E
FC1C
7C3C
7E38
3E38
3E70
3F70
1FE0
1FE0
0FE0
0FC0
0FC0
0780
0780
0F00
0F00
1E00
3E00
ENDCHAR
STARTCHAR uni1EF4
ENCODING 7924
SWIDTH 738 0
DWIDTH 18 0
BBX 17 22 1 -4
BITMAP
FC0780
7C0700
7E0F00
3F0E00
3F1C00
1FBC00
1FB800
0FF800
07F000
07F000
03E000
03E000
03E000
03E000
03E000
03E000
03E000
03E000
000000
01E000
01E000
01E000
ENDCHAR
STARTCHAR uni1EF5
ENCODING 7925
SWIDTH 645 0
DWIDTH 16 0
BBX 15 22 1 -9
BITMAP
F81E
FC1C
7C3C
7E38
3E38
3E70
3F70
1FE0
1FE0
0FE0
0FC0
0FC0
0780
0780
0F00
0F00
1E00
3E00
0000
0F00
0F00
0F00
ENDCHAR
STARTCHAR uni1EF8
ENCODING 7928
SWIDTH 738 0
DWIDTH 18 0
BBX 17 22 1 0
BITMAP
07B800
0FF800
0EF000
000000
FC0780
7C0700
7E0F00
3F0E00
3F1C00
1FBC00
1FB800
0FF800
07F000
07F000
03E000
03E000
03E000
03E000
03E000
03E000
03E000
03E000
ENDCHAR
STARTCHAR uni1EF9
ENCODING 7929
SWIDTH 645 0
DWIDTH 16 0
BBX 15 22 1 -5
BITMAP
0F70
1FF0
1DE0
0000
F81E
FC1C
7C3C
7E38
3E38
3E70
3F70
1FE0
1FE0
0FE0
0FC0
0FC0
0780
0780
0F00
0F00
1E00
3E00
ENDCHAR
STARTCHAR uni2000
ENCODING 8192
SWIDTH 500 0
DWIDTH 13 0
BBX 1 1 0 0
BITMAP
00
ENDCHAR
STARTCHAR uni2001
ENCODING 8193
SWIDTH 1000 0
DWIDTH 25 0
BBX 1 1 0 0
BITMAP
00
ENDCHAR
STARTCHAR uni2002
ENCODING 8194
SWIDTH 500 0
DWIDTH 13 0
BBX 1 1 0 0
BITMAP
00
ENDCHAR
STARTCHAR uni2003
ENCODING 8195
SWIDTH 1000 0
DWIDTH 25 0
BBX 1 1 0 0
BITMAP
00
ENDCHAR
STARTCHAR uni2004
ENCODING 8196
SWIDTH 333 0
DWIDTH 8 0
BBX 1 1 0 0
BITMAP
00
ENDCHAR
STARTCHAR uni2005
ENCODING 8197
SWIDTH 250 0
DWIDTH 6 0
BBX 1 1 0 0
BITMAP
00
ENDCHAR
STARTCHAR uni2006
ENCODING 8198
SWIDTH 167 0
DWIDTH 4 0
BBX 1 1 0 0
BITMAP
00
ENDCHAR
STARTCHAR uni2007
ENCODING 8199
SWIDTH 687 0
DWIDTH 17 0
BBX 1 1 0 0
BITMAP
00
ENDCHAR
STARTCHAR uni2008
ENCODING 8200
SWIDTH 343 0
DWIDTH 9 0
BBX 1 1 0 0
BITMAP
00
ENDCHAR
STARTCHAR uni2009
ENCODING 8201
SWIDTH 200 0
DWIDTH 5 0
BBX 1 1 0 0
BITMAP
00
ENDCHAR
STARTCHAR uni200A
ENCODING 8202
SWIDTH 100 0
DWIDTH 3 0
BBX 1 1 0 0
BITMAP
00
ENDCHAR
STARTCHAR uni200B
ENCODING 8203
SWIDTH 0 0
DWIDTH 0 0
BBX 1 1 0 0
BITMAP
00
ENDCHAR
STARTCHAR uni2010
ENCODING 8208
SWIDTH 289 0
DWIDTH 7 0
BBX 5 3 1 6
BITMAP
F8
F8
F8
ENDCHAR
STARTCHAR uni2011
ENCODING 8209
SWIDTH 289 0
DWIDTH 7 0
BBX 5 3 1 6
BITMAP
F8
F8
F8
ENDCHAR
STARTCHAR figuredash
ENCODING 8210
SWIDTH 500 0
DWIDTH 13 0
BBX 11 3 1 6
BITMAP
FFE0
FFE0
FFE0
ENDCHAR
STARTCHAR endash
ENCODING 8211
SWIDTH 500 0
DWIDTH 13 0
BBX 11 3 1 6
BITMAP
FFE0
FFE0
FFE0
ENDCHAR
STARTCHAR emdash
ENCODING 8212
SWIDTH 1000 0
DWIDTH 25 0
BBX 23 2 1 6
BITMAP
FFFFFE
FFFFFE
ENDCHAR
STARTCHAR afii00208
ENCODING 8213
SWIDTH 1000 0
DWIDTH 25 0
BBX 23 2 1 6
BITMAP
FFFFFE
FFFFFE
ENDCHAR
STARTCHAR quoteleft
ENCODING 8216
SWIDTH 265 0
DWIDTH 7 0
BBX 5 9 1 10
BITMAP
18
78
60
E0
F8
F8
F8
F8
F8
ENDCHAR
STARTCHAR quoteright
ENCODING 8217
SWIDTH 265 0
DWIDTH 7 0
BBX 5 9 1 10
BITMAP
F8
F8
F8
F8
F8
38
30
F0
C0
ENDCHAR
STARTCHAR quotesinglbase
ENCODING 8218
SWIDTH 265 0
DWIDTH 7 0
BBX 5 9 1 -4
BITMAP
F8
F8
F8
F8
F8
38
70
F0
C0
ENDCHAR
STARTCHAR quotereversed
ENCODING 8219
SWIDTH 265 0
DWIDTH 7 0
BBX 5 9 1 10
BITMAP
F8
F8
F8
F8
F8
E0
60
78
18
ENDCHAR
STARTCHAR quotedblleft
ENCODING 8220
SWIDTH 530 0
DWIDTH 13 0
BBX 11 9 1 10
BITMAP
1860
79E0
61C0
E380
FBE0
FBE0
FBE0
FBE0
FBE0
ENDCHAR
STARTCHAR quotedblright
ENCODING 8221
SWIDTH 530 0
DWIDTH 13 0
BBX 11 9 1 10
BITMAP
FBE0
FBE0
FBE0
FBE0
FBE0
38E0
70C0
F3C0
C300
ENDCHAR
STARTCHAR quotedblbase
ENCODING 8222
SWIDTH 530 0
DWIDTH 13 0
BBX 11 9 1 -4
BITMAP
FBE0
FBE0
FBE0
FBE0
FBE0
38E0
70C0
F3C0
C300
ENDCHAR
STARTCHAR uni201F
ENCODING 8223
SWIDTH 530 0
DWIDTH 13 0
BBX 11 9 1 10
BITMAP
FBE0
FBE0
FBE0
FBE0
FBE0
E380
61C0
79E0
1860
ENDCHAR
STARTCHAR dagger
ENCODING 8224
SWIDTH 693 0
DWIDTH 17 0
BBX 12 22 3 -4
BITMAP
0F00
0F00
0F00
0F00
0F00
0F00
FFF0
FFF0
FFF0
0F00
0F00
0F00
0F00
0F00
0F00
0F00
0F00
0F00
0F00
0F00
0F00
0F00
ENDCHAR
STARTCHAR daggerdbl
ENCODING 8225
SWIDTH 693 0
DWIDTH 17 0
BBX 12 22 3 -4
BITMAP
0F00
0F00
0F00
0F00
0F00
0F00
FFF0
FFF0
FFF0
0F00
0F00
0F00
0F00
FFF0
FFF0
FFF0
0F00
0F00
0F00
0F00
0F00
0F00
ENDCHAR
STARTCHAR bullet
ENCODING 8226
SWIDTH 687 0
DWIDTH 17 0
BBX 10 10 4 2
BITMAP
FFC0
FFC0
FFC0
FFC0
FFC0
FFC0
FFC0
FFC0
FFC0
FFC0
ENDCHAR
STARTCHAR ellipsis
ENCODING 8230
SWIDTH 1000 0
DWIDTH 25 0
BBX 20 3 3 0
BITMAP
E0E070
E0E070
E0E070
ENDCHAR
STARTCHAR perthousand
ENCODING 8240
SWIDTH 1313 0
DWIDTH 33 0
BBX 32 18 0 0
BITMAP
3E00F000
7F01E000
FF83C000
E3878000
E38F0000
E38E0000
FF9E0000
7F3C0000
3E780000
0071E07C
00F7F8FE
01EFFDFF
03CF3DC7
078E1DC7
070F3DC7
0F0FFDFF
1E07F8FE
3C01E07C
ENDCHAR
STARTCHAR guilsinglleft
ENCODING 8249
SWIDTH 361 0
DWIDTH 9 0
BBX 8 11 1 1
BITMAP
04
0F
1E
3C
7C
F8
7C
3C
1E
0F
04
ENDCHAR
STARTCHAR guilsinglright
ENCODING 8250
SWIDTH 361 0
DWIDTH 9 0
BBX 8 11 1 1
BITMAP
20
F0
78
3C
3E
1F
3E
3C
78
F0
20
ENDCHAR
STARTCHAR fraction
ENCODING 8260
SWIDTH 93 0
DWIDTH 2 0
BBX 18 18 -7 0
BITMAP
0003C0
000780
000F00
001E00
001C00
003C00
007800
00F000
01E000
01E000
03C000
078000
0F0000
0E0000
1E0000
3C0000
780000
F00000
ENDCHAR
STARTCHAR oneinferior
ENCODING 8321
SWIDTH 536 0
DWIDTH 10 0
BBX 5 11 -17 -6
BITMAP
F8
F8
38
38
38
38
38
38
38
38
38
ENDCHAR
STARTCHAR twoinferior
ENCODING 8322
SWIDTH 536 0
DWIDTH 10 0
BBX 8 11 -16 -6
BITMAP
7C
FF
87
07
07
0E
1C
78
F0
FF
FF
ENDCHAR
STARTCHAR threeinferior
ENCODING 8323
SWIDTH 536 0
DWIDTH 10 0
BBX 8 11 -16 -6
BITMAP
7C
FF
87
07
7E
7C
0E
07
87
FF
FC
ENDCHAR
STARTCHAR uni20A5
ENCODING 8357
SWIDTH 1006 0
DWIDTH 25 0
BBX 21 23 2 -5
BITMAP
0003C0
000380
000780
000700
000F00
FBEFF0
F7FFF8
FFFFF8
FFFFF8
FCFCF8
F8F8F8
F8F8F8
F8F8F8
F8F8F8
F9F8F8
F9F8F8
FBF8F8
FBF8F8
078000
070000
0F0000
0E0000
1E0000
ENDCHAR
STARTCHAR uni20A6
ENCODING 8358
SWIDTH 783 0
DWIDTH 20 0
BBX 15 18 2 0
BITMAP
F00E
F80E
FC0E
FE0E
FFFE
FFFE
FFFE
FF8E
EFCE
E7EE
FFFE
FFFE
FFFE
E0FE
E0FE
E07E
E03E
E01E
ENDCHAR
STARTCHAR uni20A9
ENCODING 8361
SWIDTH 940 0
DWIDTH 23 0
BBX 23 18 0 0
BITMAP
F83C0E
F83C0E
F83E1C
7C7E1C
7FFFFC
7FFFFC
7FFFF8
3EFF38
3EEF38
3EEF38
3FFFF0
1FFFF0
1FFFF0
1FC7F0
1FC7E0
1FC7E0
0F83E0
0F83E0
ENDCHAR
STARTCHAR Euro
ENCODING 8364
SWIDTH 726 0
DWIDTH 18 0
BBX 21 18 -3 0
BITMAP
003FF0
00FFF8
01FFF8
03F018
FFFC00
FFFC00
FFFC00
0F8000
0F8000
0F8000
FFFC00
FFFC00
FFFC00
07E000
03F818
01FFF8
00FFF8
003FE0
ENDCHAR
STARTCHAR uni20AD
ENCODING 8365
SWIDTH 753 0
DWIDTH 19 0
BBX 16 18 2 0
BITMAP
F81E
F83C
F878
F870
F8F0
F9E0
FBC0
FFFF
FFFF
FFFF
FFE0
FBF0
F9F8
F9F8
F8FC
F87E
F87E
F83F
ENDCHAR
STARTCHAR uni2103
ENCODING 8451
SWIDTH 955 0
DWIDTH 24 0
BBX 23 18 1 0
BITMAP
600FFC
903FFE
907FFE
60FC06
01F800
01F000
03E000
03E000
03E000
03E000
03E000
03E000
01F000
01F800
00FE06
007FFE
003FFE
000FF8
ENDCHAR
STARTCHAR uni2109
ENCODING 8457
SWIDTH 831 0
DWIDTH 21 0
BBX 20 18 1 0
BITMAP
61FFF0
91FFF0
91FFF0
61F000
01F000
01F000
01F000
01F000
01FFE0
01FFE0
01FFE0
01F000
01F000
01F000
01F000
01F000
01F000
01F000
ENDCHAR
STARTCHAR trademark
ENCODING 8482
SWIDTH 901 0
DWIDTH 23 0
BBX 22 9 0 9
BITMAP
FFFE3C
FFFF7C
FFFF7C
1F1F7C
1F1FFC
1F1FFC
1F1FFC
1F1D7C
1F1C7C
ENDCHAR
STARTCHAR uni212A
ENCODING 8490
SWIDTH 753 0
DWIDTH 19 0
BBX 16 18 2 0
BITMAP
F81E
F83C
F878
F870
F8F0
F9E0
FBC0
FBC0
FFC0
FFE0
FFE0
FBF0
F9F8
F9F8
F8FC
F87E
F87E
F83F
ENDCHAR
STARTCHAR uni212B
ENCODING 8491
SWIDTH 773 0
DWIDTH 19 0
BBX 19 23 0 0
BITMAP
006000
009000
009000
006000
000000
01F000
03F800
03F800
03FC00
07FC00
077C00
0F7E00
0E3E00
0E3F00
1C1F00
1FFF00
1FFF80
3FFF80
380FC0
7807C0
7007C0
7003E0
E003E0
ENDCHAR
STARTCHAR uni2132
ENCODING 8498
SWIDTH 602 0
DWIDTH 15 0
BBX 13 18 2 0
BITMAP
00F8
00F8
00F8
00F8
00F8
00F8
00F8
7FF8
7FF8
7FF8
00F8
00F8
00F8
00F8
00F8
FFF8
FFF8
FFF8
ENDCHAR
STARTCHAR universal
ENCODING 8704
SWIDTH 773 0
DWIDTH 19 0
BBX 19 18 0 0
BITMAP
E003E0
7003E0
7007C0
7807C0
380FC0
3FFF80
1FFF80
1FFF00
1C1F00
0E3F00
0E3E00
0F7E00
077C00
07FC00
03FC00
03F800
03F800
01F000
ENDCHAR
STARTCHAR existential
ENCODING 8707
SWIDTH 645 0
DWIDTH 16 0
BBX 13 18 2 0
BITMAP
7FF8
7FF8
7FF8
00F8
00F8
00F8
00F8
3FF8
3FF8
3FF8
00F8
00F8
00F8
00F8
00F8
FFF8
FFF8
FFF8
ENDCHAR
STARTCHAR uni2204
ENCODING 8708
SWIDTH 645 0
DWIDTH 16 0
BBX 15 23 1 -2
BITMAP
001E
001C
003C
3FFC
3FFC
3FFC
00FC
00FC
01FC
01FC
1FFC
1FFC
1FFC
077C
0F7C
0E7C
1E7C
1C7C
7FFC
7FFC
7FFC
7000
F000
ENDCHAR
STARTCHAR minus
ENCODING 8722
SWIDTH 687 0
DWIDTH 17 0
BBX 14 3 2 6
BITMAP
FFFC
FFFC
FFFC
ENDCHAR
STARTCHAR fraction
ENCODING 8725
SWIDTH 93 0
DWIDTH 2 0
BBX 18 18 -7 0
BITMAP
0003C0
000780
000F00
001E00
001C00
003C00
007800
00F000
01E000
01E000
03C000
078000
0F0000
0E0000
1E0000
3C0000
780000
F00000
ENDCHAR
STARTCHAR periodcentered
ENCODING 8729
SWIDTH 343 0
DWIDTH 17 0
BBX 4 3 7 6
BITMAP
F0
F0
F0
ENDCHAR
STARTCHAR uni2236
ENCODING 8758
SWIDTH 343 0
DWIDTH 9 0
BBX 5 13 2 0
BITMAP
F8
F8
F8
F8
F8
00
00
00
F8
F8
F8
F8
F8
ENDCHAR
STARTCHAR uni2259
ENCODING 8793
SWIDTH 687 0
DWIDTH 17 0
BBX 14 13 2 2
BITMAP
07C0
0FE0
1C70
0000
FFFC
FFFC
FFFC
0000
0000
0000
FFFC
FFFC
FFFC
ENDCHAR
STARTCHAR uni225A
ENCODING 8794
SWIDTH 687 0
DWIDTH 17 0
BBX 14 13 2 2
BITMAP
1C70
0FE0
07C0
0000
FFFC
FFFC
FFFC
0000
0000
0000
FFFC
FFFC
FFFC
ENDCHAR
STARTCHAR notequal
ENCODING 8800
SWIDTH 687 0
DWIDTH 17 0
BBX 15 23 2 -5
BITMAP
001E
001C
003C
0038
0078
0070
00F0
FFFC
FFFC
FFFC
03C0
0380
0780
FFFC
FFFC
FFFC
1E00
1C00
3C00
3800
7800
7000
F000
ENDCHAR
STARTCHAR equivalence
ENCODING 8801
SWIDTH 687 0
DWIDTH 17 0
BBX 14 11 0 2
BITMAP
FFFC
FFFC
FFFC
0000
FFFC
FFFC
FFFC
0000
FFFC
FFFC
FFFC
ENDCHAR
STARTCHAR uni2262
ENCODING 8802
SWIDTH 687 0
DWIDTH 17 0
BBX 15 23 0 -4
BITMAP
001E
001C
003C
0038
0078
0070
FFFC
FFFC
FFFC
01C0
FFFC
FFFC
FFFC
0700
FFFC
FFFC
FFFC
1C00
3C00
3800
7800
7000
F000
ENDCHAR
STARTCHAR lessequal
ENCODING 8804
SWIDTH 687 0
DWIDTH 17 0
BBX 14 19 2 -4
BITMAP
0004
001C
007C
01FC
07F0
1FC0
3F00
FC00
3F00
1FC0
07F0
01FC
007C
001C
0004
0000
FFFC
FFFC
FFFC
ENDCHAR
STARTCHAR greaterequal
ENCODING 8805
SWIDTH 687 0
DWIDTH 17 0
BBX 14 19 2 -4
BITMAP
8000
E000
F800
FE00
3F80
0FE0
03F0
00FC
03F0
0FE0
3F80
FE00
F800
E000
8000
0000
FFFC
FFFC
FFFC
ENDCHAR
STARTCHAR uni226E
ENCODING 8814
SWIDTH 687 0
DWIDTH 17 0
BBX 15 23 2 -4
BITMAP
001E
001C
003C
0038
007C
007C
00FC
01FC
07F0
1FC0
3FC0
FF80
3F80
1FC0
0FF0
0FFC
1E7C
1C1C
3C04
3800
7800
7000
F000
ENDCHAR
STARTCHAR uni226F
ENCODING 8815
SWIDTH 687 0
DWIDTH 17 0
BBX 15 23 2 -4
BITMAP
001E
001C
003C
0038
8078
E070
F8F0
FEE0
3FE0
0FE0
03F0
03FC
07F0
0FE0
3F80
FE00
FE00
FC00
BC00
3800
7800
7000
F000
ENDCHAR
STARTCHAR uni2270
ENCODING 8816
SWIDTH 687 0
DWIDTH 17 0
BBX 15 23 2 -6
BITMAP
001E
001C
003C
003C
007C
01FC
07F0
1FE0
3FE0
FDC0
3FC0
1FC0
07F0
07FC
0F7C
0E1C
1E04
1C00
FFFC
FFFC
FFFC
7000
F000
ENDCHAR
STARTCHAR uni2271
ENCODING 8817
SWIDTH 687 0
DWIDTH 17 0
BBX 15 23 2 -6
BITMAP
001E
001C
803C
E038
F878
FE70
3FF0
0FE0
03F0
01FC
03F0
0FE0
3F80
FF00
FF00
EE00
9E00
1C00
FFFC
FFFC
FFFC
7000
F000
ENDCHAR
STARTCHAR fi
ENCODING -1
SWIDTH 711 0
DWIDTH 18 0
BBX 15 19 1 0
BITMAP
0FE0
1FE0
3FE0
3E00
3E00
3E00
FFFE
FFFE
FFFE
3E3E
3E3E
3E3E
3E3E
3E3E
3E3E
3E3E
3E3E
3E3E
3E3E
ENDCHAR
STARTCHAR fl
ENCODING -1
SWIDTH 711 0
DWIDTH 18 0
BBX 15 19 1 0
BITMAP
0FFE
1FFE
3FFE
3E3E
3E3E
3E3E
FFBE
FFBE
FFBE
3E3E
3E3E
3E3E
3E3E
3E3E
3E3E
3E3E
3E3E
3E3E
3E3E
ENDCHAR
ENDFONT
